<?xml version="1.0" encoding="UTF-8"?>
<!DOCTYPE svg PUBLIC "-//W3C//DTD SVG 1.1//EN" "http://www.w3.org/Graphics/SVG/1.1/DTD/svg11.dtd">
<svg xmlns="http://www.w3.org/2000/svg" version="1.1" width="594px" height="124px" style="shape-rendering:geometricPrecision; text-rendering:geometricPrecision; image-rendering:optimizeQuality; fill-rule:evenodd; clip-rule:evenodd" xmlns:xlink="http://www.w3.org/1999/xlink">
<g><path style="opacity:0.935" fill="#f2ab2f" d="M 80.5,34.5 C 75.8333,38.8333 71.1667,43.1667 66.5,47.5C 65.4265,46.7494 65.2599,45.7494 66,44.5C 69.5,41 73,37.5 76.5,34C 78.0657,33.235 79.3991,33.4017 80.5,34.5 Z"/></g>
<g><path style="opacity:0.992" fill="#f3ab30" d="M 80.5,37.5 C 82.674,37.7497 84.3406,38.7497 85.5,40.5C 85.43,48.2678 84.7633,55.9344 83.5,63.5C 83.1667,63.5 82.8333,63.5 82.5,63.5C 80.5,59.5 77.5,56.5 73.5,54.5C 72.1667,52.5 70.8333,50.5 69.5,48.5C 72.8333,44.5 76.5,40.8333 80.5,37.5 Z"/></g>
<g><path style="opacity:1" fill="#df860e" d="M 80.5,34.5 C 81.625,35.3478 81.625,36.3478 80.5,37.5C 76.5,40.8333 72.8333,44.5 69.5,48.5C 68.209,48.7373 67.209,48.404 66.5,47.5C 71.1667,43.1667 75.8333,38.8333 80.5,34.5 Z"/></g>
<g><path style="opacity:0.935" fill="#dd820a" d="M 85.5,40.5 C 91.2784,44.9396 95.9451,50.2729 99.5,56.5C 96.1667,60.5 92.5,64.1667 88.5,67.5C 86.246,66.8763 84.5794,65.543 83.5,63.5C 84.7633,55.9344 85.43,48.2678 85.5,40.5 Z"/></g>
<g><path style="opacity:0.884" fill="#a07171" d="M 401.5,41.5 C 402.117,41.6107 402.617,41.944 403,42.5C 403.333,53.8333 403.667,65.1667 404,76.5C 405.487,77.1552 406.653,78.1552 407.5,79.5C 404.565,79.2443 401.565,79.5776 398.5,80.5C 398.649,79.448 398.483,78.448 398,77.5C 388.552,83.1925 383.385,80.5258 382.5,69.5C 383.203,59.9941 388.203,55.9941 397.5,57.5C 398.489,53.8927 398.823,50.226 398.5,46.5C 396.335,46.8841 394.668,46.2174 393.5,44.5C 396.37,43.7432 399.036,42.7432 401.5,41.5 Z M 391.5,59.5 C 394.044,59.1043 396.211,59.771 398,61.5C 398.667,65.8333 398.667,70.1667 398,74.5C 394.626,77.4052 391.626,77.0719 389,73.5C 387.718,68.2948 388.551,63.6282 391.5,59.5 Z"/></g>
<g><path style="opacity:0.864" fill="#d84b4b" d="M 145.5,42.5 C 151.158,52.9141 155.991,63.9141 160,75.5C 161.946,76.747 163.78,78.0803 165.5,79.5C 160.708,79.4253 155.875,79.7586 151,80.5C 150.167,80.1667 149.333,79.8333 148.5,79.5C 149.668,77.7826 151.335,77.1159 153.5,77.5C 152.796,68.1847 147.962,65.1847 139,68.5C 137.57,71.3527 136.737,74.3527 136.5,77.5C 140.211,77.4695 140.878,78.4695 138.5,80.5C 135.5,79.1667 132.5,79.1667 129.5,80.5C 128.263,80.4435 127.263,79.9435 126.5,79C 128.788,78.0536 130.955,76.8869 133,75.5C 137.214,64.4249 141.381,53.4249 145.5,42.5 Z M 144.5,54.5 C 146.198,57.2314 147.531,60.2314 148.5,63.5C 145.894,64.6517 143.227,64.8184 140.5,64C 142.128,60.9484 143.461,57.7818 144.5,54.5 Z"/></g>
<g><path style="opacity:0.877" fill="#ac6868" d="M 351.5,44.5 C 349.94,46.1294 350.273,47.296 352.5,48C 351.833,49.6667 351.167,51.3333 350.5,53C 353.167,54.3333 353.167,55.6667 350.5,57C 353.167,57.6667 353.167,58.3333 350.5,59C 353.167,59.6667 353.167,60.3333 350.5,61C 351.672,61.4186 352.672,62.0853 353.5,63C 353.272,63.3988 352.938,63.5654 352.5,63.5C 348.7,61.8568 344.7,61.1901 340.5,61.5C 340.5,66.8333 340.5,72.1667 340.5,77.5C 344.037,77.6893 347.37,77.0226 350.5,75.5C 350.393,77.3786 350.893,77.7119 352,76.5C 352.717,77.0442 353.217,77.7109 353.5,78.5C 346.024,79.1846 338.524,79.8513 331,80.5C 330.167,80.1667 329.333,79.8333 328.5,79.5C 329.991,77.9884 331.824,76.9884 334,76.5C 334.667,66.5 334.667,56.5 334,46.5C 332.175,45.8971 330.341,45.2304 328.5,44.5C 336.224,43.2022 343.891,43.2022 351.5,44.5 Z M 340.5,45.5 C 348.845,45.6908 351.178,49.5241 347.5,57C 345.323,58.2022 342.989,58.7022 340.5,58.5C 340.5,54.1667 340.5,49.8333 340.5,45.5 Z"/></g>
<g><path style="opacity:0.767" fill="#a56e6e" d="M 370.5,45.5 C 374.707,45.6938 376.04,47.6938 374.5,51.5C 368.344,52.9463 367.011,50.9463 370.5,45.5 Z"/></g>
<g><path style="opacity:0.869" fill="#947878" d="M 445.5,45.5 C 449.184,46.372 450.184,48.5386 448.5,52C 445.433,53.1642 443.767,52.1642 443.5,49C 443.862,47.5657 444.528,46.3991 445.5,45.5 Z"/></g>
<g><path style="opacity:0.764" fill="#c15b5b" d="M 247.5,45.5 C 251.707,45.6938 253.04,47.6938 251.5,51.5C 245.344,52.9463 244.011,50.9463 247.5,45.5 Z"/></g>
<g><path style="opacity:0.881" fill="#9a7575" d="M 430.5,41.5 C 431.117,41.6107 431.617,41.944 432,42.5C 432.333,53.8333 432.667,65.1667 433,76.5C 434.487,77.1552 435.653,78.1552 436.5,79.5C 433.627,79.2754 430.627,79.6087 427.5,80.5C 427.649,79.448 427.483,78.448 427,77.5C 417.957,83.1345 412.79,80.6345 411.5,70C 412.212,60.4416 417.212,56.2749 426.5,57.5C 427.489,53.8927 427.823,50.226 427.5,46.5C 425.335,46.8841 423.668,46.2174 422.5,44.5C 425.447,43.92 428.114,42.92 430.5,41.5 Z M 420.5,59.5 C 423.044,59.1043 425.211,59.771 427,61.5C 427.667,65.8333 427.667,70.1667 427,74.5C 423.626,77.4052 420.626,77.0719 418,73.5C 416.806,68.3686 417.639,63.7019 420.5,59.5 Z"/></g>
<g><path style="opacity:0.797" fill="#c65757" d="M 228.5,52.5 C 229.5,52.5 230.5,52.5 231.5,52.5C 231.5,54.5 231.5,56.5 231.5,58.5C 240.833,59.1667 240.833,59.8333 231.5,60.5C 231.334,65.5111 231.501,70.5111 232,75.5C 234.382,76.8663 236.548,76.533 238.5,74.5C 239.754,76.2592 239.421,77.7592 237.5,79C 233.206,81.386 229.373,80.886 226,77.5C 225.501,71.8431 225.334,66.1764 225.5,60.5C 224.325,60.719 223.325,60.3857 222.5,59.5C 225.236,57.7665 227.236,55.4331 228.5,52.5 Z"/></g>
<g><path style="opacity:0.881" fill="#db810a" d="M 73.5,54.5 C 77.5,56.5 80.5,59.5 82.5,63.5C 81.4324,64.4345 80.099,64.7678 78.5,64.5C 78.573,62.9731 77.9063,61.9731 76.5,61.5C 75.7377,59.7376 74.4044,58.7376 72.5,58.5C 72.2322,56.901 72.5655,55.5676 73.5,54.5 Z"/></g>
<g><path style="opacity:0.933" fill="#f1a72c" d="M 102.5,56.5 C 98.1667,61.1667 93.8333,65.8333 89.5,70.5C 88.596,69.791 88.2627,68.791 88.5,67.5C 92.5,64.1667 96.1667,60.5 99.5,56.5C 100.652,55.375 101.652,55.375 102.5,56.5 Z"/></g>
<g><path style="opacity:0.773" fill="#df850d" d="M 102.5,56.5 C 104.859,57.3887 105.025,58.722 103,60.5C 99.5,64 96,67.5 92.5,71C 91.2506,71.7401 90.2506,71.5735 89.5,70.5C 93.8333,65.8333 98.1667,61.1667 102.5,56.5 Z"/></g>
<g><path style="opacity:0.854" fill="#ca5454" d="M 208.5,56.5 C 213.465,55.9748 217.131,57.8082 219.5,62C 218.557,64.9809 216.557,65.9809 213.5,65C 212.253,63.5421 212.253,62.0421 213.5,60.5C 209.904,58.7209 207.404,59.7209 206,63.5C 205.333,66.8333 205.333,70.1667 206,73.5C 210.428,77.6287 214.594,77.2953 218.5,72.5C 219.064,76.1547 217.397,78.6547 213.5,80C 202.003,81.1616 197.503,75.9949 200,64.5C 201.445,60.218 204.278,57.5513 208.5,56.5 Z"/></g>
<g><path style="opacity:0.859" fill="#c15a5a" d="M 249.5,56.5 C 250.117,56.6107 250.617,56.944 251,57.5C 251.333,63.8333 251.667,70.1667 252,76.5C 253.487,77.1552 254.653,78.1552 255.5,79.5C 251.243,79.2046 246.91,79.5379 242.5,80.5C 242.5,79.5 242.5,78.5 242.5,77.5C 243.822,77.67 244.989,77.3366 246,76.5C 246.499,71.5111 246.666,66.5111 246.5,61.5C 244.833,61.5 243.167,61.5 241.5,61.5C 241.5,60.5 241.5,59.5 241.5,58.5C 244.553,58.8893 247.22,58.2227 249.5,56.5 Z"/></g>
<g><path style="opacity:0.798" fill="#b66262" d="M 293.5,56.5 C 294.966,57.347 295.8,58.6803 296,60.5C 299.553,56.4374 303.553,55.7708 308,58.5C 309.37,64.7416 309.87,71.0749 309.5,77.5C 312.812,77.265 313.645,78.265 312,80.5C 308.092,79.6799 304.259,79.3465 300.5,79.5C 302.629,76.6529 303.629,73.3195 303.5,69.5C 303.333,66.8333 303.167,64.1667 303,61.5C 300.279,60.3389 297.946,61.0056 296,63.5C 295.501,68.1548 295.334,72.8215 295.5,77.5C 299.579,77.6691 300.079,78.6691 297,80.5C 293.667,79.1667 290.333,79.1667 287,80.5C 285.355,78.265 286.188,77.265 289.5,77.5C 289.5,72.1667 289.5,66.8333 289.5,61.5C 288.167,61.5 286.833,61.5 285.5,61.5C 285.5,60.5 285.5,59.5 285.5,58.5C 288.495,58.7062 291.162,58.0395 293.5,56.5 Z"/></g>
<g><path style="opacity:0.855" fill="#a56d6d" d="M 372.5,56.5 C 373.117,56.6107 373.617,56.944 374,57.5C 374.333,63.8333 374.667,70.1667 375,76.5C 376.487,77.1552 377.653,78.1552 378.5,79.5C 374.243,79.2046 369.91,79.5379 365.5,80.5C 365.5,79.5 365.5,78.5 365.5,77.5C 366.822,77.67 367.989,77.3366 369,76.5C 369.499,71.5111 369.666,66.5111 369.5,61.5C 367.833,61.5 366.167,61.5 364.5,61.5C 364.5,60.5 364.5,59.5 364.5,58.5C 367.553,58.8893 370.22,58.2227 372.5,56.5 Z"/></g>
<g><path style="opacity:0.907" fill="#957979" d="M 444.5,57.5 C 446.167,57.5 447.833,57.5 449.5,57.5C 449.5,64.1667 449.5,70.8333 449.5,77.5C 453.211,77.4695 453.878,78.4695 451.5,80.5C 447.824,79.4561 444.157,79.2894 440.5,80C 439.167,79.3333 439.167,78.6667 440.5,78C 441.448,77.5172 442.448,77.3505 443.5,77.5C 444.74,72.1741 444.74,66.8408 443.5,61.5C 442.167,61.5 440.833,61.5 439.5,61.5C 439.5,60.5 439.5,59.5 439.5,58.5C 441.415,58.7845 443.081,58.4511 444.5,57.5 Z"/></g>
<g><path style="opacity:0.902" fill="#907c7c" d="M 472.5,56.5 C 475.198,56.4503 477.364,57.4503 479,59.5C 479.424,65.5147 479.924,71.5147 480.5,77.5C 481.5,77.5 482.5,77.5 483.5,77.5C 483.5,78.5 483.5,79.5 483.5,80.5C 479.5,79.1667 475.5,79.1667 471.5,80.5C 471.5,79.5 471.5,78.5 471.5,77.5C 472.5,77.5 473.5,77.5 474.5,77.5C 474.666,72.1563 474.499,66.8229 474,61.5C 471.094,60.5876 468.427,61.2543 466,63.5C 465.333,67.8333 465.333,72.1667 466,76.5C 467.487,77.1552 468.653,78.1552 469.5,79.5C 465.243,79.2046 460.91,79.5379 456.5,80.5C 456.5,79.5 456.5,78.5 456.5,77.5C 457.822,77.67 458.989,77.3366 460,76.5C 460.499,71.5111 460.666,66.5111 460.5,61.5C 458.833,61.5 457.167,61.5 455.5,61.5C 455.5,60.5 455.5,59.5 455.5,58.5C 458.86,58.3841 462.193,58.0508 465.5,57.5C 465.351,58.552 465.517,59.552 466,60.5C 468.095,58.8753 470.261,57.5419 472.5,56.5 Z"/></g>
<g><path style="opacity:0.827" fill="#898080" d="M 494.5,56.5 C 497.74,56.7678 500.906,57.4345 504,58.5C 508.017,55.5209 510.017,56.5209 510,61.5C 508.644,62.3802 507.144,62.7135 505.5,62.5C 505.923,70.9098 501.923,74.7431 493.5,74C 493.043,74.414 492.709,74.914 492.5,75.5C 497.306,77.1551 502.306,77.9884 507.5,78C 511.146,85.0638 509.146,90.0638 501.5,93C 497.375,93.8538 493.375,93.5204 489.5,92C 486.57,87.9807 487.237,84.6474 491.5,82C 486.577,79.4901 486.244,76.3235 490.5,72.5C 485.677,65.5748 487.01,60.2415 494.5,56.5 Z M 494.5,59.5 C 496.451,59.2267 497.951,59.8934 499,61.5C 499.667,64.1667 499.667,66.8333 499,69.5C 497.333,72.1667 495.667,72.1667 494,69.5C 493.253,66.0764 493.42,62.7431 494.5,59.5 Z M 498.5,81.5 C 505.014,81.1465 506.681,83.6465 503.5,89C 498.709,91.7092 495.042,90.7092 492.5,86C 493.747,83.3792 495.747,81.8792 498.5,81.5 Z"/></g>
<g><path style="opacity:0.951" fill="#a96b6b" d="M 351.5,44.5 C 358.204,48.0824 358.87,52.5824 353.5,58C 364.133,64.9706 364.133,71.804 353.5,78.5C 353.217,77.7109 352.717,77.0442 352,76.5C 350.893,77.7119 350.393,77.3786 350.5,75.5C 351.79,74.9423 352.623,73.9423 353,72.5C 353.634,69.4453 353.468,66.4453 352.5,63.5C 352.938,63.5654 353.272,63.3988 353.5,63C 352.672,62.0853 351.672,61.4186 350.5,61C 353.167,60.3333 353.167,59.6667 350.5,59C 353.167,58.3333 353.167,57.6667 350.5,57C 353.167,55.6667 353.167,54.3333 350.5,53C 351.167,51.3333 351.833,49.6667 352.5,48C 350.273,47.296 349.94,46.1294 351.5,44.5 Z"/></g>
<g><path style="opacity:0.984" fill="#9e5b15" d="M 72.5,58.5 C 74.4044,58.7376 75.7377,59.7376 76.5,61.5C 68.4435,68.5546 61.1102,76.2213 54.5,84.5C 52.7376,83.7377 51.7376,82.4044 51.5,80.5C 58.5,73.1667 65.5,65.8333 72.5,58.5 Z"/></g>
<g><path style="opacity:1" fill="#6b400b" d="M 76.5,61.5 C 77.9063,61.9731 78.573,62.9731 78.5,64.5C 71.1667,71.5 63.8333,78.5 56.5,85.5C 55.5084,85.6716 54.8417,85.3382 54.5,84.5C 61.1102,76.2213 68.4435,68.5546 76.5,61.5 Z"/></g>
<g><path style="opacity:0.851" fill="#bc5e5e" d="M 268.5,56.5 C 277.827,57.1372 281.993,62.1372 281,71.5C 277.51,80.8108 271.343,82.9774 262.5,78C 259.145,72.8006 258.645,67.3006 261,61.5C 262.913,58.7197 265.413,57.053 268.5,56.5 Z M 268.5,59.5 C 270.144,59.2865 271.644,59.6198 273,60.5C 276.955,67.3164 276.121,73.3164 270.5,78.5C 268.259,77.9682 266.759,76.6349 266,74.5C 264.776,69.0435 265.609,64.0435 268.5,59.5 Z"/></g>
<g><path style="opacity:0.875" fill="#d05050" d="M 167.5,57.5 C 170.5,57.5 173.5,57.5 176.5,57.5C 176.334,63.5092 176.501,69.5092 177,75.5C 180.093,76.8938 182.759,76.2272 185,73.5C 185.667,69.5 185.667,65.5 185,61.5C 183.926,60.3816 182.76,59.3816 181.5,58.5C 184.428,57.5159 187.428,57.1826 190.5,57.5C 190.334,63.5092 190.501,69.5092 191,75.5C 192.509,76.0897 194.009,76.7564 195.5,77.5C 192.279,78.9074 188.945,79.9074 185.5,80.5C 185.657,79.1266 185.49,77.7932 185,76.5C 181.139,80.8129 176.806,81.4796 172,78.5C 171.667,73.5 171.333,68.5 171,63.5C 170.373,61.0727 169.206,59.0727 167.5,57.5 Z"/></g>
<g><path style="opacity:0.987" fill="#f3ac30" d="M 50.5,80.5 C 50.5,84.1667 50.5,87.8333 50.5,91.5C 47.5509,89.7219 45.5509,87.2219 44.5,84C 44.9761,80.0032 46.9761,78.8365 50.5,80.5 Z"/></g>
<g><path style="opacity:0.937" fill="#af1908" d="M 82.5,90.5 C 89.0859,91.6258 95.7526,91.7925 102.5,91C 96.0478,87.6819 89.3811,84.8486 82.5,82.5C 82.5,81.5 82.5,80.5 82.5,79.5C 89.8409,79.3337 97.1742,79.5003 104.5,80C 104.189,84.4017 104.522,88.9017 105.5,93.5C 97.8333,93.5 90.1667,93.5 82.5,93.5C 82.5,92.5 82.5,91.5 82.5,90.5 Z"/></g>
<g><path style="opacity:0.902" fill="#dd830c" d="M 50.5,80.5 C 50.8333,80.5 51.1667,80.5 51.5,80.5C 51.7376,82.4044 52.7376,83.7377 54.5,84.5C 54.8417,85.3382 55.5084,85.6716 56.5,85.5C 58.3529,89.3826 57.1862,92.0492 53,93.5C 52.0053,92.9341 51.172,92.2674 50.5,91.5C 50.5,87.8333 50.5,84.1667 50.5,80.5 Z"/></g>
<g><path style="opacity:0.911" fill="#cf280e" d="M 82.5,82.5 C 89.3811,84.8486 96.0478,87.6819 102.5,91C 95.7526,91.7925 89.0859,91.6258 82.5,90.5C 82.5,87.8333 82.5,85.1667 82.5,82.5 Z"/></g>
</svg>
