<svg width="531" height="124" viewBox="0 0 531 124" fill="none" xmlns="http://www.w3.org/2000/svg">
<path d="M146.312 43.7451C146.556 43.5661 146.816 43.4521 147.093 43.4033L160.447 76.7529C160.61 77.1598 160.879 77.5098 161.253 77.8027C161.627 78.0794 162.091 78.2992 162.645 78.4619C163.214 78.6084 163.702 78.7223 164.109 78.8037C164.533 78.8688 165.045 78.9339 165.647 78.999C165.713 79.2594 165.745 79.4792 165.745 79.6582C165.745 79.8535 165.713 80.0326 165.647 80.1953C162.132 80.0651 159.503 80 157.762 80C155.874 80 153.139 80.0651 149.559 80.1953C149.493 80 149.461 79.8047 149.461 79.6094C149.461 79.3978 149.493 79.1943 149.559 78.999C152.846 78.641 154.49 78.0225 154.49 77.1436C154.49 76.8669 154.458 76.582 154.393 76.2891L150.853 67.207C149.778 67.1745 148.33 67.1582 146.507 67.1582C145.644 67.1582 143.406 67.1908 139.793 67.2559L136.058 76.7529V77.0459C136.058 77.2087 136.082 77.3633 136.131 77.5098C136.196 77.6562 136.294 77.7865 136.424 77.9004C136.57 78.0143 136.709 78.112 136.839 78.1934C136.969 78.2747 137.148 78.3561 137.376 78.4375C137.62 78.5026 137.824 78.5596 137.986 78.6084C138.165 78.641 138.401 78.6816 138.694 78.7305C139.004 78.7793 139.24 78.82 139.402 78.8525C139.565 78.8688 139.801 78.8932 140.11 78.9258C140.436 78.9583 140.664 78.9827 140.794 78.999C140.859 79.2594 140.892 79.4792 140.892 79.6582C140.892 79.7559 140.859 79.9349 140.794 80.1953C137.148 80.0651 135.097 80 134.642 80C133.763 80 131.5 80.0651 127.854 80.1953C127.789 80 127.757 79.8047 127.757 79.6094C127.757 79.3978 127.789 79.1943 127.854 78.999C131.24 78.6084 133.169 77.7783 133.641 76.5088L144.139 50.0439L143.602 48.6035C144.529 47.985 145.172 47.3177 145.53 46.6016C145.905 45.8854 146.165 44.9333 146.312 43.7451ZM146.507 65.2539C148.004 65.2539 149.184 65.2376 150.047 65.2051L145.408 53.1934H145.311L140.647 65.1562C142.177 65.2214 144.131 65.2539 146.507 65.2539ZM168.187 58.3447C168.772 58.3773 169.358 58.4098 169.944 58.4424C170.53 58.4749 170.994 58.4993 171.336 58.5156C171.678 58.5319 171.995 58.54 172.288 58.54C172.532 58.54 172.817 58.5319 173.143 58.5156C173.468 58.4993 173.908 58.4749 174.461 58.4424C175.031 58.4098 175.576 58.3773 176.097 58.3447C176.39 58.4424 176.626 58.6947 176.805 59.1016C176.788 59.2318 176.756 59.4271 176.707 59.6875C176.674 59.9316 176.642 60.2327 176.609 60.5908C176.593 60.9326 176.585 61.3558 176.585 61.8604L176.536 73.457C176.536 76.3867 177.423 77.8516 179.197 77.8516C180.841 77.8516 183.177 76.7692 186.204 74.6045C186.204 69.7542 186.131 65.5062 185.984 61.8604C185.984 61.5674 185.927 61.307 185.813 61.0791C185.7 60.8512 185.521 60.6559 185.276 60.4932C185.049 60.3304 184.837 60.2002 184.642 60.1025C184.463 59.9886 184.194 59.891 183.836 59.8096C183.478 59.7119 183.226 59.6549 183.079 59.6387C182.933 59.6061 182.688 59.5573 182.347 59.4922C182.282 59.2318 182.249 59.0365 182.249 58.9062C182.249 58.7923 182.282 58.6051 182.347 58.3447C182.916 58.3773 183.494 58.4098 184.08 58.4424C184.682 58.4749 185.154 58.4993 185.496 58.5156C185.838 58.5319 186.155 58.54 186.448 58.54C186.692 58.54 186.977 58.5319 187.303 58.5156C187.628 58.4993 188.068 58.4749 188.621 58.4424C189.191 58.4098 189.736 58.3773 190.257 58.3447C190.338 58.3936 190.403 58.4424 190.452 58.4912C190.517 58.5238 190.566 58.5726 190.599 58.6377C190.647 58.6865 190.68 58.7272 190.696 58.7598C190.713 58.776 190.737 58.833 190.77 58.9307C190.802 59.012 190.826 59.069 190.843 59.1016C190.713 59.9805 190.647 60.9001 190.647 61.8604C190.55 64.2529 190.501 66.1979 190.501 67.6953C190.501 68.4766 190.517 69.7868 190.55 71.626C190.582 73.4652 190.599 75.0765 190.599 76.46C191.526 76.9971 193.089 77.3307 195.286 77.4609C195.368 77.8678 195.408 78.0794 195.408 78.0957C195.408 78.1934 195.368 78.3643 195.286 78.6084C192.21 78.9014 189.459 79.5687 187.034 80.6104C186.611 80.4313 186.334 80.2116 186.204 79.9512V76.1426C184.576 77.5423 183.038 78.6572 181.59 79.4873C180.158 80.3011 178.709 80.708 177.244 80.708C175.389 80.708 174.07 80.1872 173.289 79.1455C172.524 78.1038 172.125 76.4681 172.093 74.2383L171.897 61.8604C171.865 61.486 171.792 61.2093 171.678 61.0303C171.58 60.835 171.409 60.6559 171.165 60.4932C170.937 60.3304 170.726 60.2002 170.53 60.1025C170.335 59.9886 170.058 59.891 169.7 59.8096C169.342 59.7119 169.09 59.6549 168.943 59.6387C168.797 59.6061 168.545 59.5573 168.187 59.4922C168.121 59.2318 168.089 59.0365 168.089 58.9062C168.089 58.7923 168.121 58.6051 168.187 58.3447ZM218.724 73.6523C219.114 73.7337 219.432 73.9128 219.676 74.1895C218.862 76.3704 217.601 78.0062 215.892 79.0967C214.183 80.1709 212.327 80.708 210.325 80.708C209.332 80.708 208.364 80.5778 207.42 80.3174C206.476 80.0732 205.556 79.6663 204.661 79.0967C203.782 78.527 203.009 77.8271 202.342 76.9971C201.691 76.1507 201.162 75.1009 200.755 73.8477C200.364 72.5781 200.169 71.1784 200.169 69.6484C200.169 66.1165 201.251 63.2601 203.416 61.0791C205.581 58.8981 208.283 57.8076 211.521 57.8076C213.8 57.8076 215.656 58.304 217.088 59.2969C218.536 60.2734 219.261 61.5267 219.261 63.0566C219.261 63.9193 218.976 64.6354 218.406 65.2051C217.837 65.7747 217.137 66.0596 216.307 66.0596C215.428 66.0596 214.72 65.8073 214.183 65.3027C213.646 64.7819 213.377 64.1797 213.377 63.4961C213.377 62.2591 214.004 61.4779 215.257 61.1523C215.143 60.778 214.777 60.3955 214.158 60.0049C213.54 59.598 212.661 59.3945 211.521 59.3945C210.936 59.3945 210.382 59.4678 209.861 59.6143C209.34 59.7445 208.779 60.0293 208.177 60.4688C207.591 60.9082 207.086 61.486 206.663 62.2021C206.256 62.9183 205.914 63.9193 205.638 65.2051C205.361 66.4746 205.223 67.9557 205.223 69.6484C205.223 70.7878 205.337 71.8213 205.564 72.749C205.809 73.6768 206.183 74.515 206.688 75.2637C207.192 76.0124 207.884 76.5983 208.763 77.0215C209.642 77.4447 210.675 77.6562 211.863 77.6562C212.612 77.6562 213.32 77.5586 213.987 77.3633C214.655 77.1517 215.192 76.932 215.599 76.7041C216.022 76.4762 216.469 76.1344 216.941 75.6787C217.43 75.2067 217.755 74.873 217.918 74.6777C218.081 74.4661 218.349 74.1243 218.724 73.6523ZM229.979 53.6572C230.141 53.5921 230.328 53.5596 230.54 53.5596C230.752 53.5596 230.971 53.5921 231.199 53.6572V59.0039H238.597C238.694 59.248 238.743 59.5492 238.743 59.9072C238.743 60.2165 238.694 60.5013 238.597 60.7617H231.199V73.7988C231.199 76.3704 232.379 77.6562 234.739 77.6562C235.634 77.6562 236.399 77.4854 237.034 77.1436C237.685 76.8018 238.401 76.2891 239.183 75.6055C239.59 75.6543 239.858 75.8496 239.988 76.1914C239.272 77.4772 238.214 78.5514 236.814 79.4141C235.415 80.2767 233.877 80.708 232.2 80.708C228.261 80.708 226.292 78.3236 226.292 73.5547V60.7617H223.289C223.224 60.4688 223.191 60.2816 223.191 60.2002C223.191 60.1839 223.224 59.9967 223.289 59.6387C224.07 59.248 224.664 58.9307 225.071 58.6865C225.494 58.4261 226.023 58.0599 226.658 57.5879C227.309 57.1159 227.895 56.5625 228.416 55.9277C228.953 55.2767 229.474 54.5199 229.979 53.6572ZM242.625 59.9072C245.783 59.5817 248.533 58.9144 250.877 57.9053C251.284 58.068 251.569 58.2796 251.731 58.54C251.731 66.9873 251.797 73.0257 251.927 76.6553C251.943 77.0785 252.065 77.4447 252.293 77.7539C252.537 78.0469 252.879 78.2747 253.318 78.4375C253.758 78.6003 254.124 78.7223 254.417 78.8037C254.71 78.8688 255.092 78.9339 255.564 78.999C255.662 79.1943 255.711 79.3978 255.711 79.6094C255.711 79.821 255.662 80 255.564 80.1465C253.416 80.0488 251.333 80 249.314 80C247.329 80 245.262 80.0488 243.113 80.1465C243.048 79.8861 243.016 79.707 243.016 79.6094C243.016 79.528 243.048 79.3245 243.113 78.999C243.65 78.9339 244.09 78.8688 244.432 78.8037C244.773 78.7223 245.197 78.6003 245.701 78.4375C246.206 78.2747 246.588 78.0469 246.849 77.7539C247.109 77.4447 247.247 77.0785 247.264 76.6553C247.329 75.0439 247.361 73.0908 247.361 70.7959C247.361 70.0309 247.353 68.7288 247.337 66.8896C247.321 65.0505 247.312 63.4391 247.312 62.0557C246.385 61.486 244.822 61.1523 242.625 61.0547C242.56 60.7943 242.527 60.5908 242.527 60.4443C242.527 60.3467 242.56 60.1676 242.625 59.9072ZM246.458 49.7021C246.458 48.8721 246.751 48.1641 247.337 47.5781C247.939 46.9922 248.647 46.6992 249.461 46.6992C250.291 46.6992 250.999 46.9922 251.585 47.5781C252.171 48.1641 252.464 48.8721 252.464 49.7021C252.464 50.516 252.171 51.224 251.585 51.8262C250.999 52.4121 250.291 52.7051 249.461 52.7051C248.647 52.7051 247.939 52.4121 247.337 51.8262C246.751 51.224 246.458 50.516 246.458 49.7021ZM270.726 57.8076C272.337 57.8076 273.785 58.0924 275.071 58.6621C276.373 59.2318 277.48 60.0212 278.392 61.0303C279.303 62.0394 280.003 63.252 280.491 64.668C280.979 66.0677 281.224 67.5977 281.224 69.2578C281.224 72.6432 280.271 75.3939 278.367 77.5098C276.479 79.6419 273.932 80.708 270.726 80.708C269.131 80.708 267.682 80.4313 266.38 79.8779C265.094 79.3083 263.995 78.5189 263.084 77.5098C262.173 76.4844 261.465 75.2718 260.96 73.8721C260.472 72.4723 260.228 70.9342 260.228 69.2578C260.228 67.5977 260.472 66.0677 260.96 64.668C261.448 63.252 262.14 62.0394 263.035 61.0303C263.947 60.0212 265.053 59.2318 266.355 58.6621C267.658 58.0924 269.114 57.8076 270.726 57.8076ZM270.726 59.3945C269.065 59.3945 267.739 60.2002 266.746 61.8115C265.77 63.4229 265.281 65.9049 265.281 69.2578C265.281 72.6107 265.77 75.0928 266.746 76.7041C267.739 78.2992 269.065 79.0967 270.726 79.0967C272.386 79.0967 273.704 78.291 274.681 76.6797C275.674 75.0684 276.17 72.5944 276.17 69.2578C276.17 67.5814 276.04 66.1247 275.779 64.8877C275.519 63.6507 275.153 62.6253 274.681 61.8115C274.209 60.9977 273.639 60.3955 272.972 60.0049C272.304 59.598 271.556 59.3945 270.726 59.3945ZM299.021 78.999C299.119 79.1943 299.168 79.3978 299.168 79.6094C299.168 79.7721 299.119 79.9512 299.021 80.1465C296.873 80.0488 294.79 80 292.771 80C290.786 80 288.719 80.0488 286.57 80.1465C286.505 79.8861 286.473 79.707 286.473 79.6094C286.473 79.528 286.505 79.3245 286.57 78.999C287.107 78.9339 287.547 78.8688 287.889 78.8037C288.23 78.7223 288.654 78.6003 289.158 78.4375C289.663 78.2747 290.045 78.0469 290.306 77.7539C290.566 77.4447 290.704 77.0785 290.721 76.6553C290.786 75.0439 290.818 73.0908 290.818 70.7959C290.818 70.0309 290.81 68.7288 290.794 66.8896C290.778 65.0505 290.77 63.4391 290.77 62.0557C289.842 61.486 288.279 61.1523 286.082 61.0547C286.017 60.7943 285.984 60.5908 285.984 60.4443C285.984 60.3467 286.017 60.1676 286.082 59.9072C289.24 59.5817 291.99 58.9144 294.334 57.9053C294.741 58.068 295.026 58.2796 295.188 58.54V62.3975C296.767 61.014 298.281 59.9072 299.729 59.0771C301.178 58.2308 302.643 57.8076 304.124 57.8076C305.979 57.8076 307.29 58.3285 308.055 59.3701C308.836 60.4118 309.243 62.0394 309.275 64.2529L309.52 76.6553C309.536 77.0785 309.658 77.4447 309.886 77.7539C310.13 78.0469 310.472 78.2747 310.911 78.4375C311.367 78.6003 311.741 78.7223 312.034 78.8037C312.327 78.8688 312.71 78.9339 313.182 78.999C313.247 79.3245 313.279 79.5443 313.279 79.6582C313.279 79.7884 313.247 79.9512 313.182 80.1465C311.082 80.0488 309.145 80 307.371 80C305.646 80 303.733 80.0488 301.634 80.1465C301.569 79.8861 301.536 79.6908 301.536 79.5605C301.536 79.4466 301.569 79.2594 301.634 78.999C302.057 78.9339 302.407 78.8688 302.684 78.8037C302.977 78.7223 303.302 78.6003 303.66 78.4375C304.035 78.2747 304.311 78.0469 304.49 77.7539C304.686 77.4447 304.783 77.0785 304.783 76.6553L304.832 65.0586C304.832 62.1126 303.945 60.6396 302.171 60.6396C300.511 60.6396 298.183 61.7464 295.188 63.96C295.188 68.6963 295.254 72.9281 295.384 76.6553C295.4 77.0785 295.522 77.4447 295.75 77.7539C295.994 78.0469 296.336 78.2747 296.775 78.4375C297.215 78.6003 297.581 78.7223 297.874 78.8037C298.167 78.8688 298.549 78.9339 299.021 78.999ZM329.441 44.1602C332.176 44.2578 335.024 44.3066 337.986 44.3066C339.386 44.3066 340.721 44.2741 341.99 44.209C343.26 44.1439 343.911 44.1113 343.943 44.1113C344.822 44.1113 345.628 44.1357 346.36 44.1846C347.109 44.2171 347.947 44.2985 348.875 44.4287C349.819 44.5589 350.657 44.738 351.39 44.9658C352.122 45.1937 352.854 45.5111 353.587 45.918C354.336 46.3249 354.954 46.805 355.442 47.3584C355.947 47.9118 356.354 48.5954 356.663 49.4092C356.972 50.223 357.127 51.1344 357.127 52.1436C357.127 55.1221 355.345 57.36 351.78 58.8574V59.0527C354.45 59.541 356.679 60.6478 358.47 62.373C360.276 64.0983 361.18 66.3037 361.18 68.9893C361.18 70.4215 360.919 71.7155 360.398 72.8711C359.894 74.0104 359.243 74.9544 358.445 75.7031C357.648 76.4518 356.647 77.1029 355.442 77.6562C354.238 78.2096 353.066 78.6328 351.927 78.9258C350.787 79.2188 349.477 79.4548 347.996 79.6338C346.531 79.7965 345.278 79.9023 344.236 79.9512C343.195 79.9837 342.031 80 340.745 80C336.334 80 332.55 80.0488 329.393 80.1465C329.327 79.9512 329.295 79.7884 329.295 79.6582C329.295 79.5443 329.327 79.3245 329.393 78.999C329.881 78.9502 330.271 78.9095 330.564 78.877C330.857 78.8444 331.256 78.7874 331.761 78.7061C332.282 78.6247 332.697 78.5352 333.006 78.4375C333.331 78.3236 333.665 78.1852 334.007 78.0225C334.349 77.8597 334.601 77.6644 334.764 77.4365C334.943 77.2087 335.032 76.9482 335.032 76.6553C335.228 71.5609 335.325 66.4258 335.325 61.25C335.325 55.9766 335.244 51.4274 335.081 47.6025C335.065 47.1794 334.878 46.8213 334.52 46.5283C334.178 46.2354 333.657 46.0075 332.957 45.8447C332.257 45.682 331.696 45.5762 331.272 45.5273C330.849 45.4622 330.239 45.389 329.441 45.3076C329.376 45.0146 329.344 44.8112 329.344 44.6973C329.344 44.5996 329.376 44.4206 329.441 44.1602ZM340.477 61.25V63.0566L340.745 78.3398C341.836 78.3398 342.804 78.3236 343.65 78.291C344.497 78.2422 345.424 78.1445 346.434 77.998C347.443 77.8353 348.322 77.6237 349.07 77.3633C349.819 77.1029 350.568 76.7448 351.316 76.2891C352.065 75.8171 352.675 75.2637 353.147 74.6289C353.619 73.9941 354.002 73.2129 354.295 72.2852C354.588 71.3411 354.734 70.2832 354.734 69.1113C354.734 67.972 354.547 66.9548 354.173 66.0596C353.799 65.1481 353.27 64.3913 352.586 63.7891C351.919 63.1706 351.097 62.6579 350.12 62.251C349.16 61.8441 348.11 61.5511 346.971 61.3721C345.848 61.193 344.619 61.1035 343.284 61.1035C342.356 61.1035 341.421 61.1523 340.477 61.25ZM340.794 45.8447L340.477 59.7607C347.117 59.7607 350.438 57.2217 350.438 52.1436C350.438 49.93 349.746 48.3024 348.362 47.2607C346.995 46.2191 345.172 45.6982 342.894 45.6982C342.389 45.6982 341.689 45.7471 340.794 45.8447ZM365.574 59.9072C368.732 59.5817 371.482 58.9144 373.826 57.9053C374.233 58.068 374.518 58.2796 374.681 58.54C374.681 66.9873 374.746 73.0257 374.876 76.6553C374.892 77.0785 375.014 77.4447 375.242 77.7539C375.486 78.0469 375.828 78.2747 376.268 78.4375C376.707 78.6003 377.073 78.7223 377.366 78.8037C377.659 78.8688 378.042 78.9339 378.514 78.999C378.611 79.1943 378.66 79.3978 378.66 79.6094C378.66 79.821 378.611 80 378.514 80.1465C376.365 80.0488 374.282 80 372.264 80C370.278 80 368.211 80.0488 366.062 80.1465C365.997 79.8861 365.965 79.707 365.965 79.6094C365.965 79.528 365.997 79.3245 366.062 78.999C366.6 78.9339 367.039 78.8688 367.381 78.8037C367.723 78.7223 368.146 78.6003 368.65 78.4375C369.155 78.2747 369.537 78.0469 369.798 77.7539C370.058 77.4447 370.197 77.0785 370.213 76.6553C370.278 75.0439 370.311 73.0908 370.311 70.7959C370.311 70.0309 370.302 68.7288 370.286 66.8896C370.27 65.0505 370.262 63.4391 370.262 62.0557C369.334 61.486 367.771 61.1523 365.574 61.0547C365.509 60.7943 365.477 60.5908 365.477 60.4443C365.477 60.3467 365.509 60.1676 365.574 59.9072ZM369.407 49.7021C369.407 48.8721 369.7 48.1641 370.286 47.5781C370.888 46.9922 371.596 46.6992 372.41 46.6992C373.24 46.6992 373.948 46.9922 374.534 47.5781C375.12 48.1641 375.413 48.8721 375.413 49.7021C375.413 50.516 375.12 51.224 374.534 51.8262C373.948 52.4121 373.24 52.7051 372.41 52.7051C371.596 52.7051 370.888 52.4121 370.286 51.8262C369.7 51.224 369.407 50.516 369.407 49.7021ZM394.48 44.8926C397.557 44.5996 400.307 43.9323 402.732 42.8906C403.156 43.0697 403.432 43.2894 403.562 43.5498C403.562 61.9906 403.636 73.0257 403.782 76.6553C403.799 77.0785 403.921 77.4447 404.148 77.7539C404.393 78.0469 404.734 78.2747 405.174 78.4375C405.613 78.6003 405.979 78.7223 406.272 78.8037C406.565 78.8688 406.948 78.9339 407.42 78.999C407.485 79.2594 407.518 79.4629 407.518 79.6094C407.518 79.707 407.485 79.8861 407.42 80.1465C406.85 80.1139 406.264 80.0814 405.662 80.0488C405.076 80.0163 404.612 79.9919 404.271 79.9756C403.929 79.9593 403.611 79.9512 403.318 79.9512C403.074 79.9512 402.798 79.9593 402.488 79.9756C402.179 79.9919 401.756 80.0163 401.219 80.0488C400.682 80.0814 400.153 80.1139 399.632 80.1465C399.55 80.1139 399.477 80.0732 399.412 80.0244C399.363 79.9919 399.323 79.9674 399.29 79.9512C399.274 79.9186 399.249 79.8779 399.217 79.8291C399.184 79.764 399.16 79.7233 399.144 79.707C399.127 79.6908 399.103 79.6419 399.07 79.5605C399.054 79.4629 399.038 79.4059 399.021 79.3896C399.087 78.999 399.119 78.1201 399.119 76.7529C396.434 79.3896 393.951 80.708 391.673 80.708C389.166 80.708 387.124 79.764 385.545 77.876C383.966 75.988 383.177 73.4163 383.177 70.1611C383.177 69.0381 383.307 67.915 383.567 66.792C383.828 65.6689 384.259 64.5622 384.861 63.4717C385.464 62.3812 386.204 61.4209 387.083 60.5908C387.962 59.7607 389.077 59.0934 390.428 58.5889C391.779 58.068 393.276 57.8076 394.92 57.8076C396.141 57.8076 397.573 58.068 399.217 58.5889C399.184 55.4964 399.168 51.6471 399.168 47.041C398.24 46.5039 396.678 46.1702 394.48 46.04C394.415 45.7796 394.383 45.5843 394.383 45.4541C394.383 45.3402 394.415 45.153 394.48 44.8926ZM394.017 77.5098C395.644 77.5098 397.361 76.639 399.168 74.8975C399.201 73.3024 399.217 70.2832 399.217 65.8398V62.2998C398.094 60.363 396.377 59.3945 394.065 59.3945C393.577 59.3945 393.089 59.4678 392.601 59.6143C392.112 59.7607 391.591 60.0537 391.038 60.4932C390.485 60.9326 389.996 61.4941 389.573 62.1777C389.166 62.8613 388.825 63.8135 388.548 65.0342C388.271 66.2386 388.133 67.6302 388.133 69.209C388.133 71.6178 388.629 73.6035 389.622 75.166C390.631 76.7285 392.096 77.5098 394.017 77.5098ZM423.582 44.8926C426.658 44.5996 429.409 43.9323 431.834 42.8906C432.257 43.0697 432.534 43.2894 432.664 43.5498C432.664 61.9906 432.737 73.0257 432.884 76.6553C432.9 77.0785 433.022 77.4447 433.25 77.7539C433.494 78.0469 433.836 78.2747 434.275 78.4375C434.715 78.6003 435.081 78.7223 435.374 78.8037C435.667 78.8688 436.049 78.9339 436.521 78.999C436.587 79.2594 436.619 79.4629 436.619 79.6094C436.619 79.707 436.587 79.8861 436.521 80.1465C435.952 80.1139 435.366 80.0814 434.764 80.0488C434.178 80.0163 433.714 79.9919 433.372 79.9756C433.03 79.9593 432.713 79.9512 432.42 79.9512C432.176 79.9512 431.899 79.9593 431.59 79.9756C431.281 79.9919 430.857 80.0163 430.32 80.0488C429.783 80.0814 429.254 80.1139 428.733 80.1465C428.652 80.1139 428.579 80.0732 428.514 80.0244C428.465 79.9919 428.424 79.9674 428.392 79.9512C428.375 79.9186 428.351 79.8779 428.318 79.8291C428.286 79.764 428.261 79.7233 428.245 79.707C428.229 79.6908 428.204 79.6419 428.172 79.5605C428.156 79.4629 428.139 79.4059 428.123 79.3896C428.188 78.999 428.221 78.1201 428.221 76.7529C425.535 79.3896 423.053 80.708 420.774 80.708C418.268 80.708 416.225 79.764 414.646 77.876C413.068 75.988 412.278 73.4163 412.278 70.1611C412.278 69.0381 412.409 67.915 412.669 66.792C412.929 65.6689 413.361 64.5622 413.963 63.4717C414.565 62.3812 415.306 61.4209 416.185 60.5908C417.063 59.7607 418.178 59.0934 419.529 58.5889C420.88 58.068 422.378 57.8076 424.021 57.8076C425.242 57.8076 426.674 58.068 428.318 58.5889C428.286 55.4964 428.27 51.6471 428.27 47.041C427.342 46.5039 425.779 46.1702 423.582 46.04C423.517 45.7796 423.484 45.5843 423.484 45.4541C423.484 45.3402 423.517 45.153 423.582 44.8926ZM423.118 77.5098C424.746 77.5098 426.463 76.639 428.27 74.8975C428.302 73.3024 428.318 70.2832 428.318 65.8398V62.2998C427.195 60.363 425.478 59.3945 423.167 59.3945C422.679 59.3945 422.19 59.4678 421.702 59.6143C421.214 59.7607 420.693 60.0537 420.14 60.4932C419.586 60.9326 419.098 61.4941 418.675 62.1777C418.268 62.8613 417.926 63.8135 417.649 65.0342C417.373 66.2386 417.234 67.6302 417.234 69.209C417.234 71.6178 417.731 73.6035 418.724 75.166C419.733 76.7285 421.198 77.5098 423.118 77.5098ZM440.232 59.9072C443.39 59.5817 446.141 58.9144 448.484 57.9053C448.891 58.068 449.176 58.2796 449.339 58.54C449.339 66.9873 449.404 73.0257 449.534 76.6553C449.55 77.0785 449.673 77.4447 449.9 77.7539C450.145 78.0469 450.486 78.2747 450.926 78.4375C451.365 78.6003 451.731 78.7223 452.024 78.8037C452.317 78.8688 452.7 78.9339 453.172 78.999C453.27 79.1943 453.318 79.3978 453.318 79.6094C453.318 79.821 453.27 80 453.172 80.1465C451.023 80.0488 448.94 80 446.922 80C444.936 80 442.869 80.0488 440.721 80.1465C440.656 79.8861 440.623 79.707 440.623 79.6094C440.623 79.528 440.656 79.3245 440.721 78.999C441.258 78.9339 441.697 78.8688 442.039 78.8037C442.381 78.7223 442.804 78.6003 443.309 78.4375C443.813 78.2747 444.196 78.0469 444.456 77.7539C444.716 77.4447 444.855 77.0785 444.871 76.6553C444.936 75.0439 444.969 73.0908 444.969 70.7959C444.969 70.0309 444.961 68.7288 444.944 66.8896C444.928 65.0505 444.92 63.4391 444.92 62.0557C443.992 61.486 442.43 61.1523 440.232 61.0547C440.167 60.7943 440.135 60.5908 440.135 60.4443C440.135 60.3467 440.167 60.1676 440.232 59.9072ZM444.065 49.7021C444.065 48.8721 444.358 48.1641 444.944 47.5781C445.547 46.9922 446.255 46.6992 447.068 46.6992C447.898 46.6992 448.606 46.9922 449.192 47.5781C449.778 48.1641 450.071 48.8721 450.071 49.7021C450.071 50.516 449.778 51.224 449.192 51.8262C448.606 52.4121 447.898 52.7051 447.068 52.7051C446.255 52.7051 445.547 52.4121 444.944 51.8262C444.358 51.224 444.065 50.516 444.065 49.7021ZM469.627 78.999C469.725 79.1943 469.773 79.3978 469.773 79.6094C469.773 79.7721 469.725 79.9512 469.627 80.1465C467.479 80.0488 465.395 80 463.377 80C461.391 80 459.324 80.0488 457.176 80.1465C457.111 79.8861 457.078 79.707 457.078 79.6094C457.078 79.528 457.111 79.3245 457.176 78.999C457.713 78.9339 458.152 78.8688 458.494 78.8037C458.836 78.7223 459.259 78.6003 459.764 78.4375C460.268 78.2747 460.651 78.0469 460.911 77.7539C461.172 77.4447 461.31 77.0785 461.326 76.6553C461.391 75.0439 461.424 73.0908 461.424 70.7959C461.424 70.0309 461.416 68.7288 461.399 66.8896C461.383 65.0505 461.375 63.4391 461.375 62.0557C460.447 61.486 458.885 61.1523 456.688 61.0547C456.622 60.7943 456.59 60.5908 456.59 60.4443C456.59 60.3467 456.622 60.1676 456.688 59.9072C459.845 59.5817 462.596 58.9144 464.939 57.9053C465.346 58.068 465.631 58.2796 465.794 58.54V62.3975C467.373 61.014 468.886 59.9072 470.335 59.0771C471.784 58.2308 473.248 57.8076 474.729 57.8076C476.585 57.8076 477.895 58.3285 478.66 59.3701C479.441 60.4118 479.848 62.0394 479.881 64.2529L480.125 76.6553C480.141 77.0785 480.263 77.4447 480.491 77.7539C480.735 78.0469 481.077 78.2747 481.517 78.4375C481.972 78.6003 482.347 78.7223 482.64 78.8037C482.933 78.8688 483.315 78.9339 483.787 78.999C483.852 79.3245 483.885 79.5443 483.885 79.6582C483.885 79.7884 483.852 79.9512 483.787 80.1465C481.688 80.0488 479.751 80 477.977 80C476.251 80 474.339 80.0488 472.239 80.1465C472.174 79.8861 472.142 79.6908 472.142 79.5605C472.142 79.4466 472.174 79.2594 472.239 78.999C472.662 78.9339 473.012 78.8688 473.289 78.8037C473.582 78.7223 473.908 78.6003 474.266 78.4375C474.64 78.2747 474.917 78.0469 475.096 77.7539C475.291 77.4447 475.389 77.0785 475.389 76.6553L475.438 65.0586C475.438 62.1126 474.55 60.6396 472.776 60.6396C471.116 60.6396 468.789 61.7464 465.794 63.96C465.794 68.6963 465.859 72.9281 465.989 76.6553C466.006 77.0785 466.128 77.4447 466.355 77.7539C466.6 78.0469 466.941 78.2747 467.381 78.4375C467.82 78.6003 468.187 78.7223 468.479 78.8037C468.772 78.8688 469.155 78.9339 469.627 78.999ZM505.76 65.4492C505.76 68.0208 504.93 70.0798 503.27 71.626C501.609 73.1722 499.591 73.9453 497.215 73.9453C496.092 73.9453 495.042 73.8639 494.065 73.7012C493.089 74.3197 492.601 75.0846 492.601 75.9961C492.601 76.7285 493.056 77.2656 493.968 77.6074C494.896 77.9329 496.474 78.0957 498.704 78.0957C499.062 78.0957 499.738 78.0794 500.73 78.0469C501.723 78.0143 502.513 77.998 503.099 77.998C507.64 77.998 509.91 79.8617 509.91 83.5889C509.91 84.6468 509.593 85.7617 508.958 86.9336C508.34 88.1055 507.485 89.196 506.395 90.2051C505.32 91.2305 503.961 92.0768 502.317 92.7441C500.69 93.4115 498.973 93.7451 497.166 93.7451C494.318 93.7451 492.161 93.2161 490.696 92.1582C489.231 91.1165 488.499 89.8145 488.499 88.252C488.499 87.1615 488.898 86.071 489.695 84.9805C490.509 83.89 491.714 82.9134 493.309 82.0508C490.167 81.5951 488.597 80.3743 488.597 78.3887C488.597 77.4447 488.947 76.5576 489.646 75.7275C490.363 74.8812 491.331 74.0023 492.552 73.0908C490.892 72.1631 489.744 71.097 489.109 69.8926C488.475 68.6882 488.157 67.321 488.157 65.791C488.157 64.847 488.377 63.903 488.816 62.959C489.272 61.9987 489.882 61.1442 490.647 60.3955C491.412 59.6305 492.348 59.012 493.455 58.54C494.578 58.0518 495.758 57.8076 496.995 57.8076C498.134 57.8076 499.07 57.8971 499.803 58.0762C500.535 58.2389 501.447 58.5319 502.537 58.9551C503.628 59.3783 504.653 59.7282 505.613 60.0049C505.695 59.3701 505.947 58.833 506.37 58.3936C506.793 57.9378 507.339 57.71 508.006 57.71C508.608 57.71 509.145 57.9622 509.617 58.4668C510.105 58.9714 510.35 59.5492 510.35 60.2002C510.35 60.8675 510.138 61.4453 509.715 61.9336C509.308 62.4056 508.787 62.6416 508.152 62.6416C507.778 62.6416 507.404 62.5765 507.029 62.4463C506.655 62.3161 506.346 62.1859 506.102 62.0557C505.874 61.9092 505.532 61.6813 505.076 61.3721C504.62 61.0465 504.262 60.8024 504.002 60.6396L503.904 60.7617C504.507 61.2988 504.962 61.9906 505.271 62.8369C505.597 63.667 505.76 64.5378 505.76 65.4492ZM493.016 86.4941C493.016 87.1452 493.113 87.7637 493.309 88.3496C493.504 88.9355 493.813 89.4889 494.236 90.0098C494.66 90.5306 495.254 90.9375 496.019 91.2305C496.8 91.5397 497.711 91.6943 498.753 91.6943C500.088 91.6943 501.268 91.4827 502.293 91.0596C503.335 90.6527 504.124 90.14 504.661 89.5215C505.198 88.903 505.597 88.3008 505.857 87.7148C506.118 87.1452 506.248 86.6243 506.248 86.1523C506.248 85.5013 506.191 84.9479 506.077 84.4922C505.963 84.0527 505.743 83.6214 505.418 83.1982C505.109 82.7913 504.62 82.4821 503.953 82.2705C503.286 82.0589 502.439 81.9531 501.414 81.9531C500.861 81.9531 499.827 81.9857 498.313 82.0508C496.8 82.1159 495.831 82.1484 495.408 82.1484C494.66 82.6693 494.074 83.3122 493.65 84.0771C493.227 84.8421 493.016 85.6478 493.016 86.4941ZM493.113 65.8398C493.113 70.1855 494.407 72.3584 496.995 72.3584C498.232 72.3584 499.176 71.8213 499.827 70.7471C500.478 69.6729 500.804 67.8906 500.804 65.4004C500.804 64.2611 500.674 63.2764 500.413 62.4463C500.153 61.5999 499.811 60.9733 499.388 60.5664C498.981 60.1432 498.566 59.8421 498.143 59.6631C497.736 59.484 497.321 59.3945 496.897 59.3945C495.807 59.3945 494.904 59.9072 494.188 60.9326C493.471 61.958 493.113 63.5938 493.113 65.8398Z" fill="url(#paint0_linear_8_4)"/>
<path d="M62.3004 81.3895C60.7866 83.019 58.4076 83.019 57.0019 81.3895C55.488 79.7599 55.488 77.1991 57.0019 75.6859L84.0353 46.5864C85.5492 44.9568 87.9281 44.9568 89.3339 46.5864C90.8477 48.216 90.8477 50.7767 89.3339 52.2899L62.3004 81.3895Z" fill="#A35D17"/>
<path d="M89.3339 46.5864C90.8477 48.2159 90.8477 50.7767 89.3339 52.2899L62.3004 81.3894C60.7866 83.019 58.4076 83.019 57.0019 81.3894" fill="#6B400C"/>
<path d="M61.5435 88.6061C59.8134 90.4685 57.11 90.4685 55.3799 88.6061L50.2976 83.1354C48.5675 81.2731 48.5675 78.3631 50.2976 76.5007C52.0277 74.6383 54.7311 74.6383 56.4612 76.5007L61.5435 81.9714C63.2736 83.8338 63.2736 86.7438 61.5435 88.6061Z" fill="#F4AD31"/>
<path d="M56.4612 76.5007L61.5435 81.9714C63.2736 83.8338 63.2736 86.7438 61.5435 88.6061C59.8134 90.4685 57.11 90.4685 55.3799 88.6061" fill="#DD820A"/>
<path d="M106.743 57.4114C102.202 62.3002 97.3358 59.623 92.7942 54.7343L81.6564 42.7452C77.1148 37.8565 74.7358 32.6186 79.1693 27.7299L81.1157 25.6347C85.6573 20.746 90.5233 23.4231 95.065 28.3119L106.203 40.3009C110.744 45.1896 113.123 50.4275 108.69 55.3163L106.743 57.4114Z" fill="#F4AD31"/>
<path d="M95.0649 28.4283L106.203 40.4173C110.744 45.306 113.123 50.544 108.69 55.4327L106.743 57.5278C102.202 62.4166 97.3357 59.7394 92.7941 54.8507" fill="#DD820A"/>
<path d="M76.7904 36.2269C75.9253 37.1581 74.5195 37.1581 73.6545 36.2269C72.7894 35.2958 72.7894 33.7826 73.6545 32.8514L85.7654 19.6984C86.6305 18.7672 88.0363 18.7672 88.9013 19.6984C89.7664 20.6296 89.7664 22.1428 88.9013 23.0739L76.7904 36.2269Z" fill="#F4AD31"/>
<path d="M88.9013 19.6984C89.7664 20.6296 89.7664 22.1428 88.9013 23.0739L76.7904 36.2269C75.9253 37.1581 74.5195 37.1581 73.6545 36.2269" fill="#DD820A"/>
<path d="M102.094 63.4641C101.229 64.3953 99.8228 64.3953 98.9577 63.4641C98.0927 62.5329 98.0927 61.0198 98.9577 60.0886L111.069 47.052C111.934 46.1208 113.34 46.1208 114.205 47.052C115.07 47.9832 115.07 49.4963 114.205 50.4275L102.094 63.4641Z" fill="#F4AD31"/>
<path d="M114.313 47.052C115.178 47.9832 115.178 49.4963 114.313 50.4275L102.094 63.4641C101.229 64.3953 99.8228 64.3953 98.9578 63.4641" fill="#DD820A"/>
<path d="M90.8477 55.4326C90.0908 56.2474 88.7932 56.2474 88.0362 55.4326L81.2238 48.0995C80.4669 47.2848 80.4669 45.888 81.2238 45.0732C81.9808 44.2584 83.2784 44.2584 84.0353 45.0732L90.8477 52.4063C91.6047 53.2211 91.6047 54.6178 90.8477 55.4326Z" fill="#DD820A"/>
<path d="M92.4697 77.7811H115.178V88.2569H92.4697V77.7811Z" fill="#D32A0F"/>
<path d="M92.4698 77.7811H115.178V88.2569" fill="#AF1909"/>
<path d="M116.259 89.6537C116.259 90.1193 115.935 90.5849 115.394 90.5849H92.2535C91.821 90.5849 91.3884 90.2357 91.3884 89.6537V89.0717C91.3884 88.6061 91.7128 88.1405 92.2535 88.1405H115.502C115.935 88.1405 116.367 88.4897 116.367 89.0717V89.6537H116.259Z" fill="#AF1909"/>
<path d="M116.259 76.8499C116.259 77.3155 115.935 77.7811 115.394 77.7811H92.2535C91.821 77.7811 91.3884 77.4319 91.3884 76.8499V76.2679C91.3884 75.8023 91.7128 75.3367 92.2535 75.3367H115.502C115.935 75.3367 116.367 75.6859 116.367 76.2679V76.8499H116.259Z" fill="#AF1909"/>
<defs>
<linearGradient id="paint0_linear_8_4" x1="324" y1="29" x2="324" y2="113" gradientUnits="userSpaceOnUse">
<stop offset="0.107143" stop-color="#1E1E1E"/>
<stop offset="1" stop-color="#848484"/>
</linearGradient>
</defs>
</svg>
