<?xml version="1.0" encoding="UTF-8"?>
<!DOCTYPE svg PUBLIC "-//W3C//DTD SVG 1.1//EN" "http://www.w3.org/Graphics/SVG/1.1/DTD/svg11.dtd">
<svg xmlns="http://www.w3.org/2000/svg" version="1.1" width="594px" height="124px" style="shape-rendering:geometricPrecision; text-rendering:geometricPrecision; image-rendering:optimizeQuality; fill-rule:evenodd; clip-rule:evenodd" xmlns:xlink="http://www.w3.org/1999/xlink">
<g><path style="opacity:0.935" fill="#f2ab2f" d="M 80.5,34.5 C 75.8333,38.8333 71.1667,43.1667 66.5,47.5C 65.4265,46.7494 65.2599,45.7494 66,44.5C 69.5,41 73,37.5 76.5,34C 78.0657,33.235 79.3991,33.4017 80.5,34.5 Z"/></g>
<g><path style="opacity:0.992" fill="#f3ab30" d="M 80.5,37.5 C 82.674,37.7497 84.3406,38.7497 85.5,40.5C 85.43,48.2678 84.7633,55.9344 83.5,63.5C 83.1667,63.5 82.8333,63.5 82.5,63.5C 80.5,59.5 77.5,56.5 73.5,54.5C 72.1667,52.5 70.8333,50.5 69.5,48.5C 72.8333,44.5 76.5,40.8333 80.5,37.5 Z"/></g>
<g><path style="opacity:1" fill="#df860e" d="M 80.5,34.5 C 81.625,35.3478 81.625,36.3478 80.5,37.5C 76.5,40.8333 72.8333,44.5 69.5,48.5C 68.209,48.7373 67.209,48.404 66.5,47.5C 71.1667,43.1667 75.8333,38.8333 80.5,34.5 Z"/></g>
<g><path style="opacity:0.935" fill="#dd820a" d="M 85.5,40.5 C 91.2784,44.9396 95.9451,50.2729 99.5,56.5C 96.1667,60.5 92.5,64.1667 88.5,67.5C 86.246,66.8763 84.5794,65.543 83.5,63.5C 84.7633,55.9344 85.43,48.2678 85.5,40.5 Z"/></g>
<g><path style="opacity:0.81" fill="#2a2a2a" d="M 356.5,52.5 C 354.393,51.5318 352.059,51.1984 349.5,51.5C 348.441,46.7925 345.441,44.7925 340.5,45.5C 340.5,47.1667 340.5,48.8333 340.5,50.5C 338.5,51.1667 336.5,51.8333 334.5,52.5C 335.86,47.2497 333.86,44.583 328.5,44.5C 336.891,43.0942 345.224,43.2608 353.5,45C 356.247,47.1086 357.247,49.6086 356.5,52.5 Z"/></g>
<g><path style="opacity:0.749" fill="#2e2e2e" d="M 247.5,45.5 C 251.707,45.6938 253.04,47.6938 251.5,51.5C 245.344,52.9463 244.011,50.9463 247.5,45.5 Z"/></g>
<g><path style="opacity:0.768" fill="#2e2e2e" d="M 370.5,45.5 C 374.707,45.6938 376.04,47.6938 374.5,51.5C 368.344,52.9463 367.011,50.9463 370.5,45.5 Z"/></g>
<g><path style="opacity:0.826" fill="#2e2e2e" d="M 445.5,45.5 C 449.184,46.372 450.184,48.5386 448.5,52C 445.433,53.1642 443.767,52.1642 443.5,49C 443.862,47.5657 444.528,46.3991 445.5,45.5 Z"/></g>
<g><path style="opacity:0.837" fill="#323232" d="M 152.5,56.5 C 150.703,56.9349 148.703,56.9349 146.5,56.5C 145.169,53.9511 144.169,54.2845 143.5,57.5C 142.5,57.5 141.5,57.5 140.5,57.5C 141.267,51.9673 143.267,46.9673 146.5,42.5C 148.699,47.104 150.699,51.7707 152.5,56.5 Z"/></g>
<g><path style="opacity:0.881" fill="#2f2f2f" d="M 403.5,57.5 C 401.958,56.6993 400.292,56.366 398.5,56.5C 398.5,53.1667 398.5,49.8333 398.5,46.5C 396.335,46.8841 394.668,46.2174 393.5,44.5C 396.419,43.6856 399.252,42.6856 402,41.5C 402.333,41.8333 402.667,42.1667 403,42.5C 403.499,47.4889 403.666,52.4889 403.5,57.5 Z"/></g>
<g><path style="opacity:0.878" fill="#2f2f2f" d="M 432.5,56.5 C 430.902,56.6097 429.235,56.943 427.5,57.5C 427.5,53.8333 427.5,50.1667 427.5,46.5C 425.335,46.8841 423.668,46.2174 422.5,44.5C 425.495,43.8672 428.328,42.8672 431,41.5C 431.333,41.8333 431.667,42.1667 432,42.5C 432.499,47.1548 432.666,51.8215 432.5,56.5 Z"/></g>
<g><path style="opacity:0.881" fill="#db810a" d="M 73.5,54.5 C 77.5,56.5 80.5,59.5 82.5,63.5C 81.4324,64.4345 80.099,64.7678 78.5,64.5C 78.573,62.9731 77.9063,61.9731 76.5,61.5C 75.7377,59.7376 74.4044,58.7376 72.5,58.5C 72.2322,56.901 72.5655,55.5676 73.5,54.5 Z"/></g>
<g><path style="opacity:0.933" fill="#f1a72c" d="M 102.5,56.5 C 98.1667,61.1667 93.8333,65.8333 89.5,70.5C 88.596,69.791 88.2627,68.791 88.5,67.5C 92.5,64.1667 96.1667,60.5 99.5,56.5C 100.652,55.375 101.652,55.375 102.5,56.5 Z"/></g>
<g><path style="opacity:0.897" fill="#3a3a3a" d="M 231.5,60.5 C 229.5,61.8333 227.5,61.8333 225.5,60.5C 223.645,60.728 222.812,60.0613 223,58.5C 225.768,56.204 228.601,54.204 231.5,52.5C 231.5,54.5 231.5,56.5 231.5,58.5C 240.833,59.1667 240.833,59.8333 231.5,60.5 Z"/></g>
<g><path style="opacity:0.872" fill="#3c3c3c" d="M 340.5,50.5 C 340.5,53.1667 340.5,55.8333 340.5,58.5C 346.029,59.2504 349.029,56.9171 349.5,51.5C 352.059,51.1984 354.393,51.5318 356.5,52.5C 356.607,54.9032 355.607,56.7365 353.5,58C 357.893,60.2212 360.559,63.7212 361.5,68.5C 361.457,69.4164 361.124,70.0831 360.5,70.5C 358.097,70.552 355.764,70.2186 353.5,69.5C 353.753,67.1727 353.086,65.1727 351.5,63.5C 348.05,61.7758 344.383,61.1091 340.5,61.5C 340.5,62.8333 340.5,64.1667 340.5,65.5C 338.389,66.3799 336.389,66.3799 334.5,65.5C 334.5,61.1667 334.5,56.8333 334.5,52.5C 336.5,51.8333 338.5,51.1667 340.5,50.5 Z"/></g>
<g><path style="opacity:0.846" fill="#3f3f3f" d="M 427.5,57.5 C 429.235,56.943 430.902,56.6097 432.5,56.5C 432.5,59.8333 432.5,63.1667 432.5,66.5C 430.883,65.962 429.216,65.6287 427.5,65.5C 427.671,60.5057 425.338,58.6724 420.5,60C 417.9,62.9836 416.9,66.4836 417.5,70.5C 415.435,70.4828 413.435,70.1495 411.5,69.5C 412.604,59.7186 417.937,55.7186 427.5,57.5 Z"/></g>
<g><path style="opacity:0.773" fill="#df850d" d="M 102.5,56.5 C 104.859,57.3887 105.025,58.722 103,60.5C 99.5,64 96,67.5 92.5,71C 91.2506,71.7401 90.2506,71.5735 89.5,70.5C 93.8333,65.8333 98.1667,61.1667 102.5,56.5 Z"/></g>
<g><path style="opacity:0.809" fill="#3e3e3e" d="M 205.5,65.5 C 203.379,65.3253 201.379,65.6586 199.5,66.5C 202.181,57.876 207.848,55.0427 216.5,58C 220.915,62.7621 219.915,65.0954 213.5,65C 212.253,63.5421 212.253,62.0421 213.5,60.5C 208.861,58.7836 206.194,60.4503 205.5,65.5 Z"/></g>
<g><path style="opacity:0.83" fill="#3e3e3e" d="M 280.5,65.5 C 278.833,65.5 277.167,65.5 275.5,65.5C 274.59,63.9812 273.757,62.3146 273,60.5C 268.629,59.004 266.129,60.6706 265.5,65.5C 263.379,65.3253 261.379,65.6586 259.5,66.5C 262.456,57.0803 268.456,54.5803 277.5,59C 279.219,60.8705 280.219,63.0372 280.5,65.5 Z"/></g>
<g><path style="opacity:0.837" fill="#3e3e3e" d="M 309.5,65.5 C 307.379,65.3253 305.379,65.6586 303.5,66.5C 303.502,59.7746 301.002,58.7746 296,63.5C 295.517,64.448 295.351,65.448 295.5,66.5C 293.359,66.1121 291.359,66.1121 289.5,66.5C 289.5,64.8333 289.5,63.1667 289.5,61.5C 288.167,61.5 286.833,61.5 285.5,61.5C 285.5,60.5 285.5,59.5 285.5,58.5C 288.545,58.6582 291.379,57.9915 294,56.5C 295.044,57.6226 295.71,58.9559 296,60.5C 303.736,54.0491 308.236,55.7158 309.5,65.5 Z"/></g>
<g><path style="opacity:0.764" fill="#3e3e3e" d="M 449.5,64.5 C 447.833,65.1667 446.167,65.8333 444.5,66.5C 443.549,65.0813 443.216,63.4147 443.5,61.5C 442.167,61.5 440.833,61.5 439.5,61.5C 439.5,60.5 439.5,59.5 439.5,58.5C 442.833,58.1667 446.167,57.8333 449.5,57.5C 449.5,59.8333 449.5,62.1667 449.5,64.5 Z"/></g>
<g><path style="opacity:0.843" fill="#3d3d3d" d="M 479.5,64.5 C 477.958,65.3007 476.292,65.634 474.5,65.5C 474.99,63.0516 474.157,61.385 472,60.5C 468.281,61.0665 466.115,63.0665 465.5,66.5C 463.765,65.943 462.098,65.6097 460.5,65.5C 460.5,64.1667 460.5,62.8333 460.5,61.5C 458.833,61.5 457.167,61.5 455.5,61.5C 455.5,60.5 455.5,59.5 455.5,58.5C 458.86,58.3841 462.193,58.0508 465.5,57.5C 465.351,58.552 465.517,59.552 466,60.5C 469.181,57.4356 472.848,56.4356 477,57.5C 479.134,59.2871 479.967,61.6205 479.5,64.5 Z"/></g>
<g><path style="opacity:0.836" fill="#3d3d3d" d="M 505.5,65.5 C 503.379,65.3253 501.379,65.6586 499.5,66.5C 500.092,63.3595 499.092,61.0261 496.5,59.5C 495.558,59.6082 494.725,59.9415 494,60.5C 493.506,62.1341 493.34,63.8008 493.5,65.5C 491.5,65.5 489.5,65.5 487.5,65.5C 488.142,60.1915 491.142,57.1915 496.5,56.5C 499.022,57.0888 501.522,57.7554 504,58.5C 508.017,55.5209 510.017,56.5209 510,61.5C 508.644,62.3802 507.144,62.7135 505.5,62.5C 505.5,63.5 505.5,64.5 505.5,65.5 Z"/></g>
<g><path style="opacity:0.984" fill="#9e5b15" d="M 72.5,58.5 C 74.4044,58.7376 75.7377,59.7376 76.5,61.5C 68.4435,68.5546 61.1102,76.2213 54.5,84.5C 52.7376,83.7377 51.7376,82.4044 51.5,80.5C 58.5,73.1667 65.5,65.8333 72.5,58.5 Z"/></g>
<g><path style="opacity:0.743" fill="#414141" d="M 146.5,56.5 C 148.703,56.9349 150.703,56.9349 152.5,56.5C 154.362,60.7501 156.028,65.0834 157.5,69.5C 155.5,70.8333 153.5,70.8333 151.5,69.5C 147.827,67.6823 143.827,67.0157 139.5,67.5C 139.179,65.9519 138.179,65.2852 136.5,65.5C 137.655,62.6717 138.989,60.0051 140.5,57.5C 141.5,57.5 142.5,57.5 143.5,57.5C 142.793,59.7814 141.793,61.9481 140.5,64C 143.227,64.8184 145.894,64.6517 148.5,63.5C 147.423,61.2706 146.756,58.9372 146.5,56.5 Z"/></g>
<g><path style="opacity:1" fill="#6b400b" d="M 76.5,61.5 C 77.9063,61.9731 78.573,62.9731 78.5,64.5C 71.1667,71.5 63.8333,78.5 56.5,85.5C 55.5084,85.6716 54.8417,85.3382 54.5,84.5C 61.1102,76.2213 68.4435,68.5546 76.5,61.5 Z"/></g>
<g><path style="opacity:0.874" fill="#424242" d="M 398.5,56.5 C 400.292,56.366 401.958,56.6993 403.5,57.5C 403.5,61.5 403.5,65.5 403.5,69.5C 401.883,70.038 400.216,70.3713 398.5,70.5C 398.665,67.4816 398.498,64.4816 398,61.5C 394.706,58.6888 391.706,59.0221 389,62.5C 388.503,64.8098 388.337,67.1432 388.5,69.5C 386.621,70.3414 384.621,70.6747 382.5,70.5C 381.87,66.0985 383.203,62.4318 386.5,59.5C 390.414,57.1871 394.414,56.1871 398.5,56.5 Z"/></g>
<g><path style="opacity:0.841" fill="#474747" d="M 190.5,74.5 C 188.109,74.9985 185.776,75.3318 183.5,75.5C 185.534,71.1236 186.034,66.4569 185,61.5C 183.926,60.3816 182.76,59.3816 181.5,58.5C 184.428,57.5159 187.428,57.1826 190.5,57.5C 190.5,63.1667 190.5,68.8333 190.5,74.5 Z"/></g>
<g><path style="opacity:0.829" fill="#4d4d4d" d="M 225.5,60.5 C 227.5,61.8333 229.5,61.8333 231.5,60.5C 231.334,65.5111 231.501,70.5111 232,75.5C 234.382,76.8663 236.548,76.533 238.5,74.5C 239.754,76.2592 239.421,77.7592 237.5,79C 233.206,81.386 229.373,80.886 226,77.5C 225.501,71.8431 225.334,66.1764 225.5,60.5 Z"/></g>
<g><path style="opacity:0.714" fill="#4a4a4a" d="M 487.5,65.5 C 489.5,65.5 491.5,65.5 493.5,65.5C 493.022,68.2776 494.022,70.2776 496.5,71.5C 498.756,70.5791 499.756,68.9124 499.5,66.5C 501.379,65.6586 503.379,65.3253 505.5,65.5C 504.478,72.3381 500.478,75.1714 493.5,74C 492.944,74.3826 492.611,74.8826 492.5,75.5C 491.167,75.5 489.833,75.5 488.5,75.5C 491.269,73.3373 491.102,71.3373 488,69.5C 487.51,68.2068 487.343,66.8734 487.5,65.5 Z"/></g>
<g><path style="opacity:0.891" fill="#4a4a4a" d="M 249.5,56.5 C 250.117,56.6107 250.617,56.944 251,57.5C 251.333,63.8333 251.667,70.1667 252,76.5C 253.487,77.1552 254.653,78.1552 255.5,79.5C 251.243,79.2046 246.91,79.5379 242.5,80.5C 242.5,79.5 242.5,78.5 242.5,77.5C 243.822,77.67 244.989,77.3366 246,76.5C 246.499,71.5111 246.666,66.5111 246.5,61.5C 244.833,61.5 243.167,61.5 241.5,61.5C 241.5,60.5 241.5,59.5 241.5,58.5C 244.553,58.8893 247.22,58.2227 249.5,56.5 Z"/></g>
<g><path style="opacity:0.907" fill="#4a4a4a" d="M 372.5,56.5 C 373.117,56.6107 373.617,56.944 374,57.5C 374.333,63.8333 374.667,70.1667 375,76.5C 376.487,77.1552 377.653,78.1552 378.5,79.5C 374.243,79.2046 369.91,79.5379 365.5,80.5C 365.5,79.5 365.5,78.5 365.5,77.5C 366.822,77.67 367.989,77.3366 369,76.5C 369.499,71.5111 369.666,66.5111 369.5,61.5C 367.833,61.5 366.167,61.5 364.5,61.5C 364.5,60.5 364.5,59.5 364.5,58.5C 367.553,58.8893 370.22,58.2227 372.5,56.5 Z"/></g>
<g><path style="opacity:0.822" fill="#4f4f4f" d="M 183.5,75.5 C 185.776,75.3318 188.109,74.9985 190.5,74.5C 191.79,75.9348 193.456,76.9348 195.5,77.5C 192.279,78.9074 188.945,79.9074 185.5,80.5C 185.657,79.1266 185.49,77.7932 185,76.5C 181.139,80.8129 176.806,81.4796 172,78.5C 171.667,73.5 171.333,68.5 171,63.5C 170.803,61.1391 169.636,59.4724 167.5,58.5C 170.428,57.5159 173.428,57.1826 176.5,57.5C 176.334,63.5092 176.501,69.5092 177,75.5C 179.12,76.6053 181.287,76.6053 183.5,75.5 Z"/></g>
<g><path style="opacity:0.831" fill="#515151" d="M 205.5,65.5 C 205.059,77.0823 209.392,79.4156 218.5,72.5C 219.064,76.1547 217.397,78.6547 213.5,80C 203.154,81.4884 198.487,76.9884 199.5,66.5C 201.379,65.6586 203.379,65.3253 205.5,65.5 Z"/></g>
<g><path style="opacity:0.883" fill="#505050" d="M 265.5,65.5 C 265.335,68.5184 265.502,71.5184 266,74.5C 268.289,79.0025 270.956,79.3359 274,75.5C 275.199,72.2744 275.699,68.941 275.5,65.5C 277.167,65.5 278.833,65.5 280.5,65.5C 282.408,74.0209 279.075,79.0209 270.5,80.5C 262.094,79.7281 258.427,75.0614 259.5,66.5C 261.379,65.6586 263.379,65.3253 265.5,65.5 Z"/></g>
<g><path style="opacity:0.853" fill="#515151" d="M 295.5,66.5 C 295.5,70.1667 295.5,73.8333 295.5,77.5C 299.579,77.6691 300.079,78.6691 297,80.5C 293.667,79.1667 290.333,79.1667 287,80.5C 285.355,78.265 286.188,77.265 289.5,77.5C 289.5,73.8333 289.5,70.1667 289.5,66.5C 291.359,66.1121 293.359,66.1121 295.5,66.5 Z"/></g>
<g><path style="opacity:0.884" fill="#515151" d="M 309.5,65.5 C 309.5,69.5 309.5,73.5 309.5,77.5C 312.812,77.265 313.645,78.265 312,80.5C 308.092,79.6799 304.259,79.3465 300.5,79.5C 303.168,75.6958 304.168,71.3625 303.5,66.5C 305.379,65.6586 307.379,65.3253 309.5,65.5 Z"/></g>
<g><path style="opacity:0.857" fill="#515151" d="M 334.5,65.5 C 336.389,66.3799 338.389,66.3799 340.5,65.5C 340.5,69.5 340.5,73.5 340.5,77.5C 344.41,77.7372 348.077,76.9039 351.5,75C 352.861,73.4157 353.528,71.5824 353.5,69.5C 355.764,70.2186 358.097,70.552 360.5,70.5C 359.857,73.9875 357.857,76.4875 354.5,78C 346.721,79.1462 338.887,79.9795 331,80.5C 330.167,80.1667 329.333,79.8333 328.5,79.5C 329.991,77.9884 331.824,76.9884 334,76.5C 334.499,72.8484 334.665,69.1817 334.5,65.5 Z"/></g>
<g><path style="opacity:0.884" fill="#525252" d="M 388.5,69.5 C 389.061,76.2383 392.228,77.9049 398,74.5C 398.49,73.2068 398.657,71.8734 398.5,70.5C 400.216,70.3713 401.883,70.038 403.5,69.5C 403.337,71.8568 403.503,74.1902 404,76.5C 405.487,77.1552 406.653,78.1552 407.5,79.5C 404.565,79.2443 401.565,79.5776 398.5,80.5C 398.649,79.448 398.483,78.448 398,77.5C 389.161,83.1627 383.994,80.8294 382.5,70.5C 384.621,70.6747 386.621,70.3414 388.5,69.5 Z"/></g>
<g><path style="opacity:0.874" fill="#515151" d="M 427.5,65.5 C 429.216,65.6287 430.883,65.962 432.5,66.5C 432.335,69.8499 432.502,73.1832 433,76.5C 434.487,77.1552 435.653,78.1552 436.5,79.5C 433.627,79.2754 430.627,79.6087 427.5,80.5C 427.649,79.448 427.483,78.448 427,77.5C 420.772,82.2321 415.772,81.2321 412,74.5C 411.506,72.8659 411.34,71.1992 411.5,69.5C 413.435,70.1495 415.435,70.4828 417.5,70.5C 418.637,76.5781 421.804,77.9114 427,74.5C 427.498,71.5184 427.665,68.5184 427.5,65.5 Z"/></g>
<g><path style="opacity:0.859" fill="#515151" d="M 449.5,64.5 C 449.5,68.8333 449.5,73.1667 449.5,77.5C 453.211,77.4695 453.878,78.4695 451.5,80.5C 447.824,79.4561 444.157,79.2894 440.5,80C 439.167,79.3333 439.167,78.6667 440.5,78C 441.448,77.5172 442.448,77.3505 443.5,77.5C 444.114,73.8648 444.448,70.1981 444.5,66.5C 446.167,65.8333 447.833,65.1667 449.5,64.5 Z"/></g>
<g><path style="opacity:0.897" fill="#525252" d="M 460.5,65.5 C 462.098,65.6097 463.765,65.943 465.5,66.5C 465.335,69.8499 465.502,73.1832 466,76.5C 467.487,77.1552 468.653,78.1552 469.5,79.5C 465.243,79.2046 460.91,79.5379 456.5,80.5C 456.5,79.5 456.5,78.5 456.5,77.5C 457.822,77.67 458.989,77.3366 460,76.5C 460.499,72.8484 460.665,69.1817 460.5,65.5 Z"/></g>
<g><path style="opacity:0.933" fill="#515151" d="M 479.5,64.5 C 479.586,68.8566 479.92,73.19 480.5,77.5C 481.5,77.5 482.5,77.5 483.5,77.5C 483.5,78.5 483.5,79.5 483.5,80.5C 479.5,79.1667 475.5,79.1667 471.5,80.5C 471.5,79.5 471.5,78.5 471.5,77.5C 472.5,77.5 473.5,77.5 474.5,77.5C 474.5,73.5 474.5,69.5 474.5,65.5C 476.292,65.634 477.958,65.3007 479.5,64.5 Z"/></g>
<g><path style="opacity:0.832" fill="#525252" d="M 136.5,65.5 C 138.179,65.2852 139.179,65.9519 139.5,67.5C 137.924,70.6548 136.924,73.9882 136.5,77.5C 140.211,77.4695 140.878,78.4695 138.5,80.5C 135.5,79.1667 132.5,79.1667 129.5,80.5C 128.263,80.4435 127.263,79.9435 126.5,79C 128.788,78.0536 130.955,76.8869 133,75.5C 134.075,72.1056 135.242,68.7722 136.5,65.5 Z"/></g>
<g><path style="opacity:0.867" fill="#535353" d="M 151.5,69.5 C 153.5,70.8333 155.5,70.8333 157.5,69.5C 158.594,71.3594 159.427,73.3594 160,75.5C 161.946,76.747 163.78,78.0803 165.5,79.5C 160.708,79.4253 155.875,79.7586 151,80.5C 150.167,80.1667 149.333,79.8333 148.5,79.5C 149.668,77.7826 151.335,77.1159 153.5,77.5C 152.833,74.8333 152.167,72.1667 151.5,69.5 Z"/></g>
<g><path style="opacity:0.987" fill="#f3ac30" d="M 50.5,80.5 C 50.5,84.1667 50.5,87.8333 50.5,91.5C 47.5509,89.7219 45.5509,87.2219 44.5,84C 44.9761,80.0032 46.9761,78.8365 50.5,80.5 Z"/></g>
<g><path style="opacity:0.937" fill="#af1908" d="M 82.5,90.5 C 89.0859,91.6258 95.7526,91.7925 102.5,91C 96.0478,87.6819 89.3811,84.8486 82.5,82.5C 82.5,81.5 82.5,80.5 82.5,79.5C 89.8409,79.3337 97.1742,79.5003 104.5,80C 104.189,84.4017 104.522,88.9017 105.5,93.5C 97.8333,93.5 90.1667,93.5 82.5,93.5C 82.5,92.5 82.5,91.5 82.5,90.5 Z"/></g>
<g><path style="opacity:0.902" fill="#dd830c" d="M 50.5,80.5 C 50.8333,80.5 51.1667,80.5 51.5,80.5C 51.7376,82.4044 52.7376,83.7377 54.5,84.5C 54.8417,85.3382 55.5084,85.6716 56.5,85.5C 58.3529,89.3826 57.1862,92.0492 53,93.5C 52.0053,92.9341 51.172,92.2674 50.5,91.5C 50.5,87.8333 50.5,84.1667 50.5,80.5 Z"/></g>
<g><path style="opacity:0.911" fill="#cf280e" d="M 82.5,82.5 C 89.3811,84.8486 96.0478,87.6819 102.5,91C 95.7526,91.7925 89.0859,91.6258 82.5,90.5C 82.5,87.8333 82.5,85.1667 82.5,82.5 Z"/></g>
<g><path style="opacity:0.748" fill="#606060" d="M 488.5,75.5 C 489.833,75.5 491.167,75.5 492.5,75.5C 497.212,77.1549 502.212,77.9883 507.5,78C 510.962,87.7557 507.295,92.9224 496.5,93.5C 490.117,94.2676 487.283,91.6009 488,85.5C 488.5,83.6667 489.667,82.5 491.5,82C 487.864,80.899 486.864,78.7323 488.5,75.5 Z M 498.5,81.5 C 505.014,81.1465 506.681,83.6465 503.5,89C 498.709,91.7092 495.042,90.7092 492.5,86C 493.747,83.3792 495.747,81.8792 498.5,81.5 Z"/></g>
</svg>
