<?xml version="1.0" standalone="no"?>
<!DOCTYPE svg PUBLIC "-//W3C//DTD SVG 20010904//EN"
 "http://www.w3.org/TR/2001/REC-SVG-20010904/DTD/svg10.dtd">
<svg version="1.0" xmlns="http://www.w3.org/2000/svg"
 width="512.000000pt" height="512.000000pt" viewBox="0 0 512.000000 512.000000"
 preserveAspectRatio="xMidYMid meet">

<g transform="translate(0.000000,512.000000) scale(0.100000,-0.100000)"
fill="#000000" stroke="none">
<path d="M2360 5114 c-89 -12 -201 -39 -323 -79 -234 -78 -359 -81 -530 -15
-107 41 -137 24 -137 -78 0 -130 85 -279 206 -363 l42 -29 -44 -77 c-97 -170
-137 -317 -136 -498 0 -142 22 -236 82 -361 l40 -83 0 -290 c0 -342 -3 -331
99 -331 l59 0 6 -67 c24 -267 86 -424 228 -578 l64 -70 -11 -80 c-14 -93 -53
-231 -69 -244 -7 -6 -122 -13 -256 -16 -135 -4 -284 -13 -332 -21 -180 -29
-338 -106 -465 -228 -128 -121 -209 -254 -255 -421 -22 -78 -22 -94 -23 -618
0 -522 1 -539 19 -553 17 -12 296 -14 1937 -14 1729 0 1919 2 1933 16 9 8 19
26 22 39 3 12 4 254 2 536 -4 492 -5 517 -26 594 -46 166 -127 300 -255 421
-127 122 -285 199 -465 228 -48 8 -197 17 -332 21 -168 4 -249 10 -257 18 -18
18 -50 123 -63 208 l-12 76 80 79 c162 160 235 331 257 597 l7 77 74 0 c119 0
114 -12 114 299 0 254 0 260 30 372 76 294 96 575 52 752 -66 264 -232 473
-499 625 -174 100 -391 151 -668 157 -88 2 -176 1 -195 -1z m440 -140 c257
-45 426 -126 583 -280 191 -189 271 -432 238 -721 -16 -133 -66 -383 -81 -397
-9 -8 -24 3 -63 44 -52 57 -106 159 -126 242 -20 84 -30 230 -22 318 8 73 6
88 -9 110 -29 42 -52 37 -166 -40 -173 -116 -339 -191 -499 -227 -95 -21 -272
-21 -355 0 -103 27 -223 91 -294 158 -103 96 -140 80 -149 -66 -8 -111 -28
-189 -73 -281 -32 -65 -125 -184 -144 -184 -11 0 -45 82 -66 160 -27 98 -25
272 4 375 27 97 97 241 152 313 26 34 40 63 40 82 0 32 5 28 -122 100 -34 19
-74 52 -89 73 -28 38 -65 124 -58 131 2 3 31 -2 64 -10 79 -18 255 -18 347 1
40 9 127 33 193 55 66 22 161 47 210 55 112 18 351 13 485 -11z m408 -966 c6
-68 21 -157 32 -198 41 -146 134 -283 235 -347 l45 -28 0 -202 0 -203 -73 0
c-111 0 -113 -2 -120 -162 -7 -156 -30 -259 -82 -357 -77 -145 -186 -251 -340
-327 -395 -196 -877 6 -1020 427 -28 82 -45 199 -45 310 0 93 -8 102 -96 107
l-64 4 0 241 0 240 74 77 c40 42 92 108 114 146 44 74 89 196 99 269 l6 45 31
-20 c140 -92 300 -140 470 -140 126 0 193 10 316 47 93 27 279 113 350 161 25
17 48 31 51 31 3 1 11 -54 17 -121z m-998 -1933 c125 -63 205 -80 375 -80 163
0 251 18 357 71 27 14 51 24 53 22 1 -2 8 -32 14 -67 7 -35 23 -94 35 -131
l23 -68 -253 -186 -253 -187 -255 187 -254 187 23 66 c12 36 28 98 35 136 13
70 17 85 26 85 2 0 36 -16 74 -35z m-363 -342 c-2 -5 -26 -45 -52 -91 -33 -57
-45 -89 -41 -105 7 -30 435 -506 471 -525 25 -13 31 -13 58 3 16 9 32 13 37 9
4 -5 -31 -209 -79 -454 l-88 -445 -391 -3 -392 -2 0 349 c0 204 -4 360 -10
375 -14 39 -53 53 -85 32 l-25 -16 0 -370 0 -370 -266 0 -265 0 3 483 c4 457
5 486 26 560 49 176 167 338 320 438 138 91 242 119 477 128 270 11 307 12
302 4z m1887 -14 c94 -13 213 -53 293 -100 32 -19 99 -74 148 -124 103 -102
160 -199 197 -332 21 -74 22 -103 26 -560 l3 -483 -265 0 -266 0 0 370 0 370
-25 16 c-32 21 -71 7 -85 -32 -6 -15 -10 -171 -10 -375 l0 -349 -415 0 -415 0
-5 23 c-20 92 -123 873 -116 880 6 6 21 2 38 -8 27 -16 33 -16 58 -3 36 19
464 495 471 525 4 16 -8 48 -41 105 -26 46 -50 86 -52 91 -6 10 362 -1 461
-14z m-1500 -179 l237 -174 -110 -110 c-61 -60 -112 -107 -114 -105 -2 2 -84
93 -182 203 l-179 198 27 52 c43 82 67 118 76 114 4 -2 115 -82 245 -178z
m926 148 c11 -18 32 -56 47 -84 l27 -52 -179 -198 c-98 -110 -180 -201 -181
-203 -2 -2 -53 45 -114 105 l-111 109 238 177 c131 97 241 177 246 177 4 1 16
-14 27 -31z m-515 -488 l80 -80 -83 -83 -82 -82 -82 82 -83 83 80 80 c44 44
82 80 85 80 3 0 41 -36 85 -80z m-85 -390 c11 0 43 21 71 47 27 25 51 44 53
42 2 -2 27 -168 55 -369 28 -201 54 -375 56 -387 l5 -23 -260 0 c-218 0 -260
2 -260 14 0 13 132 696 145 755 6 22 8 21 60 -28 30 -28 63 -51 75 -51z"/>
<path d="M1992 3644 c-25 -18 -30 -65 -8 -87 9 -9 47 -16 103 -20 95 -7 157
-24 203 -57 41 -29 87 -27 102 6 31 67 -74 143 -225 164 -108 14 -149 13 -175
-6z"/>
<path d="M2990 3648 c-120 -17 -220 -80 -220 -137 0 -59 53 -67 127 -21 48 30
138 49 230 50 32 0 46 5 57 22 22 31 20 45 -9 73 -27 28 -65 30 -185 13z"/>
<path d="M2950 3430 c-17 -17 -20 -33 -20 -120 0 -94 2 -103 25 -126 19 -18
31 -23 48 -19 40 12 47 33 47 145 0 91 -3 109 -18 123 -25 23 -58 21 -82 -3z"/>
<path d="M2130 3420 c-17 -17 -20 -33 -20 -99 0 -119 26 -163 83 -142 33 13
41 39 39 140 -2 63 -6 89 -19 103 -21 24 -58 23 -83 -2z"/>
<path d="M2310 2670 c-42 -42 -10 -97 83 -140 87 -42 180 -56 259 -41 160 32
269 134 196 185 -32 22 -42 20 -98 -18 -46 -32 -121 -56 -174 -56 -40 0 -122
29 -167 60 -52 35 -72 37 -99 10z"/>
</g>
</svg>
