<?xml version="1.0" standalone="no"?>
<!DOCTYPE svg PUBLIC "-//W3C//DTD SVG 20010904//EN"
 "http://www.w3.org/TR/2001/REC-SVG-20010904/DTD/svg10.dtd">
<svg version="1.0" xmlns="http://www.w3.org/2000/svg"
 width="96.000000pt" height="96.000000pt" viewBox="0 0 96.000000 96.000000"
 preserveAspectRatio="xMidYMid meet">
<metadata>
Created by potrace 1.16, written by Peter Selinger 2001-2019
</metadata>
<g transform="translate(0.000000,96.000000) scale(0.100000,-0.100000)"
fill="#000000" stroke="none">
<path d="M517 434 c-4 -4 -7 -22 -7 -41 0 -18 -4 -33 -10 -33 -5 0 -10 -20
-10 -45 0 -25 5 -45 10 -45 6 0 10 -11 10 -25 0 -25 -1 -25 -90 -25 -89 0 -90
0 -90 25 0 24 2 25 75 25 43 0 75 4 75 10 0 6 -35 10 -84 10 -58 0 -86 4 -89
13 -3 8 -7 5 -13 -7 -5 -13 -3 -21 4 -24 7 -2 12 -19 12 -38 0 -27 -4 -34 -20
-34 -16 0 -20 7 -20 37 0 26 -3 34 -11 26 -6 -6 -9 -26 -7 -44 3 -30 7 -34 36
-37 20 -2 32 1 32 9 0 9 38 11 163 5 90 -3 167 -3 171 1 3 4 27 6 51 4 39 -2
49 2 75 27 21 21 30 40 30 62 0 32 -25 90 -38 90 -4 0 -8 12 -7 28 l0 27 -121
3 c-66 1 -123 -1 -127 -4z"/>
</g>
</svg>
