<?xml version="1.0" encoding="UTF-8"?>
<svg version="1.1" xmlns="http://www.w3.org/2000/svg" width="644" height="124">
<path d="M0 0 C5.40485103 0.96515197 7.99460512 4.61192724 11.5 8.625 C12.16 9.285 12.82 9.945 13.5 10.625 C12.84 7.325 12.18 4.025 11.5 0.625 C17.78035136 0.07888249 22.96034313 1.59692431 28.5 4.625 C29.49 6.11 29.49 6.11 30.5 7.625 C29.695625 8.16125 28.89125 8.6975 28.0625 9.25 C25.03491576 12.05605369 24.77489191 13.59325194 24.5 17.625 C25.12648438 17.85574219 25.75296875 18.08648437 26.3984375 18.32421875 C27.21570313 18.65035156 28.03296875 18.97648437 28.875 19.3125 C29.68710938 19.62574219 30.49921875 19.93898438 31.3359375 20.26171875 C33.5 21.625 33.5 21.625 34.31640625 24.01171875 C36.11139607 27.9749141 39.2452089 28.95654661 43.0625 30.75 C45.60817513 31.967599 48.03707994 33.23506401 50.5 34.625 C50.83 35.615 51.16 36.605 51.5 37.625 C49.85 37.625 48.2 37.625 46.5 37.625 C46.83 38.285 47.16 38.945 47.5 39.625 C47.94143161 43.59788453 47.82030013 45.16456856 45.5 48.5 C44.84 49.20125 44.18 49.9025 43.5 50.625 C40.84058927 50.15569222 38.4766728 49.61549632 35.96875 48.59375 C31.29929089 47.28966683 26.94501368 47.41061316 22.125 47.5 C20.73474609 47.51353516 20.73474609 47.51353516 19.31640625 47.52734375 C17.04399923 47.55077063 14.7721382 47.58357252 12.5 47.625 C13.5 44.625 13.5 44.625 15.56640625 43.45703125 C17.87760417 42.51302083 20.18880208 41.56901042 22.5 40.625 C18.87 40.295 15.24 39.965 11.5 39.625 C13.15 37.975 14.8 36.325 16.5 34.625 C15.675 33.84125 14.85 33.0575 14 32.25 C11.5 29.625 11.5 29.625 11.5 27.625 C7.22784454 31.67230517 4.79202695 34.04542864 4.125 39.9375 C4.59261836 44.5357472 6.13870579 48.26370579 9.5 51.625 C9.77419047 53.93475666 10.01878584 56.24804623 10.25 58.5625 C11.38797584 68.11968354 14.67196569 75.23844516 21.36328125 82.25 C22.5 83.625 22.5 83.625 22.5 85.625 C12.64597659 83.29115235 3.72628826 75.34844918 -2.5 67.625 C-5.52345063 62.5816811 -8.28890744 57.41897689 -9.5 51.625 C-10.31366463 63.31012822 -7.04671549 72.06559585 -0.5 81.625 C-12.37362879 79.42039348 -25.46390492 74.34859508 -34.13671875 65.67578125 C-35.68796701 63.3422416 -36.04286539 62.15965672 -35.9375 59.375 C-33.61956079 49.54490743 -28.27795869 41.75193211 -21.35546875 34.5859375 C-19.44507634 32.75673572 -19.44507634 32.75673572 -18.5 30.625 C-26.68557171 35.32470087 -33.06010627 40.75257609 -39.5 47.625 C-40.4956237 48.62935724 -41.49356933 49.63147229 -42.5 50.625 C-43.48460986 38.26267623 -39.42702569 28.04836312 -31.5 18.625 C-27.66453237 15.05104152 -24.69631833 13.58270096 -19.48828125 13.30859375 C-18.73095703 13.26669922 -17.97363281 13.22480469 -17.19335938 13.18164062 C-16.40767578 13.14232422 -15.62199219 13.10300781 -14.8125 13.0625 C-14.01521484 13.01931641 -13.21792969 12.97613281 -12.39648438 12.93164062 C-10.43118553 12.82572632 -8.46561504 12.72487449 -6.5 12.625 C-11.78 11.635 -17.06 10.645 -22.5 9.625 C-16.200516 3.325516 -8.52420837 1.52218007 0 0 Z M24.5 25.625 C24.83 26.285 25.16 26.945 25.5 27.625 C26.16 27.295 26.82 26.965 27.5 26.625 C26.51 26.295 25.52 25.965 24.5 25.625 Z " fill="#B90101" transform="translate(66.5,18.375)"/>
<path d="M0 0 C0.66 0.66 1.32 1.32 2 2 C2.886875 1.484375 3.77375 0.96875 4.6875 0.4375 C8.22045555 -1.09566939 9.44953056 -1.28211396 13 0 C16.32149626 3.32149626 15.40065594 8.36304463 15.47851562 12.87890625 C15.55047629 14.92539727 15.76637647 16.96561461 16 19 C16.99 19.66 17.98 20.32 19 21 C19 21.66 19 22.32 19 23 C15.04 23 11.08 23 7 23 C7 22.01 7 21.02 7 20 C7.66 19.67 8.32 19.34 9 19 C9 13.72 9 8.44 9 3 C5.535 4.485 5.535 4.485 2 6 C2 10.62 2 15.24 2 20 C2.99 20 3.98 20 5 20 C5 20.99 5 21.98 5 23 C1.04 23 -2.92 23 -7 23 C-6.67 22.01 -6.34 21.02 -6 20 C-5.34 20 -4.68 20 -4 20 C-4.33 14.72 -4.66 9.44 -5 4 C-9.63019987 4.4452998 -9.63019987 4.4452998 -11 6 C-11.23527773 8.34987262 -11.41386417 10.70556039 -11.5625 13.0625 C-11.64628906 14.35285156 -11.73007812 15.64320312 -11.81640625 16.97265625 C-11.87699219 17.97167969 -11.93757812 18.97070312 -12 20 C-10.68 20.33 -9.36 20.66 -8 21 C-8.33 21.66 -8.66 22.32 -9 23 C-12.96 23 -16.92 23 -21 23 C-21 22.01 -21 21.02 -21 20 C-20.01 20 -19.02 20 -18 20 C-17.67 14.72 -17.34 9.44 -17 4 C-18.65 4 -20.3 4 -22 4 C-22 3.01 -22 2.02 -22 1 C-18.7 0.67 -15.4 0.34 -12 0 C-11.67 0.66 -11.34 1.32 -11 2 C-10.29875 1.484375 -9.5975 0.96875 -8.875 0.4375 C-5.35368548 -1.32315726 -3.72954958 -1.07742543 0 0 Z " fill="#927B7B" transform="translate(565,63)"/>
<path d="M0 0 C1.99609375 0.3046875 1.99609375 0.3046875 4.4375 0.875 C5.24058594 1.05804688 6.04367188 1.24109375 6.87109375 1.4296875 C9 2 9 2 11 3 C10.690625 3.70125 10.38125 4.4025 10.0625 5.125 C8.92997427 8.18948139 8.20417402 10.73321568 8 14 C9.73344875 17.72843964 9.73344875 17.72843964 13 20 C15.21138855 19.91188555 17.42042185 19.7570216 19.625 19.5625 C20.81351563 19.46066406 22.00203125 19.35882813 23.2265625 19.25390625 C24.59941406 19.12822266 24.59941406 19.12822266 26 19 C31.13670124 26.6387107 32.1789627 31.87290245 32 41 C27.70622159 41 27.2680139 40.81285648 24.171875 38.25390625 C23.45797607 37.66834961 22.74407715 37.08279297 22.00854492 36.47949219 C20.89056519 35.53058105 20.89056519 35.53058105 19.75 34.5625 C18.98727783 33.92086914 18.22455566 33.27923828 17.4387207 32.61816406 C8.75567467 25.21622318 0.23023082 17.82401714 -1.26953125 5.84765625 C-1.3125 3.9375 -1.3125 3.9375 -1 1 C-0.67 0.67 -0.34 0.34 0 0 Z " fill="#740303" transform="translate(80,71)"/>
<path d="M0 0 C0.78375 0.33 1.5675 0.66 2.375 1 C2.375 4.3 2.375 7.6 2.375 11 C1.715 11 1.055 11 0.375 11 C-0.73828125 9.28515625 -0.73828125 9.28515625 -1.9375 7.0625 C-3.88460355 3.74046496 -3.88460355 3.74046496 -7.1875 1.875 C-9.98647153 2.018537 -11.4106022 2.26011601 -13.625 4 C-14.70524658 6.40110217 -14.70524658 6.40110217 -14.625 9 C-11.79130166 12.77188225 -7.63726006 13.48186112 -3.31640625 14.83984375 C-0.29131211 16.14383934 1.30874505 17.44784491 3.375 20 C4.48366836 24.58249589 4.76289125 26.85787576 3.25 31.3125 C1.13672145 34.34153259 -0.32010021 35.39846593 -3.625 37 C-6.78125 37.36328125 -6.78125 37.36328125 -10.125 37.3125 C-11.2284375 37.30863281 -12.331875 37.30476563 -13.46875 37.30078125 C-16.625 37 -16.625 37 -21.625 35 C-21.625 30.71 -21.625 26.42 -21.625 22 C-18.45790937 23.58354531 -18.04273693 26.67121804 -16.8203125 29.87109375 C-15.38059972 32.43528808 -14.39542186 33.08854151 -11.625 34 C-7.94296085 33.68873287 -7.94296085 33.68873287 -4.625 33 C-2.89113574 29.07247271 -2.89113574 29.07247271 -3.203125 24.94921875 C-5.72014373 21.49869032 -9.77321386 20.81875015 -13.6796875 19.44140625 C-17.0944497 17.77025605 -18.59092767 16.18815592 -20.625 13 C-21.38802576 10.22153379 -21.2979298 7.79916179 -20.625 5 C-14.92969875 -2.04418839 -8.44023026 -2.32833938 0 0 Z " fill="#DA4949" transform="translate(151.625,49)"/>
<path d="M0 0 C3.2292824 2.6369182 4.44719148 6.00727385 5.91796875 9.78515625 C6.31113029 10.77049599 6.31113029 10.77049599 6.7122345 11.77574158 C7.26291675 13.16031969 7.809854 14.54639242 8.35327148 15.93383789 C9.18716132 18.0616358 10.0329868 20.18438094 10.88085938 22.30664062 C15 32.69672097 15 32.69672097 15 35 C16.65 35.33 18.3 35.66 20 36 C20 36.66 20 37.32 20 38 C14.39 38 8.78 38 3 38 C3 37.01 3 36.02 3 35 C4.32 34.34 5.64 33.68 7 33 C5.515 29.535 5.515 29.535 4 26 C0.37 25.67 -3.26 25.34 -7 25 C-7.12375 25.9075 -7.2475 26.815 -7.375 27.75 C-7.92109677 30.58970323 -8.57263803 32.52590591 -10 35 C-8.35 35.33 -6.7 35.66 -5 36 C-5 36.66 -5 37.32 -5 38 C-9.62 38 -14.24 38 -19 38 C-18.67 37.01 -18.34 36.02 -18 35 C-15.525 34.505 -15.525 34.505 -13 34 C-12.85304688 33.45214844 -12.70609375 32.90429688 -12.5546875 32.33984375 C-10.63109253 25.54093048 -8.09289366 19.04741425 -5.42578125 12.515625 C-4.29699892 9.73232609 -3.21735148 6.94567697 -2.1875 4.125 C-1 1 -1 1 0 0 Z M-2 13 C-2.99 15.97 -3.98 18.94 -5 22 C-2.36 22 0.28 22 3 22 C2.01 19.03 1.02 16.06 0 13 C-0.66 13 -1.32 13 -2 13 Z " fill="#BE5C5C" transform="translate(304,48)"/>
<path d="M0 0 C0.33 5.94 0.66 11.88 1 18 C2.98 17.01 4.96 16.02 7 15 C10.375 15.3125 10.375 15.3125 13 16 C14.80679587 20.62369023 15.21839082 24.42528653 15.125 29.375 C15.10695312 30.62023437 15.08890625 31.86546875 15.0703125 33.1484375 C15.04710937 34.08945313 15.02390625 35.03046875 15 36 C15.99 36 16.98 36 18 36 C18 36.99 18 37.98 18 39 C14.04 39 10.08 39 6 39 C6 38.01 6 37.02 6 36 C6.99 36 7.98 36 9 36 C8.67 30.72 8.34 25.44 8 20 C3.39467611 20.69302969 3.39467611 20.69302969 1 22 C1 26.62 1 31.24 1 36 C1.99 36 2.98 36 4 36 C4 36.99 4 37.98 4 39 C-0.29 39 -4.58 39 -9 39 C-8.67 38.01 -8.34 37.02 -8 36 C-7.01 36 -6.02 36 -5 36 C-5 25.77 -5 15.54 -5 5 C-6.65 4.67 -8.3 4.34 -10 4 C-9 2 -9 2 -7.1875 1.3671875 C-6.465625 1.20476563 -5.74375 1.04234375 -5 0.875 C-4.278125 0.70742188 -3.55625 0.53984375 -2.8125 0.3671875 C-1 0 -1 0 0 0 Z " fill="#D54D4D" transform="translate(169,47)"/>
<path d="M0 0 C1.39120471 0.00015906 2.78241534 0.00585033 4.17358398 0.01586914 C4.90463852 0.01728409 5.63569305 0.01869904 6.38890076 0.02015686 C8.73253406 0.02577131 11.07607313 0.03832617 13.41967773 0.05102539 C15.00496282 0.05603853 16.59024939 0.06060176 18.17553711 0.06469727 C22.06945383 0.07574542 25.96329979 0.09301967 29.85717773 0.11352539 C30.84717773 3.41352539 31.83717773 6.71352539 32.85717773 10.11352539 C28.85717773 8.11352539 28.85717773 8.11352539 25.85717773 5.11352539 C22.55717773 4.12352539 19.25717773 3.13352539 15.85717773 2.11352539 C16.35217773 17.45852539 16.35217773 17.45852539 16.85717773 33.11352539 C18.50717773 33.77352539 20.15717773 34.43352539 21.85717773 35.11352539 C21.85717773 35.77352539 21.85717773 36.43352539 21.85717773 37.11352539 C15.91717773 37.11352539 9.97717773 37.11352539 3.85717773 37.11352539 C4.18717773 36.12352539 4.51717773 35.13352539 4.85717773 34.11352539 C6.83717773 33.61852539 6.83717773 33.61852539 8.85717773 33.11352539 C9.18717773 22.88352539 9.51717773 12.65352539 9.85717773 2.11352539 C-0.64945589 5.05631173 -0.64945589 5.05631173 -5.14282227 10.11352539 C-5.80282227 10.11352539 -6.46282227 10.11352539 -7.14282227 10.11352539 C-6.66731666 8.63317775 -6.18731011 7.15427518 -5.70532227 5.67602539 C-5.43848633 4.85231445 -5.17165039 4.02860352 -4.89672852 3.17993164 C-3.71157994 -0.06848077 -3.66952162 0.13255089 0 0 Z " fill="#9C7373" transform="translate(492.142822265625,48.886474609375)"/>
<path d="M0 0 C3.3 0 6.6 0 10 0 C10 6.27 10 12.54 10 19 C12.31 18.34 14.62 17.68 17 17 C17 12.38 17 7.76 17 3 C16.01 2.67 15.02 2.34 14 2 C14 1.34 14 0.68 14 0 C17.3 0 20.6 0 24 0 C24.33 5.94 24.66 11.88 25 18 C25.99 18.33 26.98 18.66 28 19 C28 19.66 28 20.32 28 21 C26.54536519 21.38909985 25.08608793 21.76088029 23.625 22.125 C22.81289063 22.33382812 22.00078125 22.54265625 21.1640625 22.7578125 C20.44992187 22.83773437 19.73578125 22.91765625 19 23 C18.34 22.34 17.68 21.68 17 21 C16.46375 21.33 15.9275 21.66 15.375 22 C12.34303035 23.2766188 10.25996064 23.41616519 7 23 C3.82463391 20.08168735 3.59044381 17.15262612 3.38085938 12.9609375 C3.35830078 12.23132813 3.33574219 11.50171875 3.3125 10.75 C3.27833984 10.00492188 3.24417969 9.25984375 3.20898438 8.4921875 C3.12685946 6.66197508 3.06174347 4.83101331 3 3 C2.01 2.67 1.02 2.34 0 2 C0 1.34 0 0.68 0 0 Z " fill="#B86060" transform="translate(325,63)"/>
<path d="M0 0 C1.11823815 2.23647631 1.19396061 3.64891529 1.31640625 6.1328125 C1.35830078 6.93847656 1.40019531 7.74414062 1.44335938 8.57421875 C1.48267578 9.41597656 1.52199219 10.25773437 1.5625 11.125 C1.60568359 11.97449219 1.64886719 12.82398437 1.69335938 13.69921875 C1.79954236 15.79928223 1.90028497 17.89961948 2 20 C2.99 20 3.98 20 5 20 C5 20.99 5 21.98 5 23 C1.04 23 -2.92 23 -7 23 C-7 22.01 -7 21.02 -7 20 C-6.01 20 -5.02 20 -4 20 C-4.33 14.72 -4.66 9.44 -5 4 C-9.60532389 4.69302969 -9.60532389 4.69302969 -12 6 C-12 10.62 -12 15.24 -12 20 C-11.01 20.33 -10.02 20.66 -9 21 C-9 21.66 -9 22.32 -9 23 C-13.29 23 -17.58 23 -22 23 C-22 22.01 -22 21.02 -22 20 C-21.01 19.67 -20.02 19.34 -19 19 C-18.67 14.05 -18.34 9.1 -18 4 C-19.65 3.67 -21.3 3.34 -23 3 C-23 2.34 -23 1.68 -23 1 C-19.7 0.67 -16.4 0.34 -13 0 C-12.67 0.66 -12.34 1.32 -12 2 C-10.700625 1.2265625 -10.700625 1.2265625 -9.375 0.4375 C-5.59396958 -1.17293888 -3.88544609 -1.17466975 0 0 Z " fill="#A36E6E" transform="translate(466,63)"/>
<path d="M0 0 C3.34253016 2.71580576 4.67120173 4.20470325 5.44140625 8.41015625 C5.71243096 14.20658793 4.80937188 17.63042637 1 22 C-2.4764443 23.73822215 -6.199162 23.44715741 -10 23 C-13.15113808 21.4579537 -14.47104191 20.24073579 -15.84765625 17.01171875 C-17.25413182 12.13537531 -17.22730299 8.31006026 -15.10546875 3.66796875 C-11.60172857 -1.61859329 -5.51441256 -1.99288832 0 0 Z M-8 2 C-10.66830618 7.01641563 -11.26720226 10.35091377 -10.6171875 15.984375 C-9.89027469 18.35834342 -8.86722575 19.40528828 -7 21 C-3.27385847 19.88145414 -3.27385847 19.88145414 -1 17 C-0.85220038 15.0246012 -0.77881034 13.04321076 -0.75 11.0625 C-0.72421875 10.00160156 -0.6984375 8.94070312 -0.671875 7.84765625 C-0.77631404 5.0211529 -0.77631404 5.0211529 -2.265625 3.12109375 C-4.21568831 1.63809395 -4.21568831 1.63809395 -8 2 Z " fill="#A86B6B" transform="translate(434,63)"/>
<path d="M0 0 C2 1.75 2 1.75 3 4 C2.67 5.65 2.34 7.3 2 9 C-2.29 9 -6.58 9 -11 9 C-10.71125 10.299375 -10.4225 11.59875 -10.125 12.9375 C-9.96257813 13.66839844 -9.80015625 14.39929688 -9.6328125 15.15234375 C-9.17038477 17.20700294 -9.17038477 17.20700294 -7 18 C-3.51044604 18.30343947 -1.62494296 18.39470082 1.375 16.5 C1.91125 16.005 2.4475 15.51 3 15 C3.33 15.66 3.66 16.32 4 17 C0.25 21.875 0.25 21.875 -2 23 C-6.39000602 23.35983656 -8.92742164 23.53628918 -12.875 21.5625 C-15.85067636 17.97418439 -16.82772338 14.64363807 -17 10 C-16.25394479 6.33306828 -14.75611151 3.70885454 -12 1.125 C-7.69780997 -1.29498189 -4.74344812 -1.1011576 0 0 Z M-8 2 C-8.66 2.66 -9.32 3.32 -10 4 C-10 4.99 -10 5.98 -10 7 C-7.69 7 -5.38 7 -3 7 C-3.33 5.35 -3.66 3.7 -4 2 C-5.32 2 -6.64 2 -8 2 Z " fill="#8C7E7E" transform="translate(604,63)"/>
<path d="M0 0 C1.0625 1.8125 1.0625 1.8125 1.0625 7.8125 C-3.5575 7.8125 -8.1775 7.8125 -12.9375 7.8125 C-12.463125 9.111875 -11.98875 10.41125 -11.5 11.75 C-11.09974609 12.84634766 -11.09974609 12.84634766 -10.69140625 13.96484375 C-10.08363052 15.79555678 -10.08363052 15.79555678 -8.9375 16.8125 C-6.02141002 17.14611919 -6.02141002 17.14611919 -2.9375 16.8125 C-1.1863427 15.3958253 -1.1863427 15.3958253 0.0625 13.8125 C0.7225 13.8125 1.3825 13.8125 2.0625 13.8125 C1.4985709 17.08328876 0.60569569 18.67621562 -1.9375 20.8125 C-5.14167721 22.4145886 -8.46089432 22.30535215 -11.9375 21.8125 C-15.38062714 19.6880173 -16.65367547 18.66397359 -17.9375 14.8125 C-18.48537642 10.09717016 -18.36478589 6.68289718 -16.25 2.375 C-11.71296806 -2.65252188 -6.01810941 -3.68851867 0 0 Z M-10.6875 2.1875 C-12.14073692 3.73501592 -12.14073692 3.73501592 -11.9375 5.8125 C-9.2975 5.8125 -6.6575 5.8125 -3.9375 5.8125 C-4.2675 4.1625 -4.5975 2.5125 -4.9375 0.8125 C-8.78421473 0.40061897 -8.78421473 0.40061897 -10.6875 2.1875 Z " fill="#D05050" transform="translate(208.9375,64.1875)"/>
<path d="M0 0 C0.99 0.66 1.98 1.32 3 2 C3.1875 5.125 3.1875 5.125 3 8 C1.02 8 -0.96 8 -3 8 C-3 6.35 -3 4.7 -3 3 C-4.98 3 -6.96 3 -9 3 C-9.22304441 4.74818591 -9.4278645 6.49870323 -9.625 8.25 C-9.79902344 9.71179688 -9.79902344 9.71179688 -9.9765625 11.203125 C-10.00112537 14.13429393 -9.5312717 15.54528964 -8 18 C-3.32538149 18.32613618 -0.83325617 17.70582788 3 15 C3.33 15.66 3.66 16.32 4 17 C0.25 21.875 0.25 21.875 -2 23 C-6.973766 23.4973766 -9.06308498 23.54511419 -13.4375 21 C-16.18360945 17.78504259 -16.95419333 16.17122244 -17.171875 12.05859375 C-16.80033725 7.60858479 -15.24086083 4.16330703 -12 1.125 C-7.67783533 -1.30621763 -4.77349864 -0.93765152 0 0 Z " fill="#B36464" transform="translate(374,63)"/>
<path d="M0 0 C0.66 2.31 1.32 4.62 2 7 C1.01 7 0.02 7 -1 7 C-1.45375 6.525625 -1.9075 6.05125 -2.375 5.5625 C-4.46366683 3.55416651 -6.1783448 3.38130476 -9 3 C-8.87689357 4.93347205 -8.87689357 4.93347205 -8 7 C-5.76389278 8.46705758 -5.76389278 8.46705758 -3.0625 9.5625 C1.79661017 11.69491525 1.79661017 11.69491525 4 15 C3.84003776 18.11926377 3.25557944 19.67062649 1.3359375 22.14453125 C-1.70136564 24.55710482 -3.42349258 24.41636989 -7.25 24.25 C-8.32765625 24.21390625 -9.4053125 24.1778125 -10.515625 24.140625 C-11.74539062 24.07101563 -11.74539062 24.07101563 -13 24 C-14.15941038 20.52176885 -13.70820884 18.54104422 -13 15 C-12.34 15 -11.68 15 -11 15 C-9.61061923 16.96147874 -8.2739589 18.96166576 -7 21 C-5.35 20.67 -3.7 20.34 -2 20 C-2.20547472 18.05391112 -2.20547472 18.05391112 -3 16 C-4.74216392 14.7618382 -4.74216392 14.7618382 -6.875 13.9375 C-9.8248161 12.66940563 -11.97988768 11.54737434 -14 9 C-14 6 -14 6 -13 3 C-8.97256408 -0.66130538 -5.15102273 -0.26191641 0 0 Z " fill="#C65757" transform="translate(266,62)"/>
<path d="M0 0 C0.99 -0.33 1.98 -0.66 3 -1 C3.99 -1.33 4.98 -1.66 6 -2 C6.99 -1.34 7.98 -0.68 9 0 C8.67 1.65 8.34 3.3 8 5 C4.80756358 6.06414547 4.07152658 5.81907375 1 5 C-0.31262571 6.08552366 -0.31262571 6.08552366 -0.09765625 8.72265625 C-0.08605469 9.82480469 -0.07445312 10.92695312 -0.0625 12.0625 C-0.05347656 13.16722656 -0.04445312 14.27195312 -0.03515625 15.41015625 C-0.02355469 16.26480469 -0.01195312 17.11945313 0 18 C1.32 18.66 2.64 19.32 4 20 C4 20.66 4 21.32 4 22 C-0.62 22 -5.24 22 -10 22 C-10 21.01 -10 20.02 -10 19 C-9.01 18.67 -8.02 18.34 -7 18 C-6.67 13.05 -6.34 8.1 -6 3 C-7.65 3 -9.3 3 -11 3 C-11 2.01 -11 1.02 -11 0 C-3.375 -2.25 -3.375 -2.25 0 0 Z " fill="#CD5353" transform="translate(225,64)"/>
<path d="M0 0 C0.66 0 1.32 0 2 0 C2 1.98 2 3.96 2 6 C4.64 6 7.28 6 10 6 C10 6.66 10 7.32 10 8 C7.36 8 4.72 8 2 8 C2.33 13.28 2.66 18.56 3 24 C5.64 23.34 8.28 22.68 11 22 C10 26 10 26 7 28 C0.74810423 28.55820498 0.74810423 28.55820498 -1.70043945 26.73120117 C-3.28146819 24.62504397 -3.35176953 23.59511583 -3.29296875 20.98828125 C-3.28330078 20.23095703 -3.27363281 19.47363281 -3.26367188 18.69335938 C-3.23853516 17.90767578 -3.21339844 17.12199219 -3.1875 16.3125 C-3.16719727 15.11657227 -3.16719727 15.11657227 -3.14648438 13.89648438 C-3.11117089 11.93070033 -3.05736447 9.96526418 -3 8 C-4.32 7.67 -5.64 7.34 -7 7 C-5.47005208 5.76302083 -3.94010417 4.52604167 -2.41015625 3.2890625 C-0.86733563 2.0333609 -0.86733563 2.0333609 0 0 Z " fill="#B06666" transform="translate(387,58)"/>
<path d="M0 0 C0 6.6 0 13.2 0 20 C1.32 20.33 2.64 20.66 4 21 C4 21.66 4 22.32 4 23 C-0.29 23 -4.58 23 -9 23 C-9 22.01 -9 21.02 -9 20 C-8.01 20 -7.02 20 -6 20 C-5.67 14.72 -5.34 9.44 -5 4 C-6.65 4 -8.3 4 -10 4 C-10 3.01 -10 2.02 -10 1 C-6.46315341 0.19157792 -3.72159473 0 0 0 Z " fill="#AD6969" transform="translate(410,63)"/>
<path d="M0 0 C0.33 6.6 0.66 13.2 1 20 C1.99 20.33 2.98 20.66 4 21 C4 21.66 4 22.32 4 23 C-0.29 23 -4.58 23 -9 23 C-9 22.01 -9 21.02 -9 20 C-7.68 20 -6.36 20 -5 20 C-5 14.72 -5 9.44 -5 4 C-6.65 3.67 -8.3 3.34 -10 3 C-10 2.34 -10 1.68 -10 1 C-6.56484998 0.37542727 -3.50935186 0 0 0 Z " fill="#977777" transform="translate(536,63)"/>
<path d="M0 0 C7.87946521 -0.47276791 13.23027255 -0.21511332 20 4 C21 5 21 5 21.09765625 7.28515625 C21.08605469 8.20167969 21.07445313 9.11820313 21.0625 10.0625 C21.05347656 10.98160156 21.04445313 11.90070313 21.03515625 12.84765625 C21.02355469 13.55792969 21.01195313 14.26820312 21 15 C17.62512292 12.85983405 14.58813996 10.68385551 11.625 8 C8.04851553 4.84757297 4.32722316 2.97382109 0 1 C0 0.67 0 0.34 0 0 Z " fill="#980202" transform="translate(86,68)"/>
<path d="M0 0 C1.67542976 0.28604898 3.34385343 0.61781233 5 1 C6.26950234 4.0006419 5.98068499 5.05184556 4.8125 8.1875 C3 11 3 11 0.8125 11.875 C-0.0846875 11.936875 -0.0846875 11.936875 -1 12 C-0.34 10.35 0.32 8.7 1 7 C0.34 6.67 -0.32 6.34 -1 6 C-1.042721 4.33388095 -1.04063832 2.66617115 -1 1 C-0.67 0.67 -0.34 0.34 0 0 Z " fill="#C95555" transform="translate(240,48)"/>
<path d="M0 0 C2.0625 0.4375 2.0625 0.4375 4 1 C4.33 2.65 4.66 4.3 5 6 C2.625 6.625 2.625 6.625 0 7 C-0.66 6.34 -1.32 5.68 -2 5 C-1.46428571 1.46428571 -1.46428571 1.46428571 0 0 Z " fill="#977777" transform="translate(532,51)"/>
<path d="M0 0 C0.625 1.875 0.625 1.875 1 4 C0.34 4.66 -0.32 5.32 -1 6 C-3.625 5.625 -3.625 5.625 -6 5 C-6 3.35 -6 1.7 -6 0 C-3.50907189 -1.24546405 -2.58919267 -0.7767578 0 0 Z " fill="#AC6969" transform="translate(410,52)"/>
</svg>
