<?xml version="1.0" standalone="no"?>
<!DOCTYPE svg PUBLIC "-//W3C//DTD SVG 20010904//EN"
 "http://www.w3.org/TR/2001/REC-SVG-20010904/DTD/svg10.dtd">
<svg version="1.0" xmlns="http://www.w3.org/2000/svg"
 width="926.000000pt" height="999.000000pt" viewBox="0 0 926.000000 999.000000"
 preserveAspectRatio="xMidYMid meet">

<g transform="translate(0.000000,999.000000) scale(0.100000,-0.100000)"
fill="#000000" stroke="none">
<path d="M187 9822 c-10 -10 -17 -23 -17 -28 0 -6 -5 -15 -11 -21 -8 -8 -24
-2 -58 22 -54 39 -78 35 -61 -9 5 -15 10 -42 10 -61 0 -37 19 -60 125 -153 65
-58 67 -57 -30 -16 -6 3 -19 -2 -29 -9 -48 -35 18 -103 215 -222 59 -36 129
-83 155 -105 27 -22 94 -63 150 -91 82 -41 126 -55 235 -77 131 -27 203 -55
215 -86 3 -7 -1 -30 -10 -49 l-15 -36 48 -63 c61 -81 128 -182 226 -338 116
-187 302 -438 344 -465 57 -36 85 -75 111 -154 21 -63 31 -79 77 -120 29 -25
90 -98 136 -161 45 -63 117 -154 160 -202 65 -74 80 -97 93 -145 34 -133 114
-238 248 -327 77 -51 197 -148 330 -266 59 -52 144 -120 189 -150 80 -54 82
-56 105 -124 31 -91 58 -214 82 -383 11 -75 30 -174 42 -219 l22 -83 -24 -77
c-14 -43 -33 -86 -44 -95 -22 -21 -50 -110 -48 -158 1 -25 -8 -45 -32 -75 -19
-23 -57 -84 -87 -136 -29 -52 -67 -115 -85 -140 -38 -54 -105 -209 -115 -265
-4 -22 -30 -89 -57 -150 -71 -153 -188 -513 -233 -713 -21 -97 -21 -103 -5
-121 16 -18 16 -23 1 -85 -9 -36 -13 -71 -9 -77 10 -17 144 -76 191 -83 28 -5
50 -17 70 -39 24 -27 28 -42 31 -97 2 -36 7 -92 12 -125 5 -33 12 -103 15
-155 8 -119 32 -361 46 -460 13 -91 46 -185 110 -311 26 -53 54 -118 63 -145
107 -345 122 -387 197 -534 151 -299 182 -381 194 -516 8 -83 -10 -326 -32
-435 -14 -70 -14 -94 1 -265 18 -203 34 -352 42 -397 l6 -27 878 0 878 0 7
123 c8 153 1 580 -13 707 -11 107 -33 210 -44 210 -5 0 -8 -7 -8 -15 0 -8 -3
-15 -7 -15 -5 0 -30 -27 -56 -60 l-48 -59 34 -36 c19 -19 40 -35 48 -35 8 0
25 -7 38 -16 17 -12 20 -19 11 -24 -11 -7 -82 23 -114 49 -6 4 -30 11 -52 14
-23 2 -73 15 -113 27 -56 18 -71 27 -71 42 0 11 4 17 9 14 5 -3 11 0 14 7 3 8
40 21 84 31 43 9 94 22 113 27 19 6 45 11 58 12 36 2 25 39 -16 49 -41 11 -40
38 1 49 37 10 56 2 68 -29 13 -33 25 -19 33 39 6 43 5 49 -20 68 -15 12 -33
21 -41 21 -8 0 -36 18 -61 41 -44 38 -177 109 -205 109 -19 0 -87 67 -87 86 0
15 8 16 66 11 37 -4 71 -10 78 -15 6 -5 28 -12 49 -16 22 -4 54 -21 75 -40 52
-46 84 -66 104 -66 45 0 0 93 -90 186 -32 34 -64 75 -71 93 -8 17 -19 31 -26
31 -15 0 -28 53 -14 58 5 2 7 8 3 13 -3 5 1 9 9 9 28 0 39 146 17 224 -10 35
-10 56 -2 82 5 19 7 47 3 62 -6 19 -3 34 11 54 11 16 15 29 8 33 -12 8 -13 95
-1 95 5 0 8 11 7 24 0 13 -5 22 -9 19 -4 -2 -5 6 -2 20 4 14 2 28 -4 31 -7 5
-5 15 6 32 13 21 14 33 6 69 -6 25 -8 47 -4 50 3 3 4 24 2 46 -2 30 2 45 18
58 13 11 18 25 15 38 -4 16 0 22 20 27 24 6 38 36 17 36 -5 0 -11 9 -14 20 -3
12 -14 20 -26 20 -12 0 -21 5 -21 10 0 6 6 10 13 9 6 -1 21 0 32 1 16 1 15 3
-8 12 -15 5 -27 14 -27 20 0 5 -9 6 -21 3 -18 -6 -19 -5 -8 13 8 13 19 17 32
14 16 -4 19 -2 14 11 -7 19 1 47 13 47 4 0 7 -8 6 -17 -1 -12 7 -19 23 -21 20
-3 22 -8 17 -33 -4 -23 -1 -31 17 -40 21 -12 21 -12 2 -19 -20 -8 -20 -8 0
-16 19 -8 19 -8 -5 -14 l-24 -6 22 -22 c28 -28 28 -36 -5 -67 -16 -14 -23 -25
-18 -23 15 4 66 -33 59 -43 -3 -5 2 -12 10 -15 14 -5 14 -9 -1 -35 -14 -24
-15 -31 -5 -38 9 -5 11 -17 6 -36 -5 -20 -4 -26 5 -21 6 4 11 3 11 -3 0 -5 -4
-11 -10 -13 -6 -2 -4 -14 4 -30 8 -15 12 -29 9 -32 -3 -3 0 -12 6 -20 7 -8 10
-24 6 -35 -3 -10 -1 -22 5 -26 6 -3 8 -11 4 -16 -3 -5 2 -23 10 -41 9 -17 16
-39 16 -50 0 -10 4 -18 10 -18 5 0 10 -17 10 -38 0 -50 4 -73 18 -98 6 -11 13
-43 16 -70 3 -27 7 -59 10 -72 4 -20 2 -22 -17 -17 -12 4 -30 16 -41 28 -10
12 -23 22 -30 23 -6 0 -19 5 -30 9 -23 10 -51 -22 -68 -80 -6 -22 -19 -49 -27
-60 -40 -50 -55 -105 -28 -105 15 0 42 51 57 106 9 37 13 41 35 36 14 -2 28
-9 32 -16 11 -17 20 -106 11 -106 -4 0 -8 -8 -8 -17 0 -13 3 -14 12 -5 7 7 18
12 26 12 14 0 14 -19 -4 -203 l-6 -59 25 16 c32 21 100 191 111 277 3 20 14
53 25 75 12 24 25 80 32 148 11 93 17 113 41 144 27 33 36 54 42 95 1 10 8 23
14 29 7 7 12 18 12 26 0 7 15 32 34 55 44 55 52 83 31 107 -12 13 -19 46 -24
108 -8 93 -14 112 -35 112 -13 0 -56 -97 -56 -126 0 -8 -5 -14 -11 -14 -6 0
-8 -11 -4 -28 5 -27 -10 -161 -21 -171 -11 -11 -16 13 -17 80 0 48 4 74 11 77
15 5 16 32 2 32 -5 0 -10 14 -10 31 0 16 -4 28 -9 25 -5 -3 -12 19 -16 50 -4
33 -12 57 -21 61 -18 7 -18 33 0 33 7 0 16 9 19 20 3 11 1 18 -4 15 -4 -3 -15
8 -24 24 -19 38 -19 38 5 44 24 6 27 27 3 27 -13 0 -14 3 -5 12 19 19 14 30
-9 18 -38 -21 -51 -6 -46 56 4 51 3 56 -19 66 -27 13 -32 28 -9 28 16 0 21 35
6 45 -5 3 -17 -3 -27 -12 -9 -9 -22 -18 -28 -19 -6 -1 -20 -5 -31 -9 -14 -5
-16 -4 -7 2 7 6 12 14 11 19 -5 28 3 54 16 54 8 0 15 5 15 10 0 6 7 10 15 10
8 0 15 5 15 10 0 6 -5 10 -11 10 -7 0 -9 10 -4 27 6 26 6 27 -13 10 -10 -9
-26 -17 -34 -17 -19 0 -29 -45 -15 -59 8 -8 6 -11 -6 -11 -14 0 -16 7 -10 46
5 38 3 46 -8 42 -8 -3 -14 -11 -14 -19 -1 -23 -13 -36 -40 -41 -31 -6 -32 -1
-1 23 16 12 22 26 19 38 -4 14 3 24 26 35 31 17 44 40 16 30 -8 -4 -15 -1 -15
5 0 6 -4 11 -9 11 -5 0 -7 -9 -4 -19 3 -14 -3 -24 -24 -35 -15 -8 -22 -15 -15
-16 8 0 12 -5 10 -12 -5 -15 -68 -23 -68 -9 0 6 5 11 11 11 6 0 8 8 4 19 -6
19 20 49 32 37 3 -3 12 3 20 14 8 11 20 20 26 20 7 0 18 9 25 21 10 15 16 18
26 10 9 -8 20 -3 41 19 27 28 27 30 8 30 -15 0 -20 5 -17 18 4 15 -3 17 -53
17 -77 -1 -103 5 -103 21 0 10 13 14 43 14 24 0 47 -3 50 -7 4 -3 24 -8 44
-10 36 -4 57 -19 47 -35 -7 -11 30 3 37 15 10 14 83 -11 108 -37 12 -13 36
-26 52 -30 21 -4 29 -11 29 -26 0 -23 18 -27 26 -5 4 10 14 13 33 9 37 -9 51
-23 51 -49 0 -44 20 -83 46 -88 33 -6 37 5 19 50 -19 48 -94 115 -161 147
-145 69 -404 142 -592 167 -52 6 -100 18 -107 25 -8 9 -15 10 -17 3 -2 -6 -19
-7 -45 -3 -24 3 -40 11 -37 16 3 5 19 6 35 3 18 -4 29 -3 29 4 0 6 -6 11 -13
11 -7 0 -18 5 -24 11 -6 6 -31 12 -56 14 -25 1 -51 6 -57 10 -7 4 -39 8 -72 8
-32 0 -61 4 -64 9 -3 4 -16 8 -29 8 -13 0 -27 5 -30 10 -4 6 -11 8 -16 5 -5
-4 -9 -2 -9 3 0 12 -129 12 -136 0 -3 -4 0 -8 7 -8 7 0 10 -2 7 -5 -3 -4 -18
-3 -33 1 -27 7 -27 8 -20 63 13 103 18 192 31 546 9 256 14 346 20 356 3 5 14
9 25 9 16 0 19 -5 14 -19 -3 -11 -2 -22 3 -25 5 -3 7 -17 5 -31 -7 -36 4 -60
21 -46 10 8 21 7 42 -4 16 -8 23 -15 17 -15 -18 0 -16 -39 2 -46 19 -8 19 -21
0 -21 -8 0 -15 5 -15 10 0 6 -9 2 -20 -8 -11 -10 -23 -16 -26 -12 -10 10 7 47
22 47 8 0 14 4 14 9 0 5 -15 9 -34 9 -32 0 -34 -1 -26 -28 6 -20 4 -32 -8 -44
-15 -15 -15 -19 -2 -43 10 -18 25 -27 45 -29 17 -1 22 0 13 2 -9 3 -15 11 -12
18 3 8 -2 21 -11 30 -15 15 -15 16 4 16 11 0 24 -7 29 -16 5 -9 13 -15 18 -15
5 0 9 -5 9 -13 0 -7 6 -21 14 -30 11 -13 11 -19 1 -31 -7 -9 -10 -18 -7 -22 4
-3 9 2 13 11 3 9 10 16 15 16 14 0 11 -48 -3 -54 -7 -3 -2 -3 11 0 16 4 21 3
17 -5 -12 -18 4 -71 18 -65 9 3 25 -18 45 -60 17 -36 35 -67 40 -70 4 -3 7
-17 5 -32 -2 -18 2 -24 11 -20 20 7 45 -26 38 -52 -3 -13 -1 -22 6 -22 7 0 10
4 7 9 -8 12 4 41 16 41 5 0 6 -5 3 -10 -4 -6 -1 -17 5 -25 8 -10 9 -15 2 -15
-6 0 -9 -7 -5 -16 4 -10 9 -12 16 -5 7 7 16 7 29 0 12 -7 18 -6 18 1 0 6 11
-1 25 -16 14 -15 28 -24 32 -21 3 4 11 -3 18 -16 6 -12 17 -21 23 -19 16 3 16
-15 0 -20 -6 -2 -8 -9 -4 -16 5 -9 12 -9 26 0 15 10 22 10 32 0 6 -6 20 -12
29 -12 9 0 22 -6 28 -14 9 -11 7 -15 -11 -20 l-23 -6 25 -15 c32 -19 41 -19
34 0 -7 18 0 19 27 5 10 -6 19 -17 19 -25 0 -8 4 -15 9 -15 15 0 -1 51 -18 57
-36 11 -61 27 -61 39 0 7 -6 14 -12 16 -9 3 -8 9 5 22 9 10 17 19 17 21 0 8
-46 -9 -62 -22 -15 -14 -17 -13 -15 5 0 12 6 18 14 15 7 -3 13 0 13 7 0 6 4 8
10 5 5 -3 32 9 59 26 l50 33 -30 18 c-20 12 -29 26 -29 43 0 25 -14 33 -25 15
-8 -13 -25 -13 -25 -1 0 10 57 26 79 22 8 -1 10 2 5 11 -4 7 -8 26 -8 43 -1
25 -5 29 -22 27 -12 -1 -27 4 -34 13 -7 8 -16 12 -21 9 -5 -3 -9 -1 -9 5 0 5
6 11 13 14 16 6 -14 63 -31 59 -16 -3 -15 4 4 22 12 12 12 16 2 16 -10 0 -10
2 1 9 9 6 23 4 38 -6 29 -19 29 -10 2 28 -18 26 -19 34 -9 58 6 16 10 37 8 47
-2 11 4 20 15 22 13 3 17 -3 17 -22 0 -14 -4 -26 -8 -26 -4 0 -8 -10 -9 -22
-2 -20 -1 -21 8 -5 6 9 17 17 25 17 8 0 13 -4 10 -9 -7 -11 90 -71 115 -71 21
0 26 -16 6 -23 -9 -4 -9 -8 2 -16 11 -7 18 -5 27 7 11 15 14 14 23 -10 15 -40
21 -34 18 19 -2 42 0 47 22 53 13 3 27 14 31 25 15 43 22 -62 25 -390 l3 -340
58 -6 c58 -5 234 -65 284 -97 31 -19 67 -58 86 -94 19 -37 24 -35 24 7 0 47
-42 90 -150 154 -47 28 -105 65 -130 82 -25 17 -51 35 -58 39 -16 9 -28 154
-42 535 -6 154 -14 312 -18 351 l-8 71 43 -33 c50 -38 162 -94 189 -94 21 0
78 -32 111 -62 l22 -21 -2 49 c-2 47 -3 49 -32 49 -45 0 -116 47 -154 102 -19
26 -63 78 -97 114 -43 46 -63 77 -67 100 -2 19 -3 36 -1 38 2 3 48 -23 129
-72 11 -7 40 -26 65 -43 45 -30 100 -57 100 -49 0 5 -49 205 -55 221 -2 6 0
16 4 22 8 14 177 -18 244 -46 86 -35 266 -14 347 40 29 20 150 162 166 195 3
7 -9 27 -28 45 -18 18 -31 33 -28 34 3 1 2 6 -2 10 -5 4 -8 0 -8 -10 0 -9 -11
-21 -25 -28 -19 -9 -29 -8 -50 6 -14 9 -31 14 -38 9 -8 -5 -8 -2 1 9 11 14 10
17 -7 23 -14 4 -21 15 -21 31 0 13 -5 24 -11 24 -5 0 -8 4 -4 9 3 5 -2 17 -11
26 -13 12 -19 13 -31 3 -9 -7 -17 -8 -21 -2 -9 12 -57 11 -74 -3 -25 -21 -65
-26 -71 -9 -5 12 -14 14 -38 9 -23 -4 -30 -3 -25 5 4 7 14 12 21 12 22 0 41
40 24 51 -7 4 -17 5 -21 3 -4 -3 -8 0 -8 5 0 6 9 11 19 11 10 0 21 7 25 15 3
8 0 15 -7 15 -7 0 -20 19 -29 43 -10 25 -17 34 -17 22 -1 -12 -12 -25 -28 -32
-55 -23 -70 -24 -84 -7 -12 15 -11 16 10 9 17 -5 22 -4 19 6 -3 8 -20 15 -39
17 -23 2 -30 0 -20 -6 9 -7 10 -12 2 -16 -6 -4 -22 5 -36 20 -16 17 -31 25
-44 21 -11 -3 -25 1 -32 9 -6 8 -17 14 -24 14 -7 0 -15 7 -19 15 -3 8 -15 15
-26 15 -13 0 -20 7 -20 20 0 22 -18 27 -26 7 -6 -16 -84 -18 -84 -2 0 5 4 16
9 24 8 12 12 13 25 1 9 -7 19 -10 23 -6 3 3 1 6 -5 6 -7 0 -12 7 -12 15 0 23
-36 18 -47 -7 -5 -13 -9 -41 -7 -63 2 -22 1 -32 -2 -22 -8 25 -33 21 -46 -8
-9 -19 -8 -29 6 -50 16 -24 15 -25 -2 -25 -10 0 -23 5 -30 12 -9 9 -15 9 -24
0 -9 -9 -7 -12 10 -12 27 0 31 -35 5 -44 -22 -9 -43 12 -25 23 10 6 8 10 -9
14 -13 4 -25 4 -28 2 -2 -3 0 -5 5 -5 5 0 9 -19 8 -42 -1 -56 21 -112 41 -104
19 7 19 -3 1 -45 -12 -28 -16 -31 -21 -16 -4 9 -13 17 -21 17 -8 0 -14 5 -14
10 0 6 -9 10 -20 10 -31 0 -37 29 -44 230 -10 267 -35 368 -100 395 -21 9 -26
15 -16 18 39 12 125 27 154 27 18 0 36 3 39 7 17 16 116 8 189 -15 80 -25 121
-24 98 3 -6 8 -9 19 -5 25 4 6 0 19 -9 28 -9 11 -13 27 -9 40 6 24 23 30 23 8
0 -20 19 -31 32 -18 7 7 4 18 -7 35 -14 23 -20 24 -41 15 -13 -6 -26 -20 -30
-30 -7 -24 -47 -20 -52 5 -2 11 6 29 18 42 23 25 11 46 -15 25 -25 -20 -34 -2
-28 55 4 38 2 55 -6 55 -10 0 -12 -11 -16 -99 -1 -20 -10 -40 -20 -48 -22 -16
-35 -17 -35 -3 0 6 -5 10 -11 10 -6 0 -9 -9 -6 -20 6 -24 -31 -54 -56 -44 -18
6 -53 55 -49 67 1 5 -5 4 -15 -1 -11 -7 -25 -6 -41 1 -21 10 -23 16 -18 47 4
19 9 67 12 105 2 39 6 88 9 110 2 22 4 86 4 141 l1 102 64 7 c57 6 70 4 105
-17 57 -32 72 -70 80 -201 4 -70 10 -112 18 -114 7 -3 10 8 7 34 -2 21 -5 77
-8 124 -5 82 -4 87 15 82 10 -3 39 0 63 6 31 8 53 8 74 0 45 -15 54 -51 42
-166 -6 -52 -9 -141 -9 -196 1 -56 -4 -137 -10 -180 -9 -57 -10 -82 -2 -91 12
-15 60 -22 216 -35 116 -10 230 -43 245 -71 15 -28 95 -60 151 -60 60 0 73
-15 124 -142 20 -50 48 -103 63 -118 15 -15 34 -38 44 -51 12 -18 19 -21 28
-12 19 18 -6 137 -43 207 -17 33 -53 81 -79 108 -48 49 -48 65 0 27 24 -18 27
-19 30 -4 6 29 -5 40 -94 95 -105 65 -215 166 -243 224 -42 86 -18 202 47 221
18 5 31 14 29 19 -2 5 -46 34 -98 64 -79 46 -104 55 -157 60 -34 2 -65 9 -68
13 -3 5 1 9 9 9 8 0 26 24 40 53 49 100 44 128 -12 76 -32 -29 -34 -29 -54
-12 -11 10 -17 12 -12 4 7 -12 -4 -13 -66 -6 -41 4 -96 8 -124 9 -67 2 -123
28 -131 60 -7 31 -24 34 -31 6 -3 -11 -7 -20 -9 -20 -18 0 -115 58 -139 84
-17 17 -43 40 -59 51 -16 11 -40 43 -53 72 -38 79 -47 69 -37 -39 18 -189 1
-638 -24 -638 -4 0 -17 12 -29 27 -18 20 -20 29 -11 35 10 6 10 10 -2 18 -13
9 -13 11 0 20 13 8 13 13 2 30 -7 11 -10 25 -7 30 3 5 1 11 -3 14 -5 3 -7 17
-4 31 6 32 -5 32 -30 0 -11 -14 -24 -22 -30 -19 -6 4 -6 10 1 17 6 6 11 22 11
37 0 18 -3 21 -9 11 -5 -7 -14 -10 -20 -7 -6 4 -9 11 -6 16 7 11 -22 33 -35
25 -22 -14 -8 16 15 31 25 16 34 44 15 44 -5 0 -10 -4 -10 -10 0 -5 -11 -10
-24 -10 -19 0 -27 8 -37 38 -6 20 -16 39 -20 42 -4 3 -4 12 1 20 8 12 13 13
30 2 17 -10 20 -10 20 4 0 9 -8 23 -17 30 -16 12 -16 15 -3 24 11 7 11 10 2
10 -7 0 -11 4 -8 9 3 5 -1 14 -9 21 -8 7 -15 17 -15 22 0 16 -74 78 -107 90
-39 14 -45 37 -8 30 16 -3 33 2 47 14 19 17 21 17 15 2 -4 -12 -2 -15 7 -12 8
3 17 1 21 -5 3 -6 15 -11 26 -11 10 0 19 -5 19 -11 0 -17 33 -5 36 13 1 9 -1
32 -6 51 -7 31 -5 36 24 53 17 10 36 19 43 20 7 1 26 12 43 24 24 17 45 22 83
21 56 -1 107 16 107 37 0 13 -1 13 -125 -15 -155 -35 -284 -75 -357 -111 -42
-20 -74 -34 -72 -30 3 5 -3 11 -12 15 -16 6 -16 7 2 14 17 7 17 8 1 8 -15 1
-17 7 -11 38 4 21 18 58 31 82 12 24 23 50 23 58 0 7 8 32 18 56 10 23 23 56
29 72 6 17 14 38 18 48 5 12 2 17 -9 17 -16 0 -63 -91 -70 -135 -2 -15 -11
-20 -37 -21 -19 0 -41 -4 -50 -8 -10 -5 -19 1 -29 19 -7 14 -17 25 -22 25 -16
0 -8 -31 15 -54 34 -34 32 -88 -5 -163 -17 -35 -34 -63 -39 -63 -7 0 -168 99
-179 110 -12 12 -150 102 -210 136 -66 38 -83 46 -157 80 -24 10 -43 22 -43
26 0 15 85 127 98 127 6 1 12 -8 12 -19 0 -10 9 -24 19 -30 30 -16 43 -12 36
10 -9 29 4 25 15 -5 8 -21 14 -24 50 -21 22 2 43 -1 46 -5 3 -5 16 -9 30 -9
23 0 26 -3 28 -32 2 -23 25 -39 56 -40 26 -1 29 -4 24 -21 -5 -17 -3 -19 16
-14 16 4 20 2 16 -9 -3 -7 -2 -13 2 -13 21 3 31 -3 26 -15 -3 -8 -1 -17 5 -21
6 -3 11 1 11 10 0 30 -23 110 -36 122 -7 7 -10 22 -7 33 4 14 0 20 -11 20 -9
0 -13 6 -10 14 3 9 -5 21 -20 31 -16 11 -26 26 -26 42 0 13 -7 31 -15 39 -8 9
-15 24 -15 35 0 11 -4 17 -10 14 -6 -4 -10 12 -9 42 0 41 2 45 12 29 7 -10 28
-39 48 -65 37 -48 139 -206 174 -268 41 -73 65 -45 29 32 -13 28 -23 53 -24
56 0 4 -8 24 -17 45 -20 45 -43 163 -43 215 0 23 -6 42 -19 53 -11 10 -17 24
-15 31 3 7 1 16 -5 20 -6 3 -11 15 -11 26 0 38 -19 18 -56 -62 -31 -65 -39
-77 -45 -61 -10 26 -29 38 -29 18 0 -31 -21 -26 -35 8 -9 20 -20 36 -25 36 -6
0 -10 5 -10 12 0 6 -10 22 -22 35 l-22 23 37 31 c20 17 37 37 37 45 0 31 73
59 200 79 24 4 38 13 46 30 11 22 8 28 -28 66 -38 40 -39 42 -23 66 9 13 32
31 52 39 24 10 33 20 29 30 -3 8 -2 12 3 9 5 -3 12 -1 15 4 11 18 -28 22 -41
5 -7 -10 -13 -14 -13 -10 0 5 -7 3 -15 -4 -11 -9 -15 -10 -15 -1 0 8 -8 10
-22 5 -60 -20 -141 6 -191 60 -31 33 -27 46 16 66 25 12 31 20 29 40 -2 27
-44 70 -68 70 -28 0 -14 19 19 25 30 5 129 -12 170 -30 13 -5 16 -4 11 8 -8
22 -66 47 -107 47 -42 0 -55 15 -34 38 9 9 19 41 23 70 3 28 10 52 14 52 3 0
17 -11 30 -25 26 -28 29 -29 49 -16 16 10 5 35 -42 94 -35 43 -52 48 -43 13 7
-28 -9 -43 -28 -27 -7 6 -37 15 -66 21 -73 14 -94 34 -86 83 11 70 32 107 60
107 14 0 27 -4 30 -9 3 -5 18 -12 33 -16 16 -3 44 -16 63 -28 38 -24 90 -34
90 -18 0 5 -5 13 -11 16 -6 5 -4 12 8 20 17 13 17 14 0 32 -16 19 -16 21 2 37
19 17 23 17 67 2 56 -19 54 -19 54 -7 0 6 -13 18 -30 28 -45 26 -38 41 18 37
112 -10 228 -28 240 -37 7 -6 11 -20 8 -32 -7 -27 45 -90 61 -74 10 10 31 4
83 -26 18 -11 28 -11 38 -2 8 6 21 12 31 13 31 5 125 117 145 174 36 103 31
276 -9 354 -8 15 -15 35 -15 44 0 20 -65 135 -87 153 -15 12 -16 12 -10 -3 11
-31 -19 -9 -52 38 -18 24 -39 44 -48 44 -9 0 -22 8 -29 18 -12 16 -13 15 -14
-8 0 -21 -5 -25 -30 -25 -16 0 -30 3 -30 8 0 4 -23 5 -50 3 -27 -3 -50 0 -50
5 0 5 -4 9 -10 9 -5 0 -10 -6 -10 -14 0 -8 -5 -18 -12 -22 -8 -5 -9 -2 -5 11
6 14 3 16 -11 13 -11 -3 -27 -1 -37 5 -12 6 -16 6 -11 -1 10 -16 -13 -25 -29
-12 -15 13 -39 4 -30 -11 8 -12 0 -11 -40 5 -21 9 -37 11 -40 5 -10 -16 -35
-10 -35 9 0 14 2 15 10 2 8 -13 10 -12 10 3 0 10 -8 17 -19 17 -11 0 -23 5
-27 12 -5 8 -2 9 10 5 13 -5 17 -2 15 11 -3 34 1 42 24 43 l22 0 -22 11 c-21
10 -27 23 -26 56 1 6 -3 12 -8 12 -5 0 -9 6 -9 13 0 7 -6 22 -14 33 -12 15
-17 17 -27 7 -10 -10 -10 -13 -1 -13 7 0 12 -8 12 -18 0 -30 -27 -57 -57 -58
-96 -2 -103 -3 -103 -25 0 -12 6 -27 14 -33 8 -6 17 -26 21 -44 5 -25 3 -33
-11 -39 -10 -4 -22 0 -29 10 -7 10 -23 17 -36 17 -23 0 -24 2 -23 76 0 60 4
78 17 85 9 5 19 25 23 44 6 31 10 35 52 41 79 12 251 -8 347 -41 11 -3 7 1 -9
11 -45 26 -130 43 -241 50 -136 8 -240 -13 -369 -76 -97 -48 -185 -124 -258
-223 -65 -88 -84 -129 -103 -219 -19 -88 -19 -159 -1 -228 13 -48 30 -88 101
-245 8 -16 24 -56 36 -89 12 -32 30 -66 40 -75 73 -62 69 -54 69 -143 0 -57 6
-101 19 -138 11 -30 27 -95 36 -145 27 -148 51 -209 106 -269 46 -50 76 -103
65 -114 -3 -3 -13 1 -22 9 -14 11 -18 11 -30 -6 -8 -10 -14 -22 -14 -27 0 -25
-71 -156 -92 -170 -13 -9 -51 -17 -84 -19 -57 -4 -59 -3 -62 22 -3 28 -37 67
-49 56 -3 -4 2 -16 11 -26 22 -25 31 -88 17 -123 -15 -38 -55 -38 -75 0 -8 15
-23 36 -35 46 -28 26 -27 30 17 71 44 41 21 50 -26 10 -35 -29 -50 -30 -120
-10 -36 11 -58 13 -70 6 -18 -10 -12 -15 33 -24 12 -2 18 -9 16 -18 -2 -8 -5
-37 -8 -65 -5 -64 -17 -109 -29 -109 -5 0 -10 10 -12 23 -5 31 -18 28 -34 -8
-24 -54 -35 -34 -36 64 0 38 -5 62 -14 67 -14 9 -5 13 25 10 28 -3 20 21 -23
68 -33 36 -44 42 -62 36 -13 -4 -44 -7 -70 -6 -61 2 -65 -21 -8 -38 50 -15 57
-30 71 -161 8 -72 8 -104 -1 -119 -6 -12 -14 -21 -18 -21 -14 0 -28 46 -26 85
2 22 -6 60 -16 85 -10 25 -21 53 -24 63 -9 28 -27 20 -21 -10 6 -27 6 -27 -9
-9 -9 11 -16 23 -16 28 0 4 -3 7 -7 7 -23 -4 -34 5 -54 41 -13 22 -27 40 -31
40 -5 0 -8 22 -7 49 2 47 -19 101 -40 101 -4 0 -13 11 -19 25 -6 14 -17 25
-23 25 -7 0 -21 7 -31 17 -22 19 -22 11 -4 -42 16 -45 13 -55 -14 -55 -12 0
-17 6 -15 18 1 9 -3 28 -10 42 -7 14 -19 45 -26 70 -7 25 -16 50 -21 56 -4 6
-3 15 2 20 6 6 3 13 -8 20 -14 9 -20 6 -34 -22 -15 -29 -15 -34 -3 -34 18 0
18 0 -1 -39 -16 -32 -36 -35 -27 -3 2 10 -5 26 -16 36 -12 11 -21 24 -21 30 0
6 5 4 10 -4 6 -9 10 -10 10 -3 0 6 -4 15 -10 18 -5 3 -10 17 -10 31 0 21 -5
24 -35 24 -35 0 -46 12 -22 27 6 4 21 6 32 4 16 -3 17 -1 6 13 -17 20 -23 20
-48 -1 -25 -23 -39 -57 -20 -50 8 3 20 1 28 -4 10 -6 10 -9 2 -9 -7 0 -13 -7
-13 -15 0 -8 -4 -15 -10 -15 -5 0 -10 7 -10 15 0 8 -9 15 -19 15 -11 0 -23 9
-26 21 -4 12 -10 17 -14 12 -3 -6 -17 -14 -31 -18 -24 -7 -24 -7 -7 12 19 21
14 33 -15 33 -10 0 -18 7 -18 18 0 13 -2 14 -9 4 -7 -11 -9 -11 -14 2 -4 9 -2
16 3 16 6 0 10 5 10 11 0 6 -7 9 -15 5 -19 -7 -45 3 -45 16 0 6 -8 17 -17 24
-10 7 -18 16 -19 21 -2 17 -30 70 -67 126 -38 55 -55 72 -43 42 3 -9 0 -15 -8
-15 -8 0 -17 -7 -20 -16 -3 -8 -2 -12 4 -9 6 3 10 0 10 -8 0 -7 11 -24 25 -37
14 -13 25 -27 25 -31 0 -4 11 -20 25 -35 14 -15 25 -32 25 -37 0 -6 7 -19 17
-29 15 -17 15 -18 -4 -18 -20 0 -83 61 -83 79 0 5 -11 19 -24 32 -13 13 -27
43 -31 66 -4 28 -13 44 -25 48 -10 3 -20 16 -22 28 -2 12 -9 21 -16 19 -8 -1
-12 12 -12 37 0 29 -7 48 -26 68 l-26 28 20 -37 c18 -31 19 -38 6 -49 -8 -6
-14 -7 -14 -2 0 5 -11 16 -25 23 -14 8 -31 25 -38 38 -7 14 -26 32 -43 41 -17
9 -29 22 -26 29 2 7 -4 12 -13 12 -9 0 -13 5 -10 10 3 6 -2 22 -13 38 -11 15
-21 36 -24 47 -2 14 -10 19 -24 17 -18 -2 -23 4 -29 40 -4 24 -7 47 -6 51 1 5
-8 11 -19 14 -11 3 -20 10 -20 16 0 6 -17 25 -37 43 l-37 33 12 57 c7 35 8 63
2 73 -12 23 -119 126 -124 120 -2 -2 2 -29 10 -59 20 -72 14 -228 -10 -264
-23 -36 -84 -50 -185 -42 -93 7 -110 15 -104 49 3 16 -4 26 -27 39 -16 9 -30
23 -30 31 0 8 -8 21 -18 31 -17 15 -22 15 -54 2 -32 -14 -48 -13 -48 4 0 3 13
14 30 23 17 11 30 27 30 38 0 11 6 22 14 25 8 3 12 13 9 23 -2 9 2 23 11 30
11 10 13 19 5 38 -15 40 -5 53 35 46 45 -7 52 19 17 65 -22 30 -28 33 -61 27
-62 -11 -150 52 -150 106 0 10 -15 30 -34 45 -81 70 -144 83 -181 38 -11 -13
-41 -29 -68 -36 -43 -11 -52 -10 -85 7 -48 26 -52 54 -12 83 16 12 30 28 30
35 -1 7 -26 28 -57 47 -31 19 -79 56 -107 81 -53 48 -172 122 -294 184 -82 41
-84 41 -105 17z m3791 -275 c3 -12 -4 -17 -22 -17 -27 0 -37 24 -13 33 19 8
32 2 35 -16z m295 -214 c110 -1 130 -4 204 -32 45 -16 112 -49 148 -72 91 -57
200 -182 194 -222 -1 -6 3 -25 9 -40 7 -16 12 -35 12 -42 0 -21 31 -98 47
-117 16 -18 14 -58 -2 -60 -12 -2 -74 109 -75 133 0 29 -87 89 -186 130 -113
45 -207 73 -226 66 -15 -5 -16 -5 77 -32 75 -21 116 -40 185 -84 57 -36 140
-109 140 -123 0 -18 -25 -5 -78 41 -174 150 -456 206 -712 141 -74 -19 -75
-19 -51 1 13 10 29 19 37 19 8 0 14 5 14 10 0 14 -63 13 -77 -1 -13 -13 -33
-4 -33 16 0 17 32 29 41 14 4 -6 12 -8 18 -5 6 4 9 11 6 16 -17 27 154 61 306
61 149 0 226 -18 364 -87 164 -81 193 -81 126 3 -79 100 -175 165 -301 205
-64 19 -96 23 -215 23 -120 0 -150 -3 -210 -23 -38 -13 -76 -26 -84 -28 -11
-4 -10 0 3 15 9 10 51 29 92 42 50 15 79 30 87 44 9 16 12 17 14 5 3 -13 25
-16 126 -17z m617 -173 c0 -13 -7 -13 -31 1 -11 5 -17 14 -14 20 7 11 45 -7
45 -21z m80 -30 c0 -5 -4 -10 -9 -10 -6 0 -13 5 -16 10 -3 6 1 10 9 10 9 0 16
-4 16 -10z m57 -285 c9 -25 -2 -27 -22 -5 -17 18 -17 20 -1 20 9 0 19 -7 23
-15z m-3197 -99 c0 -11 -19 -15 -25 -6 -3 5 1 10 9 10 9 0 16 -2 16 -4z m3060
-71 c0 -14 -4 -25 -10 -25 -5 0 -10 11 -10 25 0 14 5 25 10 25 6 0 10 -11 10
-25z m-2502 -630 c-3 -3 -9 2 -12 12 -6 14 -5 15 5 6 7 -7 10 -15 7 -18z m287
-74 c3 -5 1 -12 -5 -16 -5 -3 -10 1 -10 9 0 18 6 21 15 7z m897 -490 c-1 -7 1
-10 6 -7 12 7 41 -29 62 -79 10 -23 30 -62 45 -85 23 -36 28 -40 42 -28 9 7
22 28 30 46 13 31 28 47 17 17 -4 -8 -1 -15 5 -15 6 0 11 -6 11 -12 0 -7 19
-21 43 -31 38 -17 40 -20 21 -27 -12 -5 -44 -7 -73 -6 -61 2 -63 -6 -18 -66
18 -24 54 -76 81 -115 26 -40 51 -73 55 -73 17 0 143 -113 154 -138 6 -15 52
-67 102 -117 65 -64 111 -123 162 -204 39 -63 69 -120 66 -127 -2 -6 -13 -14
-24 -17 -10 -3 -19 -13 -20 -24 -1 -13 -3 -11 -8 7 -4 14 -15 26 -25 28 -11 3
-16 0 -12 -7 14 -23 -7 -10 -43 27 -21 20 -48 44 -61 52 -40 27 -63 50 -57 56
3 3 -5 18 -19 32 -13 15 -25 30 -25 34 -1 5 -2 13 -3 18 0 6 -7 14 -14 19 -8
5 -13 11 -13 15 3 18 0 24 -13 29 -10 4 -13 1 -9 -9 3 -7 0 -14 -6 -14 -6 0
-11 7 -11 16 0 8 -15 28 -32 45 -18 16 -28 29 -23 29 5 0 -6 11 -25 25 -40 30
-31 33 14 6 31 -20 32 -20 75 -1 24 12 41 25 39 32 -3 7 -31 18 -64 25 -88 17
-165 45 -191 69 -25 23 -30 50 -11 56 7 3 -6 18 -29 34 -26 18 -40 34 -37 43
3 8 -4 33 -15 55 -24 50 -35 78 -32 89 0 4 -6 10 -14 13 -8 3 -13 10 -10 14 2
4 -6 19 -19 33 -13 14 -26 41 -30 61 -4 20 -10 36 -15 36 -9 0 -32 70 -26 81
3 4 -2 20 -10 35 -18 35 -19 47 -2 41 6 -2 11 -10 9 -16z m797 -14 c6 -8 8
-16 5 -20 -10 -9 -34 4 -34 19 0 18 14 18 29 1z m-384 -188 c-10 -15 -25 -10
-19 6 4 8 10 12 15 9 5 -3 7 -10 4 -15z m-229 -340 c25 -28 8 -54 -37 -54 -28
0 -35 4 -37 23 -7 49 40 69 74 31z m-345 -62 c-7 -7 -14 -8 -21 -1 -6 6 -2 10
12 11 16 2 18 -1 9 -10z m999 -135 c22 -19 31 -33 25 -41 -7 -13 -22 -1 -64
52 -21 26 1 20 39 -11z m238 -59 c10 -17 -3 -73 -18 -73 -14 0 -60 41 -60 54
0 34 61 50 78 19z m87 -142 c3 -6 -4 -15 -15 -21 -20 -11 -21 -10 -10 9 12 23
16 25 25 12z m71 -20 c4 7 9 8 17 0 7 -7 6 -15 -3 -26 -15 -18 -31 -20 -27 -2
1 7 -7 11 -20 9 -18 -3 -23 2 -23 19 0 20 1 21 24 5 17 -11 27 -12 32 -5z
m-326 -168 c0 -7 5 -13 12 -13 6 0 9 -2 6 -5 -10 -11 -39 8 -34 22 3 8 1 11
-4 8 -13 -8 -13 -35 0 -35 6 0 10 -7 10 -16 0 -14 -3 -14 -15 -4 -16 13 -18
10 -9 -14 3 -8 11 -13 17 -10 7 2 13 -6 13 -21 2 -33 29 -64 70 -81 18 -7 63
-38 100 -69 39 -30 79 -55 92 -55 38 0 189 -108 213 -151 7 -15 4 -16 -24 -9
-48 11 -87 32 -87 45 0 7 -10 13 -22 13 -13 0 -36 6 -53 13 -16 7 -33 12 -36
11 -4 -1 -15 8 -24 18 -10 11 -29 20 -42 20 -14 0 -23 6 -23 15 0 13 -7 17
-26 14 -3 0 -16 7 -30 16 -14 9 -32 14 -40 11 -10 -4 -12 -2 -8 6 5 7 -1 9
-18 5 -16 -4 -30 -2 -37 7 -6 7 -25 16 -42 20 l-30 6 6 136 c2 74 7 140 11
145 7 11 54 -31 54 -48z m298 17 c15 -12 48 -42 75 -67 37 -35 47 -51 45 -73
-1 -16 -6 -26 -10 -24 -4 3 -28 -15 -52 -40 -24 -26 -53 -46 -65 -46 -11 0
-54 30 -96 66 -71 62 -77 65 -94 50 -28 -25 -50 -19 -68 19 -13 28 -14 37 -3
50 17 21 42 19 73 -5 l25 -20 54 59 c57 63 70 66 116 31z m217 -240 c3 -5 1
-10 -4 -10 -6 0 -11 5 -11 10 0 6 2 10 4 10 3 0 8 -4 11 -10z m-425 -240 c24
-24 25 -33 5 -50 -28 -23 -114 23 -101 55 8 23 72 19 96 -5z m220 -80 c0 -5
-4 -10 -10 -10 -5 0 -10 5 -10 10 0 6 5 10 10 10 6 0 10 -4 10 -10z m-390
-130 c0 -5 -7 -10 -15 -10 -8 0 -15 5 -15 10 0 6 7 10 15 10 8 0 15 -4 15 -10z
m50 -10 c0 -5 -7 -10 -15 -10 -8 0 -15 5 -15 10 0 6 7 10 15 10 8 0 15 -4 15
-10z m-165 -60 c-5 -27 -3 -46 5 -56 16 -19 10 -25 -18 -17 -19 4 -22 12 -22
52 0 51 5 61 28 61 11 0 12 -9 7 -40z m-17 -148 c-2 -16 -9 -27 -18 -27 -19 0
-23 25 -10 61 10 26 13 27 21 11 6 -10 9 -30 7 -45z m1112 -2 c0 -5 -4 -10
-10 -10 -5 0 -10 5 -10 10 0 6 5 10 10 10 6 0 10 -4 10 -10z m-37 -127 c-7 -2
-19 -2 -25 0 -7 3 -2 5 12 5 14 0 19 -2 13 -5z m422 -3 c3 -5 -1 -10 -9 -10
-9 0 -16 5 -16 10 0 6 4 10 9 10 6 0 13 -4 16 -10z m-65 -10 c0 -5 -2 -10 -4
-10 -3 0 -8 5 -11 10 -3 6 -1 10 4 10 6 0 11 -4 11 -10z m-413 -20 c-3 -11 -1
-17 4 -14 6 3 16 1 23 -5 10 -8 17 -7 26 4 17 21 30 19 30 -5 0 -13 -6 -19
-17 -18 -56 4 -64 -6 -33 -42 11 -13 20 -28 20 -34 0 -6 4 -5 9 2 5 8 17 12
27 10 16 -3 15 -6 -9 -31 -26 -29 -26 -29 -56 -11 -16 10 -28 21 -26 25 3 4
-2 29 -10 55 -19 63 -19 84 1 84 11 0 15 -6 11 -20z m148 0 c3 -5 -1 -10 -9
-10 -9 0 -16 5 -16 10 0 6 4 10 9 10 6 0 13 -4 16 -10z m300 -28 c-3 -3 -11 0
-18 7 -9 10 -8 11 6 5 10 -3 15 -9 12 -12z m-1685 -12 c0 -5 -6 -10 -14 -10
-8 0 -18 5 -21 10 -3 6 3 10 14 10 12 0 21 -4 21 -10z m1400 -10 c0 -5 -7 -10
-16 -10 -8 0 -12 5 -9 10 3 6 10 10 16 10 5 0 9 -4 9 -10z m28 -32 c17 -17 15
-28 -7 -28 -22 0 -35 15 -26 30 8 13 18 13 33 -2z m-2032 -23 c4 -8 17 -15 31
-15 19 0 24 4 19 16 -4 10 -1 14 6 12 20 -7 23 -48 4 -48 -9 0 -16 -4 -16 -10
0 -18 -20 -11 -21 8 -1 16 -2 16 -6 0 -6 -23 -9 -22 -34 3 -11 11 -18 27 -15
35 7 18 25 18 32 -1z m2560 -7 c-1 -15 -8 -24 -21 -25 -11 -2 -14 0 -7 3 6 3
10 10 6 15 -6 10 3 29 15 29 5 0 8 -10 7 -22z m-2600 -29 c10 -16 -6 -29 -24
-20 -9 5 -25 12 -34 15 -10 3 -18 9 -18 14 0 10 68 3 76 -9z m2108 6 c3 -8 2
-15 -3 -15 -5 0 -14 7 -21 15 -10 12 -10 15 3 15 8 0 17 -7 21 -15z m-2069
-75 c-3 -5 -10 -10 -16 -10 -5 0 -9 5 -9 10 0 6 7 10 16 10 8 0 12 -4 9 -10z
m2774 -23 c14 -18 5 -26 -20 -20 -20 5 -24 15 -12 26 10 10 19 8 32 -6z
m-2866 -17 c3 -11 1 -20 -4 -20 -5 0 -9 9 -9 20 0 11 2 20 4 20 2 0 6 -9 9
-20z m37 0 c0 -5 -4 -10 -10 -10 -5 0 -10 5 -10 10 0 6 5 10 10 10 6 0 10 -4
10 -10z m145 0 c3 -5 1 -10 -4 -10 -6 0 -11 5 -11 10 0 6 2 10 4 10 3 0 8 -4
11 -10z m-140 -70 c4 -6 -6 -10 -22 -9 -25 0 -26 1 -8 9 11 5 21 9 22 9 1 1 5
-3 8 -9z m-55 -14 c0 -3 -4 -8 -10 -11 -5 -3 -10 -1 -10 4 0 6 5 11 10 11 6 0
10 -2 10 -4z m-230 -40 c0 -31 -28 -56 -41 -35 -5 8 -7 20 -4 27 3 8 5 18 5
23 0 5 9 9 20 9 14 0 20 -7 20 -24z m2740 4 c0 -5 -2 -10 -4 -10 -3 0 -8 5
-11 10 -3 6 -1 10 4 10 6 0 11 -4 11 -10z m-994 -70 c24 0 44 -18 44 -39 0
-13 -2 -13 -9 -2 -6 10 -10 10 -16 1 -5 -8 -11 -6 -21 7 -9 12 -13 13 -14 5 0
-7 -4 -11 -10 -7 -5 3 -7 12 -3 21 4 10 -4 18 -25 26 -23 9 -27 14 -18 24 9
11 15 8 31 -11 12 -14 30 -25 41 -25z m-532 -4 c30 -27 32 -36 11 -36 -14 0
-26 -30 -23 -60 3 -29 -2 -51 -10 -46 -4 2 -9 -13 -9 -35 -1 -21 2 -39 6 -39
14 0 21 -44 9 -51 -20 -13 -40 3 -35 27 2 13 1 24 -2 24 -5 0 -7 210 -3 233 4
14 32 6 56 -17z m451 -26 c-3 -5 -11 -10 -16 -10 -6 0 -7 5 -4 10 3 6 11 10
16 10 6 0 7 -4 4 -10z m255 -10 c0 -5 -5 -10 -11 -10 -5 0 -7 5 -4 10 3 6 8
10 11 10 2 0 4 -4 4 -10z m195 -50 c3 -4 -4 -10 -15 -13 -13 -3 -20 0 -20 10
0 8 -5 11 -12 7 -6 -4 -8 -3 -5 4 7 11 44 5 52 -8z m-463 -22 c-15 -15 -26 -4
-18 18 5 13 9 15 18 6 9 -9 9 -15 0 -24z m68 -12 c0 -13 7 -26 15 -30 17 -6
21 -26 5 -26 -5 0 -18 8 -28 18 -10 10 -26 21 -35 25 -9 3 -17 11 -17 16 0 8
10 12 53 20 4 0 7 -10 7 -23z m388 -8 c-2 -7 -7 -16 -13 -20 -7 -5 -7 -10 0
-15 6 -5 11 -20 13 -35 2 -22 -1 -25 -19 -21 -15 4 -19 11 -15 27 3 12 1 28
-4 36 -5 8 -10 11 -10 7 0 -5 -5 -5 -11 -1 -7 4 -2 11 13 19 30 17 49 18 46 3z
m-118 -8 c0 -5 -4 -10 -10 -10 -5 0 -10 5 -10 10 0 6 5 10 10 10 6 0 10 -4 10
-10z m-139 -23 c-6 -8 -9 -16 -6 -19 3 -2 -8 -17 -25 -31 -16 -15 -30 -22 -30
-17 0 6 -7 10 -16 8 -10 -2 -19 2 -21 9 -3 7 3 9 16 6 22 -6 30 12 9 20 -20 7
-4 17 31 20 17 1 31 5 31 10 0 4 5 7 11 7 8 0 9 -4 0 -13z m59 3 c0 -5 -4 -10
-9 -10 -6 0 -13 5 -16 10 -3 6 1 10 9 10 9 0 16 -4 16 -10z m-172 -38 c2 -7
-3 -12 -10 -12 -15 0 -38 19 -38 32 0 11 43 -7 48 -20z m170 -7 c-4 -17 -1
-25 8 -25 8 0 14 7 14 15 0 8 5 15 10 15 6 0 10 -9 10 -20 0 -18 -20 -26 -52
-21 -4 0 -7 -9 -5 -20 1 -12 -3 -24 -9 -26 -18 -6 -57 55 -49 75 6 16 7 16 19
0 15 -20 42 -7 33 16 -4 11 -1 16 9 16 12 0 15 -7 12 -25z m-1510 -22 c6 -15
12 -37 12 -50 0 -13 4 -23 9 -23 4 0 8 -12 9 -27 1 -58 15 -133 24 -133 6 0 7
-7 4 -16 -4 -9 -1 -23 5 -30 6 -8 8 -25 5 -39 -4 -16 -2 -25 5 -25 6 0 9 -7 5
-15 -3 -8 0 -14 7 -12 7 1 11 -5 9 -14 -1 -9 5 -22 13 -29 8 -7 15 -21 15 -32
0 -11 7 -26 16 -35 8 -9 13 -22 10 -29 -3 -8 -1 -14 5 -14 5 0 9 -6 8 -12 -3
-25 1 -38 12 -38 16 0 38 -31 39 -54 0 -11 3 -16 6 -13 8 8 54 -43 54 -59 0
-19 63 -75 102 -91 36 -14 68 -57 68 -90 0 -12 17 -17 51 -14 23 2 69 -55 69
-85 0 -26 -21 -31 -62 -15 -29 12 -318 103 -414 131 -62 17 -73 24 -79 47 -3
14 -20 39 -37 55 -26 24 -28 28 -10 28 12 0 22 9 27 23 4 13 8 17 12 10 8 -22
21 -14 15 10 -6 23 -25 47 -37 47 -4 0 -5 -9 -2 -20 6 -24 -1 -25 -25 -3 -26
23 -23 31 15 35 17 2 30 8 27 13 -3 6 -10 9 -16 9 -6 -1 -11 17 -12 42 0 24 3
42 8 41 4 -1 8 3 8 8 0 6 -4 9 -8 8 -11 -3 -20 36 -10 42 5 3 7 24 4 48 -13
121 -16 169 -16 247 0 47 2 94 4 105 3 11 8 37 13 58 9 44 16 46 33 10z m1649
21 c-3 -3 -12 -4 -19 -1 -8 3 -5 6 6 6 11 1 17 -2 13 -5z m39 -44 c16 -11 22
-29 26 -72 2 -31 1 -55 -4 -52 -11 7 -10 1 8 -35 10 -20 15 -49 12 -76 -2 -25
0 -45 4 -45 11 0 -18 -64 -31 -68 -14 -5 -14 15 -1 23 8 5 7 11 -1 21 -16 19
-32 6 -25 -21 4 -15 -1 -31 -14 -46 l-19 -24 -1 23 c0 12 6 22 13 22 9 0 12
10 9 30 -3 21 -10 30 -22 30 -10 0 -20 5 -22 11 -2 7 -25 11 -55 11 -29 -1
-55 3 -59 10 -4 7 -3 8 5 4 14 -9 45 20 36 34 -5 8 -11 7 -21 -1 -10 -8 -14
-8 -14 0 0 6 -12 11 -27 11 -21 0 -24 3 -13 9 8 6 18 7 22 4 10 -5 38 15 38
28 0 4 -17 6 -39 4 -38 -3 -38 -3 -27 21 7 16 17 23 29 20 10 -2 17 2 17 10 0
8 -6 11 -16 7 -12 -4 -15 -1 -12 13 2 10 10 18 16 17 19 -5 14 15 -5 20 -10 2
-6 3 9 1 15 -2 36 0 45 3 15 6 14 8 -6 13 -35 8 -39 30 -6 30 15 0 24 -4 20
-10 -8 -13 2 -13 18 0 63 53 66 54 113 20z m-789 -132 c-7 -4 -16 -3 -21 2
-20 20 -28 9 -12 -15 9 -14 13 -25 9 -25 -5 0 -17 17 -29 38 -16 29 -18 42
-10 60 11 22 11 22 42 -15 22 -26 28 -40 21 -45z m143 51 c0 -6 -4 -7 -10 -4
-5 3 -10 11 -10 16 0 6 5 7 10 4 6 -3 10 -11 10 -16z m420 -23 c0 -8 -7 -19
-15 -26 -13 -10 -15 -9 -15 12 0 14 3 28 6 31 9 9 24 -2 24 -17z m-320 -17 c0
-6 -7 -8 -16 -5 -8 3 -12 2 -9 -4 3 -6 1 -10 -4 -10 -6 0 -11 7 -11 15 0 8 9
15 20 15 11 0 20 -5 20 -11z m58 -29 c12 -12 22 -17 22 -13 0 4 5 2 12 -5 7
-7 20 -12 31 -12 14 0 17 -5 12 -21 -5 -16 -4 -19 6 -14 9 6 11 4 6 -7 -8 -23
4 -30 22 -14 19 17 36 10 45 -20 4 -15 2 -24 -9 -28 -22 -8 -18 -23 8 -31 22
-8 22 -8 -3 -12 -14 -3 -31 -10 -38 -16 -10 -8 -16 -7 -23 4 -6 9 -4 18 7 26
20 14 3 25 -31 19 -25 -5 -34 7 -15 19 14 9 12 36 -2 33 -15 -3 -60 20 -70 36
-4 6 -4 21 -1 34 3 15 1 27 -8 33 -8 5 -9 9 -3 9 5 0 20 -9 32 -20z m-248 -20
c0 -5 -9 -10 -19 -10 -11 0 -23 5 -26 10 -4 6 5 10 19 10 14 0 26 -4 26 -10z
m-20 -54 c0 -19 -4 -23 -20 -19 -11 3 -20 11 -20 19 0 8 6 11 17 7 11 -4 14
-3 9 5 -4 7 -2 12 3 12 6 0 11 -11 11 -24z m-45 -66 c3 -5 1 -10 -4 -10 -6 0
-11 5 -11 10 0 6 2 10 4 10 3 0 8 -4 11 -10z m180 -20 c3 -10 12 -21 20 -24 8
-3 15 -13 15 -22 0 -11 6 -15 20 -11 11 3 20 1 20 -4 0 -4 6 -6 14 -3 11 4 13
0 9 -15 -4 -15 -1 -21 10 -21 20 0 67 -46 67 -65 0 -22 -21 -18 -27 4 -3 11
-12 22 -20 25 -11 5 -13 1 -8 -17 4 -12 3 -17 -2 -10 -4 6 -24 16 -43 21 -19
6 -27 11 -17 11 10 1 17 9 17 20 0 28 -17 35 -36 17 -19 -19 -34 -12 -34 15 0
10 -7 19 -15 19 -18 0 -20 16 -2 24 10 5 10 7 0 12 -7 3 -13 14 -13 24 0 13
-6 17 -22 14 -21 -4 -21 -4 -3 4 25 12 43 5 50 -18z m325 -40 c0 -5 -7 -10
-15 -10 -8 0 -15 5 -15 10 0 6 7 10 15 10 8 0 15 -4 15 -10z m-390 -134 c0 -3
-4 -8 -10 -11 -5 -3 -10 -1 -10 4 0 6 5 11 10 11 6 0 10 -2 10 -4z m320 -27
c0 -5 -7 -9 -15 -9 -15 0 -20 12 -9 23 8 8 24 -1 24 -14z m42 -16 c-6 -2 -10
-9 -6 -14 3 -5 -2 -9 -10 -9 -9 0 -16 7 -16 15 0 9 9 15 23 14 12 0 16 -3 9
-6z m-22 -139 c0 -8 -4 -12 -10 -9 -5 3 -10 10 -10 16 0 5 5 9 10 9 6 0 10 -7
10 -16z m94 -106 c17 1 17 -1 5 -13 -17 -17 -55 -10 -63 12 -5 11 -1 13 17 7
12 -4 31 -7 41 -6z m-49 -38 c-3 -5 -10 -10 -16 -10 -5 0 -9 5 -9 10 0 6 7 10
16 10 8 0 12 -4 9 -10z m-892 -262 c5 -18 -3 -48 -14 -48 -5 0 -9 3 -9 8 0 4
-3 17 -6 30 -5 16 -2 22 9 22 8 0 17 -6 20 -12z m374 -220 c11 -14 18 -118 8
-118 -11 0 -28 55 -29 92 -1 40 5 47 21 26z m808 -37 c3 -5 1 -12 -4 -15 -5
-3 -11 1 -15 9 -6 16 9 21 19 6z m32 -233 c-3 -8 -6 -5 -6 6 -1 11 2 17 5 13
3 -3 4 -12 1 -19z m-85 -33 c-2 -14 0 -25 4 -25 16 0 15 -81 -1 -97 -12 -12
-16 -12 -19 -1 -10 30 1 148 14 148 4 0 5 -11 2 -25z m-62 -86 c0 -6 7 -9 15
-5 9 3 15 0 15 -8 0 -12 -29 -31 -35 -24 -10 12 -14 48 -6 48 6 0 11 -5 11
-11z m190 -29 c0 -38 -15 -46 -34 -18 -14 20 -14 24 1 40 20 23 33 14 33 -22z
m-1112 -37 c-13 -16 -28 -7 -28 16 0 27 12 33 26 13 8 -12 9 -21 2 -29z m1151
20 c0 -25 -1 -26 -9 -8 -12 27 -12 35 0 35 6 0 10 -12 9 -27z m-1209 -3 c0 -5
-4 -10 -10 -10 -5 0 -10 5 -10 10 0 6 5 10 10 10 6 0 10 -4 10 -10z m1071 -39
c-1 -2 3 -8 11 -13 10 -8 10 -11 0 -15 -6 -2 -10 -9 -6 -14 3 -5 -3 -9 -12 -9
-10 0 -15 3 -11 6 3 3 1 18 -4 32 -5 14 -7 33 -4 41 5 14 8 13 18 -4 6 -11 10
-22 8 -24z m49 19 c0 -5 -4 -10 -10 -10 -5 0 -10 5 -10 10 0 6 5 10 10 10 6 0
10 -4 10 -10z m90 -36 c0 -8 -5 -12 -10 -9 -6 4 -8 11 -5 16 9 14 15 11 15 -7z
m-1108 -39 c-4 -5 -5 -18 -4 -28 2 -10 -2 -25 -10 -34 -12 -15 -11 -15 10 -4
25 13 42 7 42 -15 0 -8 15 -47 34 -87 46 -97 52 -119 32 -111 -9 3 -16 10 -16
15 0 5 -9 9 -20 9 -11 0 -20 -4 -20 -10 0 -5 5 -10 10 -10 7 0 9 -16 5 -42 -7
-51 -7 -45 0 -135 5 -56 3 -76 -8 -87 -12 -12 -14 -8 -15 32 -2 88 -5 117 -11
122 -12 10 -31 50 -31 67 0 10 -7 27 -15 37 -8 11 -15 39 -15 63 0 36 -3 43
-20 43 -15 0 -20 7 -20 26 0 20 4 25 17 20 15 -6 15 -5 -1 13 -14 15 -16 27
-10 57 5 22 7 44 6 50 -1 7 9 15 23 18 14 4 25 12 25 19 0 8 3 7 9 -3 6 -8 7
-19 3 -25z m-82 -54 c0 -6 -4 -13 -10 -16 -5 -3 -10 1 -10 9 0 9 5 16 10 16 6
0 10 -4 10 -9z m-304 -432 c9 -10 23 -19 31 -19 11 0 18 -25 14 -52 0 -4 8
-10 19 -13 11 -4 20 -12 20 -20 0 -7 6 -15 14 -18 7 -3 16 -22 19 -42 4 -22
19 -50 37 -68 17 -18 43 -44 58 -59 15 -16 34 -28 43 -28 29 0 135 -121 157
-179 8 -20 18 -65 22 -101 4 -36 14 -82 24 -103 10 -24 16 -60 15 -100 -1 -34
4 -93 10 -131 8 -43 9 -78 3 -95 -6 -16 -5 -34 1 -48 17 -38 3 -53 -50 -53
-34 -1 -55 -7 -73 -22 -16 -14 -21 -22 -12 -25 6 -3 12 -11 12 -18 0 -22 30
-26 66 -9 19 9 41 14 49 10 22 -8 18 -36 -5 -36 -10 0 -24 -8 -29 -17 -9 -16
-12 -16 -21 -3 -5 9 -10 10 -10 3 0 -6 17 -20 38 -30 34 -17 37 -22 40 -65 3
-51 -2 -56 -34 -34 -11 8 -41 17 -67 21 -26 4 -51 13 -55 19 -4 6 -20 22 -36
34 -23 17 -31 20 -38 10 -6 -10 -8 -8 -8 5 0 11 -8 17 -22 17 -30 0 -91 22
-112 39 -12 10 -16 10 -16 1 0 -13 -56 28 -64 47 -4 9 5 12 28 10 24 -1 32 -6
28 -16 -3 -9 0 -12 9 -9 8 3 14 11 14 19 0 15 32 14 50 -1 10 -8 45 11 45 24
0 4 17 28 38 54 37 47 37 47 92 44 78 -4 100 -3 112 4 18 12 -2 107 -33 152
-16 23 -29 46 -29 50 0 4 -15 14 -32 23 -22 10 -35 26 -40 47 -10 37 -27 43
-29 10 -1 -18 -2 -19 -6 -5 -3 11 -12 17 -25 15 -12 -2 -26 5 -32 15 -9 15 -7
21 13 36 21 16 23 23 17 62 -7 46 -25 69 -116 148 -34 30 -58 66 -98 148 -29
59 -60 122 -69 138 -35 68 -66 219 -48 237 10 10 54 -4 71 -23z m464 -101 c5
-24 19 -70 29 -103 29 -90 34 -118 20 -113 -10 3 -68 210 -69 246 0 26 10 10
20 -30z m1170 -123 c0 -8 -7 -15 -15 -15 -16 0 -20 12 -8 23 11 12 23 8 23 -8z
m-1446 -570 c3 -8 1 -15 -4 -15 -6 0 -10 7 -10 15 0 8 2 15 4 15 2 0 6 -7 10
-15z m22 -205 c14 0 27 -7 30 -15 4 -8 10 -12 15 -9 12 7 11 -17 0 -35 -8 -13
-13 -11 -28 6 -21 24 -63 40 -63 24 0 -17 -25 -13 -44 8 -17 19 -16 23 15 34
13 4 16 1 12 -14 -3 -10 0 -19 6 -19 6 0 14 12 18 28 5 19 8 22 11 10 2 -11
13 -18 28 -18z m1006 -106 c17 -16 17 -18 -4 -36 -12 -10 -28 -16 -35 -14 -8
3 -13 -2 -13 -14 0 -23 -8 -25 -31 -7 -14 11 -15 16 -4 30 7 10 19 15 29 11
11 -4 16 -1 16 13 0 35 15 41 42 17z m148 -294 c0 -5 -7 -10 -15 -10 -8 0 -15
5 -15 10 0 6 7 10 15 10 8 0 15 -4 15 -10z m-1187 -16 c-4 -10 -13 -14 -28
-10 -16 4 -25 1 -29 -10 -4 -9 -13 -14 -21 -10 -8 3 -15 2 -15 -3 0 -13 -56
-19 -74 -9 -11 6 -16 5 -16 -6 0 -14 -23 -17 -27 -3 -9 23 -1 29 31 24 22 -3
42 0 56 10 12 8 45 19 73 23 29 4 53 8 54 9 1 0 0 -6 -4 -15z m275 -57 c11
-22 11 -32 2 -40 -9 -9 -17 -5 -36 18 -30 38 -31 57 -2 53 13 -2 29 -15 36
-31z m-91 -33 c59 -29 65 -45 27 -71 -25 -16 -30 -16 -93 0 -39 10 -80 15 -98
11 -41 -8 -64 12 -52 44 6 15 17 22 36 22 15 0 35 5 43 10 27 17 82 11 137
-16z m838 -28 c50 -18 70 -30 70 -43 0 -23 -45 -34 -66 -16 -20 17 -177 73
-206 73 -13 0 -23 5 -23 11 0 19 148 2 225 -25z m-1085 -10 c0 -2 3 -11 6 -20
9 -23 -13 -20 -26 4 -9 16 -8 20 5 20 8 0 15 -2 15 -4z m-50 -40 c0 -13 -39
-30 -48 -21 -8 7 20 35 34 35 8 0 14 -6 14 -14z m150 -36 c0 -5 -9 -10 -20
-10 -11 0 -20 5 -20 10 0 6 9 10 20 10 11 0 20 -4 20 -10z m102 -451 c-2 -8
-7 -36 -11 -62 -8 -46 -38 -91 -64 -96 -39 -7 -92 -5 -92 4 0 6 10 10 23 10
24 -1 27 5 13 21 -5 5 -13 30 -19 57 -10 49 -8 51 31 48 9 -1 20 5 23 13 4 11
14 14 29 10 13 -3 26 -1 30 6 10 16 41 7 37 -11z"/>
<path d="M4220 9090 c0 -5 14 -10 30 -10 17 0 30 5 30 10 0 6 -13 10 -30 10
-16 0 -30 -4 -30 -10z"/>
<path d="M4080 9083 c-19 -3 -39 -9 -45 -15 -12 -12 112 -1 135 13 16 9 -22
10 -90 2z"/>
<path d="M4325 9080 c3 -5 13 -10 21 -10 8 0 14 5 14 10 0 6 -9 10 -21 10 -11
0 -17 -4 -14 -10z"/>
<path d="M4682 6317 c-18 -18 -32 -42 -32 -53 0 -34 42 -86 83 -102 l38 -15
40 39 c21 21 39 44 39 51 0 18 -101 113 -121 113 -8 0 -29 -15 -47 -33z"/>
<path d="M4305 4840 c3 -5 8 -10 11 -10 2 0 4 5 4 10 0 6 -5 10 -11 10 -5 0
-7 -4 -4 -10z"/>
<path d="M4920 4680 c0 -5 5 -10 10 -10 6 0 10 5 10 10 0 6 -4 10 -10 10 -5 0
-10 -4 -10 -10z"/>
<path d="M5091 4573 c-13 -14 -12 -18 8 -34 13 -11 21 -25 18 -34 -4 -8 -2
-17 3 -20 6 -4 10 1 10 10 0 10 6 15 13 12 10 -4 10 3 -2 28 -9 18 -22 30 -29
27 -8 -3 -10 1 -6 12 8 20 3 20 -15 -1z"/>
<path d="M5050 4520 c0 -5 5 -10 11 -10 5 0 7 5 4 10 -3 6 -8 10 -11 10 -2 0
-4 -4 -4 -10z"/>
<path d="M5035 4470 c3 -5 8 -10 11 -10 2 0 4 5 4 10 0 6 -5 10 -11 10 -5 0
-7 -4 -4 -10z"/>
<path d="M5102 4448 c5 -15 48 -18 48 -3 0 6 -11 11 -26 13 -18 3 -25 0 -22
-10z"/>
<path d="M5115 4407 c-12 -7 -19 -20 -17 -30 4 -18 5 -17 18 2 17 23 49 28 57
9 4 -8 6 -7 6 3 1 9 -6 20 -15 23 -20 7 -24 7 -49 -7z"/>
<path d="M4356 4521 c-4 -5 -2 -12 3 -15 5 -4 12 -2 15 3 4 5 2 12 -3 15 -5 4
-12 2 -15 -3z"/>
<path d="M4820 4345 c-7 -8 -8 -15 -2 -15 5 0 15 7 22 15 7 8 8 15 2 15 -5 0
-15 -7 -22 -15z"/>
<path d="M4190 2695 c0 -9 6 -12 15 -9 8 4 15 10 15 15 0 5 -7 9 -15 9 -8 0
-15 -7 -15 -15z"/>
<path d="M4060 1566 c0 -2 7 -6 15 -10 8 -3 15 -1 15 4 0 6 -7 10 -15 10 -8 0
-15 -2 -15 -4z"/>
<path d="M4104 1129 c-10 -16 23 -46 36 -33 6 6 8 18 4 27 -7 19 -29 22 -40 6z"/>
<path d="M4231 9679 c-20 -8 -22 -11 -10 -26 12 -14 12 -16 0 -8 -10 5 -12 4
-7 -3 12 -19 56 -15 56 6 0 30 -13 40 -39 31z"/>
<path d="M4153 9630 c-2 -19 8 -26 20 -14 7 7 -2 34 -12 34 -4 0 -7 -9 -8 -20z"/>
<path d="M4576 9635 c10 -8 26 -14 34 -14 9 0 4 6 -10 14 -33 19 -49 19 -24 0z"/>
<path d="M4425 9501 c-6 -11 9 -23 19 -14 9 9 7 23 -3 23 -6 0 -12 -4 -16 -9z"/>
<path d="M4500 9454 c0 -8 5 -12 10 -9 6 3 10 10 10 16 0 5 -4 9 -10 9 -5 0
-10 -7 -10 -16z"/>
<path d="M1795 8910 c3 -5 8 -10 11 -10 2 0 4 5 4 10 0 6 -5 10 -11 10 -5 0
-7 -4 -4 -10z"/>
<path d="M1820 8861 c0 -6 9 -16 20 -23 11 -7 20 -18 20 -25 0 -7 4 -13 9 -13
5 0 7 8 4 18 -5 20 -53 58 -53 43z"/>
<path d="M2080 8670 c0 -5 7 -10 15 -10 8 0 15 5 15 10 0 6 -7 10 -15 10 -8 0
-15 -4 -15 -10z"/>
<path d="M4840 8570 c0 -5 7 -13 16 -18 8 -5 21 -26 29 -47 18 -53 35 -57 35
-8 0 48 -23 83 -56 83 -13 0 -24 -4 -24 -10z"/>
<path d="M4791 8453 c20 -54 49 -71 49 -30 0 25 -28 57 -48 57 -8 0 -9 -7 -1
-27z"/>
<path d="M4726 8248 c-8 -33 -7 -88 2 -88 4 0 18 20 29 44 16 32 19 46 10 55
-18 18 -34 13 -41 -11z"/>
<path d="M2635 8100 c-19 -8 -19 -9 2 -9 12 -1 26 -8 31 -17 5 -10 12 -12 15
-7 11 17 -26 42 -48 33z"/>
<path d="M2815 8010 c3 -5 11 -10 16 -10 6 0 7 5 4 10 -3 6 -11 10 -16 10 -6
0 -7 -4 -4 -10z"/>
<path d="M2850 7950 c0 -5 5 -10 11 -10 5 0 7 5 4 10 -3 6 -8 10 -11 10 -2 0
-4 -4 -4 -10z"/>
<path d="M2865 7870 c3 -5 12 -7 20 -3 21 7 19 13 -6 13 -11 0 -18 -4 -14 -10z"/>
<path d="M4786 7651 c-5 -8 5 -25 28 -46 43 -39 49 -20 8 26 -21 23 -31 29
-36 20z"/>
<path d="M4412 7593 c-21 -33 -22 -37 -6 -54 20 -22 46 -13 42 15 -1 11 1 27
6 34 5 9 3 19 -5 27 -12 11 -18 7 -37 -22z"/>
<path d="M4931 7483 c7 -12 15 -20 18 -17 3 2 -3 12 -13 22 -17 16 -18 16 -5
-5z"/>
<path d="M4960 7442 c0 -4 9 -13 20 -20 19 -12 20 -11 8 8 -13 20 -28 27 -28
12z"/>
<path d="M5080 7114 c0 -4 15 -26 34 -48 57 -70 136 -98 136 -49 0 12 -25 32
-73 58 -77 43 -97 51 -97 39z"/>
<path d="M5753 7108 c-5 -7 -27 -65 -48 -128 -21 -63 -49 -143 -62 -177 -36
-91 -38 -173 -6 -239 24 -49 54 -74 88 -74 18 0 20 41 3 58 -10 10 -7 16 10
28 28 20 62 55 62 65 0 13 -69 -26 -105 -59 -9 -8 -15 -9 -15 -3 0 12 9 23 83
109 26 30 47 59 47 64 0 16 -19 8 -38 -16 -10 -14 -32 -36 -48 -50 l-30 -25 7
52 c3 29 4 58 1 65 -2 7 0 23 6 35 15 31 42 115 42 132 0 8 4 15 8 15 13 0 30
83 25 123 -5 39 -14 46 -30 25z"/>
<path d="M5808 6523 c6 -2 18 -2 25 0 6 3 1 5 -13 5 -14 0 -19 -2 -12 -5z"/>
<path d="M4938 6363 c-25 -6 -22 -20 6 -27 13 -3 31 -9 40 -12 11 -4 16 -1 16
11 0 9 -5 13 -11 10 -6 -4 -16 -1 -22 7 -7 8 -20 13 -29 11z"/>
<path d="M5190 6335 c-7 -9 -10 -18 -7 -21 10 -11 37 5 37 21 0 19 -14 19 -30
0z"/>
<path d="M5185 6290 c-3 -5 -1 -10 6 -10 6 0 18 -8 25 -17 12 -17 13 -17 14 3
0 12 -7 25 -16 28 -21 8 -22 8 -29 -4z"/>
<path d="M5020 6269 c0 -5 5 -7 10 -4 6 3 10 8 10 11 0 2 -4 4 -10 4 -5 0 -10
-5 -10 -11z"/>
<path d="M5056 6195 c-3 -8 -1 -15 4 -15 6 0 10 7 10 15 0 8 -2 15 -4 15 -2 0
-6 -7 -10 -15z"/>
<path d="M6086 6106 c-22 -34 -21 -37 25 -95 24 -30 39 -58 35 -66 -9 -24 -23
-18 -63 30 -36 44 -63 58 -63 32 0 -7 31 -43 68 -80 65 -64 69 -67 94 -55 47
23 39 118 -11 118 -33 0 -52 33 -45 77 4 28 2 42 -9 51 -12 10 -17 8 -31 -12z"/>
<path d="M5415 6090 c-8 -14 3 -30 21 -30 8 0 28 -10 44 -22 32 -23 51 -19 30
7 -21 25 -88 56 -95 45z"/>
<path d="M6235 5810 c-7 -23 10 -50 31 -50 17 0 18 24 4 51 -14 25 -27 24 -35
-1z"/>
<path d="M5967 5455 c3 -9 -3 -23 -13 -31 -11 -9 -12 -12 -4 -8 12 6 13 5 3
-7 -10 -13 -9 -20 8 -38 23 -24 37 -24 53 1 7 12 6 25 -4 45 -23 44 -57 74
-43 38z"/>
<path d="M5891 5373 c-9 -21 -9 -28 1 -34 18 -12 28 -1 28 32 0 36 -13 37 -29
2z"/>
<path d="M5937 5363 c-10 -9 -9 -23 1 -23 5 0 9 7 9 15 0 17 -1 18 -10 8z"/>
<path d="M6180 5350 c0 -5 5 -10 10 -10 6 0 10 5 10 10 0 6 -4 10 -10 10 -5 0
-10 -4 -10 -10z"/>
<path d="M5880 5320 c0 -5 5 -10 10 -10 6 0 10 5 10 10 0 6 -4 10 -10 10 -5 0
-10 -4 -10 -10z"/>
<path d="M5160 5219 c0 -4 7 -9 15 -13 9 -3 15 0 15 8 0 7 -7 13 -15 13 -8 0
-15 -4 -15 -8z"/>
<path d="M8335 4609 c-10 -15 3 -25 16 -12 7 7 7 13 1 17 -6 3 -14 1 -17 -5z"/>
<path d="M5380 4240 c0 -5 4 -10 9 -10 6 0 13 5 16 10 3 6 -1 10 -9 10 -9 0
-16 -4 -16 -10z"/>
<path d="M4934 4187 c3 -7 9 -20 12 -29 4 -10 10 -18 15 -18 5 0 9 -5 9 -11 0
-5 -4 -8 -9 -5 -19 12 -39 -6 -37 -32 2 -19 10 -28 25 -30 11 -2 21 -11 22
-20 0 -12 3 -10 9 6 13 30 40 40 55 18 7 -9 19 -14 29 -10 9 3 16 1 16 -5 0
-6 5 -11 10 -11 6 0 10 11 10 25 0 14 -4 25 -8 25 -5 0 -19 9 -32 20 -17 15
-27 17 -41 9 -11 -5 -24 -7 -29 -4 -15 9 -12 32 5 39 8 3 15 10 15 17 0 6 -7
9 -15 6 -8 -4 -17 -2 -20 2 -8 14 -47 21 -41 8z m23 -113 c-3 -3 -12 -4 -19
-1 -8 3 -5 6 6 6 11 1 17 -2 13 -5z"/>
<path d="M4317 4153 c-13 -15 -13 -21 -3 -35 18 -25 22 -23 21 10 0 15 4 30
10 34 7 5 6 8 -1 8 -6 0 -18 -8 -27 -17z"/>
<path d="M4373 4160 c-23 -9 -32 -30 -14 -30 10 0 41 28 41 36 0 5 1 5 -27 -6z"/>
<path d="M5177 4157 c-3 -8 1 -14 9 -14 7 0 15 6 18 14 3 7 -1 13 -8 13 -8 0
-16 -6 -19 -13z"/>
<path d="M4416 4134 c-4 -10 -1 -14 6 -12 15 5 23 28 10 28 -5 0 -13 -7 -16
-16z"/>
<path d="M9026 4101 c-3 -5 1 -14 8 -20 16 -13 32 2 21 19 -8 12 -22 13 -29 1z"/>
<path d="M5116 4075 c-3 -8 0 -15 6 -15 7 0 9 -13 5 -35 -7 -43 -3 -44 17 -3
20 38 20 38 1 38 -18 0 -20 16 -2 23 7 4 6 6 -4 6 -9 1 -19 -6 -23 -14z"/>
<path d="M4326 4061 c-4 -7 -5 -15 -2 -18 9 -9 19 4 14 18 -4 11 -6 11 -12 0z"/>
<path d="M4980 3990 c0 -16 5 -30 10 -30 6 0 10 6 10 14 0 8 3 21 6 30 4 11 1
16 -10 16 -11 0 -16 -9 -16 -30z"/>
<path d="M4500 3996 c0 -2 7 -9 15 -16 12 -10 15 -10 15 4 0 9 -7 16 -15 16
-8 0 -15 -2 -15 -4z"/>
<path d="M5064 3983 c0 -11 -5 -17 -13 -15 -17 4 -53 -27 -45 -39 3 -5 9 -7
13 -5 3 3 7 -3 7 -13 0 -13 -6 -16 -25 -13 -16 3 -22 1 -17 -7 12 -19 67 -43
83 -37 14 6 14 8 -1 25 -16 17 -15 18 11 13 22 -4 26 -2 16 8 -8 9 -9 19 -2
32 5 10 6 18 2 18 -4 0 -1 5 7 10 13 9 12 12 -4 25 -26 20 -34 19 -32 -2z"/>
<path d="M4310 3790 c0 -5 5 -10 10 -10 6 0 10 5 10 10 0 6 -4 10 -10 10 -5 0
-10 -4 -10 -10z"/>
<path d="M5000 3785 c-14 -16 -10 -18 14 -9 9 3 16 10 16 15 0 14 -16 11 -30
-6z"/>
<path d="M4465 3740 c-3 -5 -1 -10 4 -10 6 0 11 5 11 10 0 6 -2 10 -4 10 -3 0
-8 -4 -11 -10z"/>
<path d="M5051 3694 c0 -11 3 -14 6 -6 3 7 2 16 -1 19 -3 4 -6 -2 -5 -13z"/>
<path d="M4415 3680 c3 -5 10 -10 16 -10 5 0 9 5 9 10 0 6 -7 10 -16 10 -8 0
-12 -4 -9 -10z"/>
<path d="M4816 3682 c-3 -5 8 -9 24 -9 16 0 27 4 24 9 -3 4 -14 8 -24 8 -10 0
-21 -4 -24 -8z"/>
<path d="M4450 3670 c0 -5 5 -10 11 -10 6 0 8 -9 4 -22 -5 -18 -4 -20 5 -8 9
13 13 12 29 -8 18 -21 21 -21 36 -6 9 9 14 23 11 31 -3 8 -6 19 -6 24 0 5 -10
9 -22 8 -13 0 -17 -3 -10 -6 13 -5 17 -33 4 -33 -5 0 -18 9 -30 20 -24 22 -32
25 -32 10z"/>
<path d="M4366 3661 c-8 -12 21 -34 34 -26 8 5 8 11 -1 21 -13 16 -25 18 -33
5z"/>
<path d="M4647 3621 c3 -11 -2 -21 -12 -25 -9 -3 -13 -2 -10 4 6 10 -25 30
-47 30 -7 0 -1 -11 14 -25 32 -29 44 -31 66 -8 16 16 17 15 20 -1 3 -11 10
-15 22 -11 11 3 20 0 24 -10 3 -9 10 -14 15 -10 12 7 4 32 -12 38 -7 3 -28 12
-48 21 -35 15 -37 14 -32 -3z"/>
<path d="M4947 3603 c-13 -13 -7 -21 13 -16 11 3 20 9 20 14 0 10 -24 12 -33
2z"/>
<path d="M4776 3584 c-8 -22 -2 -27 23 -19 18 5 19 8 7 21 -19 18 -22 18 -30
-2z"/>
<path d="M5030 3565 c-11 -13 -10 -14 4 -9 9 3 16 10 16 15 0 13 -6 11 -20 -6z"/>
<path d="M4834 3555 c-17 -13 -17 -14 -2 -15 9 0 20 5 23 11 11 17 0 20 -21 4z"/>
<path d="M4875 3560 c3 -5 10 -10 16 -10 5 0 9 5 9 10 0 6 -7 10 -16 10 -8 0
-12 -4 -9 -10z"/>
<path d="M4940 3543 c0 -15 2 -15 9 -4 8 12 12 12 24 2 9 -7 18 -8 21 -3 3 6
-1 13 -10 16 -28 11 -44 6 -44 -11z"/>
<path d="M5040 3535 c-16 -19 0 -19 26 0 16 12 16 14 3 15 -9 0 -22 -7 -29
-15z"/>
<path d="M5675 3220 c3 -5 8 -10 11 -10 2 0 4 5 4 10 0 6 -5 10 -11 10 -5 0
-7 -4 -4 -10z"/>
<path d="M5231 3181 c-7 -5 -12 -14 -10 -20 3 -6 9 -7 18 -2 7 5 12 14 10 20
-3 6 -9 7 -18 2z"/>
<path d="M5270 3100 c0 -5 9 -14 20 -20 11 -6 20 -7 20 -3 0 5 -9 14 -20 21
-11 7 -20 8 -20 2z"/>
<path d="M5337 2863 c-4 -3 -7 -11 -7 -17 0 -6 5 -5 12 2 6 6 9 14 7 17 -3 3
-9 2 -12 -2z"/>
<path d="M5085 2810 c-3 -5 1 -10 9 -10 9 0 16 5 16 10 0 6 -4 10 -9 10 -6 0
-13 -4 -16 -10z"/>
</g>
</svg>
